<?xml version="1.0" encoding="UTF-8"?>
<!DOCTYPE svg PUBLIC "-//W3C//DTD SVG 1.1//EN" "http://www.w3.org/Graphics/SVG/1.1/DTD/svg11.dtd">
<!-- Creator: CorelDRAW 2018 (64-Bit) -->
<svg xmlns="http://www.w3.org/2000/svg" xml:space="preserve" width="165px" height="65px" version="1.1" style="shape-rendering:geometricPrecision; text-rendering:geometricPrecision; image-rendering:optimizeQuality; fill-rule:evenodd; clip-rule:evenodd"
viewBox="0 0 39.72 15.67"
 xmlns:xlink="http://www.w3.org/1999/xlink">
 <defs>
  <style type="text/css">
   <![CDATA[
    .str0 {stroke:#2B2A29;stroke-width:0.32;stroke-linecap:round;stroke-linejoin:round;stroke-miterlimit:22.9256}
    .fil0 {fill:#D9DADA}
    .fil2 {fill:#2B2A29;fill-rule:nonzero}
    .fil1 {fill:#FEFEFE;fill-rule:nonzero}
   ]]>
  </style>
 </defs>
 <g id="Слой_x0020_1">
  <metadata id="CorelCorpID_0Corel-Layer"/>
  <path class="fil0" d="M30.49 0.04l8.31 0c0.5,0 0.92,0.38 0.92,0.83l0 1.67c0,0.46 -0.42,0.83 -0.92,0.83l-8.31 0c-0.5,0 -0.91,-0.37 -0.91,-0.83l0 -1.67c0,-0.45 0.41,-0.83 0.91,-0.83z"/>
  <path class="fil1" d="M1.3 13.58l0.35 -0.07 0.35 -0.16c0.25,-0.11 0.48,-0.17 0.69,-0.17 0.04,0 0.08,0.02 0.13,0.07l0.5 -0.32c0.21,-0.11 0.43,-0.16 0.65,-0.16 0.01,0 0.06,-0.06 0.15,-0.19 0.08,-0.12 0.16,-0.22 0.24,-0.29l0.24 -0.33c0.18,-0.23 0.3,-0.41 0.35,-0.54l0 -0.11c0,-0.02 0.04,-0.1 0.12,-0.23 0.09,-0.14 0.16,-0.22 0.23,-0.26 0.07,-0.03 0.11,-0.08 0.12,-0.14l0 -0.12c0,-0.02 0.03,-0.08 0.09,-0.17 0.06,-0.1 0.14,-0.18 0.24,-0.25 0.1,-0.08 0.21,-0.23 0.34,-0.47l0.13 -0.15 0.11 -0.06c0.02,-0.02 0.02,-0.04 0.02,-0.09 0,-0.05 0,-0.1 -0.02,-0.14 0.08,-0.06 0.13,-0.13 0.15,-0.18l0.08 -0.3 0.12 -0.06 0 -0.19c0,-0.04 0.05,-0.13 0.17,-0.27 0.11,-0.14 0.24,-0.38 0.37,-0.73l0.34 -0.64 0 -0.04c-0.13,0.06 -0.23,0.11 -0.3,0.15l-0.31 0.16c-0.01,0 -0.08,0.05 -0.2,0.16 -0.13,0.1 -0.24,0.16 -0.34,0.17 -0.18,0.19 -0.38,0.3 -0.58,0.33 -0.21,0.03 -0.35,0.08 -0.43,0.15l-0.13 0.06c-0.03,0 -0.07,0.02 -0.13,0.06 -0.07,0.05 -0.11,0.07 -0.14,0.07 -0.07,0 -0.16,-0.04 -0.27,-0.13l-0.05 0 0 0.09c0,0.11 -0.03,0.17 -0.09,0.19 -0.07,0.01 -0.13,0.03 -0.2,0.06 -0.07,0.02 -0.11,0.03 -0.14,0.03 -0.22,0 -0.34,-0.05 -0.37,-0.15 -0.03,-0.1 -0.07,-0.17 -0.11,-0.21 -0.04,-0.03 -0.07,-0.08 -0.07,-0.13 0,-0.18 0.09,-0.37 0.28,-0.57 0.19,-0.19 0.34,-0.3 0.47,-0.31 0.01,0 0.08,-0.03 0.19,-0.07l0.04 0 0.21 0.05c0.16,0.03 0.26,0.07 0.29,0.11 0.03,0.04 0.06,0.06 0.11,0.06l0.19 -0.02 0.16 0.02c0.03,0 0.09,-0.06 0.18,-0.16 0.09,-0.12 0.21,-0.18 0.36,-0.19 0.34,-0.11 0.7,-0.28 1.08,-0.5 0.03,-0.07 0.09,-0.12 0.19,-0.15l0.13 -0.16c0,-0.03 0.08,-0.06 0.25,-0.11 0.17,-0.05 0.32,-0.18 0.44,-0.39 0.13,-0.2 0.2,-0.32 0.2,-0.35 0,-0.02 -0.01,-0.04 -0.02,-0.09 0.01,-0.03 0.04,-0.05 0.09,-0.06 0.08,-0.29 0.16,-0.46 0.23,-0.5 0.06,-0.04 0.21,-0.17 0.44,-0.4l0 -0.04 -0.04 -0.1 0 -0.05c0,-0.31 0.15,-0.56 0.45,-0.72 0.07,-0.37 0.18,-0.59 0.35,-0.65l0.13 -0.06 -0.05 -0.33c0,-0.06 0.08,-0.1 0.24,-0.13l0.06 -0.03 0.42 -0.69c0.08,-0.15 0.18,-0.23 0.31,-0.23 0.01,0 0.03,0.01 0.05,0.03l0.05 0c0.06,0 0.09,-0.03 0.09,-0.09 0,-0.01 -0.01,-0.04 -0.03,-0.07l0 -0.06c0,-0.15 0.13,-0.33 0.4,-0.53 0.26,-0.2 0.57,-0.3 0.92,-0.3 0.08,0 0.22,0.09 0.43,0.26 0.21,0.18 0.31,0.44 0.31,0.79l-0.13 0.41c0.05,0.16 0.07,0.25 0.07,0.27 0,0.05 -0.06,0.09 -0.18,0.12 -0.01,0.02 -0.02,0.06 -0.02,0.14 0,0.07 -0.02,0.14 -0.05,0.21 -0.03,0.07 -0.07,0.18 -0.1,0.33 -0.01,0 -0.03,0.02 -0.06,0.05l-0.2 0.06c-0.02,0.18 -0.05,0.28 -0.06,0.29l-0.06 0 -0.12 0.04c-0.1,0.03 -0.15,0.07 -0.15,0.13 0,0.01 0.01,0.05 0.03,0.13 0.01,0.01 0.01,0.03 0.01,0.06 0,0.17 -0.17,0.29 -0.54,0.35 0.01,0.11 -0.04,0.21 -0.16,0.29 -0.12,0.08 -0.19,0.15 -0.22,0.21l-0.53 0.51c-0.17,0.16 -0.48,0.36 -0.95,0.61 -0.03,0.05 -0.06,0.14 -0.09,0.27 -0.04,0.14 -0.09,0.24 -0.14,0.29l-0.4 0.9 0 0.08c0,0.07 -0.05,0.14 -0.14,0.2l0 0.15c0,0.03 -0.05,0.12 -0.13,0.27l-0.37 0.86c-0.09,0.18 -0.17,0.32 -0.24,0.43 -0.07,0.11 -0.13,0.22 -0.16,0.34 -0.04,0.12 -0.09,0.22 -0.17,0.31 -0.07,0.1 -0.12,0.19 -0.16,0.28 -0.02,0.08 -0.15,0.15 -0.38,0.19 0.01,0.03 0.04,0.06 0.1,0.09 0.05,0.03 0.08,0.06 0.08,0.08 -0.03,0.06 -0.06,0.09 -0.07,0.12 -0.02,0.03 -0.03,0.08 -0.05,0.17 -0.02,0.08 -0.04,0.14 -0.07,0.19 -0.03,0.04 -0.07,0.09 -0.11,0.13 -0.03,0.04 -0.06,0.09 -0.09,0.14 -0.03,0.04 -0.07,0.08 -0.11,0.1l-0.09 0.23 -0.11 0.08c-0.02,0 -0.03,0.02 -0.03,0.07 0,0.01 0.01,0.03 0.03,0.06 -0.1,0.21 -0.19,0.35 -0.26,0.42 -0.02,0.01 -0.02,0.1 -0.02,0.26 0.12,0 0.22,0.02 0.28,0.05 0.17,-0.08 0.27,-0.12 0.28,-0.12 0.05,0 0.1,0.01 0.17,0.04 0.06,0.02 0.09,0.03 0.11,0.03l0.18 -0.07 0.26 0.07 0.13 -0.02 0.3 0.02 0.18 -0.05 0.18 0.03 0.18 -0.05 0.09 0c0.05,0 0.21,0.02 0.5,0.07l0.02 0c0.03,0 0.1,-0.03 0.21,-0.09l0.02 0c0.03,0 0.09,0.01 0.17,0.03 0.08,0.03 0.14,0.04 0.19,0.04l0.28 -0.03 0.52 0.1 0.13 -0.05c0.02,0 0.03,0.01 0.06,0.02 0.39,0.05 0.82,0.15 1.3,0.28l0.35 0.07c0.01,0.01 0.05,0.01 0.11,0.01 0.07,0 0.17,-0.02 0.28,-0.08 0.37,0.08 0.62,0.17 0.74,0.27 0.02,0.01 0.06,0.04 0.14,0.07 0.08,0.03 0.14,0.07 0.18,0.12 0.05,0.04 0.14,0.11 0.29,0.21 0.14,0.09 0.21,0.2 0.21,0.33 0,0.39 -0.05,0.68 -0.16,0.85 -0.12,0.18 -0.23,0.27 -0.34,0.27 -0.27,0 -0.62,-0.13 -1.04,-0.39 -0.06,-0.09 -0.13,-0.16 -0.22,-0.21 -0.08,-0.06 -0.13,-0.13 -0.15,-0.23l-0.04 -0.04 -0.32 0c-0.03,0 -0.08,-0.03 -0.14,-0.07l-0.22 -0.04c-0.15,-0.08 -0.25,-0.13 -0.28,-0.16 -0.03,-0.03 -0.08,-0.05 -0.14,-0.05 -0.08,-0.01 -0.14,-0.04 -0.2,-0.08 -0.12,-0.01 -0.24,-0.04 -0.35,-0.1l-0.24 0 -0.07 -0.05c-0.02,-0.09 -0.08,-0.14 -0.15,-0.14l-0.1 0 -0.09 -0.02 -0.2 0 -0.16 -0.1 -0.05 0 -0.15 0.06 -0.24 -0.09 -0.15 0.07c-0.26,0 -0.44,-0.02 -0.52,-0.07l-0.18 0.03c-0.08,-0.06 -0.13,-0.09 -0.15,-0.09l-0.58 0.09 -0.25 -0.03 -0.23 0.03 -0.09 -0.07c-0.01,0.02 -0.06,0.06 -0.15,0.1 -0.09,0.05 -0.27,0.1 -0.55,0.15l-0.36 0.06 -0.22 -0.02 -0.13 0.04c-0.13,0.25 -0.26,0.4 -0.41,0.46 -0.03,0 -0.05,0.04 -0.07,0.13 -0.01,0.08 -0.06,0.16 -0.15,0.21 -0.08,0.07 -0.15,0.12 -0.19,0.17 -0.05,0.05 -0.1,0.09 -0.14,0.11 -0.06,0.02 -0.13,0.12 -0.21,0.3 -0.09,0.18 -0.23,0.27 -0.42,0.27l-0.16 -0.04c0.01,0.03 0.04,0.06 0.06,0.09 0.03,0.03 0.05,0.06 0.05,0.09 0,0.13 -0.1,0.19 -0.29,0.19 -0.02,0 -0.07,0.03 -0.16,0.1 -0.09,0.07 -0.22,0.13 -0.36,0.17l-0.09 0.08c-0.04,0.03 -0.11,0.05 -0.21,0.05l-0.65 0.24 -0.03 0 -0.16 -0.03c-0.02,0 -0.05,0.01 -0.09,0.03l-0.22 0c-0.06,0 -0.13,-0.03 -0.24,-0.09l-0.15 0.09c-0.01,-0.02 -0.1,-0.05 -0.26,-0.09 -0.19,0 -0.32,-0.03 -0.38,-0.09 -0.06,-0.06 -0.11,-0.08 -0.14,-0.08l-0.11 -0.05c-0.07,-0.03 -0.16,-0.05 -0.26,-0.05 -0.1,-0.01 -0.24,-0.13 -0.42,-0.35 -0.18,-0.23 -0.27,-0.4 -0.27,-0.51 0,-0.07 0.03,-0.14 0.09,-0.21 0.06,-0.06 0.15,-0.12 0.28,-0.17 0.14,-0.06 0.28,-0.13 0.44,-0.2l0.49 -0.25zm10.46 -11.03l0.32 -0.2c0.06,-0.04 0.2,-0.24 0.42,-0.62 0.21,-0.37 0.32,-0.67 0.32,-0.88 0,-0.06 0,-0.11 -0.02,-0.17 -0.21,0.08 -0.34,0.16 -0.38,0.22 -0.03,0.07 -0.18,0.26 -0.45,0.58 -0.26,0.32 -0.4,0.52 -0.4,0.6 -0.01,0.08 -0.07,0.22 -0.18,0.42 -0.11,0.21 -0.17,0.33 -0.18,0.37 0,0.04 -0.04,0.11 -0.1,0.2 -0.07,0.1 -0.1,0.17 -0.1,0.2 0,0.03 0.02,0.04 0.05,0.04 0.34,-0.3 0.54,-0.5 0.59,-0.59 0.06,-0.1 0.09,-0.15 0.11,-0.17zm-10.63 11.63l-0.41 0.19c-0.09,0.02 -0.14,0.06 -0.14,0.1 0.02,0.02 0.03,0.04 0.05,0.07 0.12,0.02 0.23,0.07 0.31,0.12 0.08,0.05 0.17,0.08 0.26,0.08l0.31 0.06 0.3 -0.02 0.09 0.04c0.03,-0.01 0.13,-0.07 0.28,-0.18 0,-0.01 0.01,-0.02 0.02,-0.02l0.27 0.02c0.04,-0.03 0.1,-0.07 0.16,-0.12 0.07,-0.06 0.16,-0.1 0.27,-0.14 0.07,-0.12 0.19,-0.23 0.34,-0.34 0.03,-0.09 0.06,-0.15 0.09,-0.2l0.07 -0.22c-0.35,0.03 -0.55,0.05 -0.61,0.06l-0.82 0.25c-0.5,0.15 -0.78,0.23 -0.84,0.25z"/>
  <path class="fil1" d="M16.75 9.05l0.16 -0.14c0.1,0 0.16,-0.05 0.18,-0.13 0.02,-0.09 0.09,-0.16 0.21,-0.21 0.12,-0.06 0.23,-0.16 0.33,-0.32 0.11,-0.16 0.22,-0.24 0.33,-0.24 0.04,0 0.08,0.03 0.14,0.09 0.05,0.07 0.07,0.12 0.07,0.16 0,0.22 -0.06,0.44 -0.19,0.67l-0.04 0.27 -0.07 0.13c-0.1,0.05 -0.16,0.11 -0.19,0.17 -0.03,0.06 -0.11,0.13 -0.23,0.22l-0.1 0.13c-0.15,0.05 -0.24,0.12 -0.29,0.23 -0.05,0.11 -0.12,0.16 -0.21,0.18 -0.09,0.01 -0.18,0.07 -0.29,0.19 -0.06,0.03 -0.14,0.06 -0.23,0.09l-0.02 0.1c-0.07,0.07 -0.17,0.12 -0.31,0.16 -0.14,0.04 -0.25,0.07 -0.32,0.11 -0.07,0.04 -0.11,0.05 -0.14,0.05 -0.12,0 -0.24,-0.02 -0.34,-0.07 -0.11,-0.05 -0.21,-0.08 -0.33,-0.09 -0.03,-0.04 -0.06,-0.08 -0.06,-0.13 -0.01,-0.05 -0.04,-0.11 -0.1,-0.18 -0.06,-0.08 -0.09,-0.18 -0.09,-0.31l0.04 -0.19c0,-0.03 -0.02,-0.06 -0.05,-0.1 -0.03,-0.04 -0.05,-0.07 -0.05,-0.1 0,-0.02 0.01,-0.04 0.02,-0.05 0.01,-0.02 0.02,-0.04 0.02,-0.06 0,-0.03 -0.01,-0.07 -0.02,-0.11 -0.01,-0.04 -0.02,-0.07 -0.02,-0.1l0.06 -0.48c0,-0.04 -0.02,-0.06 -0.04,-0.06 -0.03,0 -0.07,0.03 -0.14,0.1 -0.07,0.07 -0.15,0.1 -0.24,0.1 -0.05,0.04 -0.1,0.12 -0.13,0.24 -0.06,0.07 -0.12,0.13 -0.2,0.18l-0.04 0.06c-0.01,0.05 -0.06,0.08 -0.14,0.11 -0.09,0.03 -0.15,0.07 -0.18,0.11l-0.1 0.1 -0.19 -0.02c-0.01,0.02 -0.05,0.07 -0.1,0.17 -0.06,0.11 -0.14,0.19 -0.23,0.26l-0.75 0.6c-0.08,0.06 -0.19,0.12 -0.34,0.2l-0.06 0.06c-0.53,0.35 -0.9,0.52 -1.11,0.52 -0.18,0 -0.39,-0.05 -0.62,-0.15 -0.24,-0.09 -0.37,-0.21 -0.39,-0.35l-0.09 -0.4c-0.06,-0.09 -0.09,-0.22 -0.09,-0.39 0,-0.07 0.01,-0.13 0.02,-0.15l0 -0.06 -0.02 -0.33c0,-0.08 0.06,-0.11 0.18,-0.11l-0.02 -0.27c0,-0.03 0.06,-0.13 0.18,-0.31 0.11,-0.18 0.19,-0.28 0.23,-0.31l0.1 -0.13c-0.01,-0.08 0.04,-0.16 0.13,-0.25 0.1,-0.09 0.18,-0.18 0.24,-0.27 0.06,-0.09 0.17,-0.19 0.33,-0.3l0.3 -0.3c0.23,-0.23 0.48,-0.41 0.75,-0.55 0.04,-0.01 0.12,-0.08 0.24,-0.19 0.12,-0.12 0.26,-0.21 0.41,-0.27 0.16,-0.05 0.31,-0.12 0.45,-0.21 0.15,-0.08 0.27,-0.13 0.35,-0.13l0.08 0c0.03,0 0.2,-0.08 0.52,-0.24l0.06 0c0.03,0 0.09,0.03 0.19,0.08l0.02 0 0.16 -0.08c0.02,-0.01 0.06,-0.02 0.1,-0.02 0.4,0 0.62,0.28 0.66,0.84 0.02,0.12 0.05,0.18 0.11,0.18 0.06,0 0.15,-0.12 0.27,-0.36 0.12,-0.23 0.38,-0.36 0.77,-0.36 0.29,0 0.43,0.19 0.43,0.54 0,0.43 -0.19,0.83 -0.57,1.21 -0.03,0.06 -0.05,0.12 -0.06,0.18l-0.14 0.4 0 0.02c0,0.04 -0.03,0.1 -0.08,0.16 -0.06,0.07 -0.08,0.13 -0.08,0.19l0.02 0.24 -0.04 0.28c0,0.12 0.02,0.2 0.07,0.24 0.2,-0.05 0.35,-0.13 0.45,-0.26 0.09,-0.12 0.16,-0.19 0.2,-0.2l0.1 -0.04c0.06,-0.1 0.12,-0.18 0.2,-0.24zm-3.26 0c0.02,-0.15 0.11,-0.26 0.24,-0.33 0.14,-0.08 0.22,-0.15 0.24,-0.23 0.13,-0.09 0.31,-0.26 0.54,-0.49 0.23,-0.24 0.35,-0.38 0.35,-0.43 0,-0.02 -0.02,-0.03 -0.04,-0.03l-0.02 0 -0.08 0.04 -0.18 -0.01 -0.18 0.01 -0.14 -0.06 -0.13 0.02 -0.2 -0.04c-0.1,0 -0.19,0.02 -0.27,0.06 -0.07,0.04 -0.22,0.09 -0.43,0.14 -0.21,0.05 -0.41,0.14 -0.57,0.27 -0.18,0.13 -0.3,0.19 -0.38,0.19 -0.05,0.1 -0.2,0.24 -0.46,0.43 -0.16,0.05 -0.26,0.16 -0.31,0.34 -0.17,0.14 -0.25,0.22 -0.25,0.24l-0.07 0.16c-0.05,0.05 -0.12,0.09 -0.2,0.12 -0.07,0.03 -0.12,0.09 -0.14,0.2 -0.01,0.11 -0.05,0.21 -0.13,0.3 -0.07,0.09 -0.11,0.16 -0.11,0.21 0,0.32 0.06,0.48 0.18,0.48 0.06,0 0.17,-0.03 0.34,-0.1 0.16,-0.07 0.26,-0.12 0.28,-0.14 0.03,-0.03 0.09,-0.06 0.16,-0.08l0.19 -0.1c0.03,-0.03 0.05,-0.04 0.09,-0.05 0.03,-0.01 0.06,-0.03 0.09,-0.07 0.04,-0.03 0.1,-0.07 0.18,-0.11 0.09,-0.05 0.15,-0.1 0.2,-0.17 0.11,-0.07 0.29,-0.17 0.54,-0.31l0.21 -0.16c0.14,-0.06 0.23,-0.12 0.26,-0.16 0.04,-0.05 0.1,-0.09 0.2,-0.14z"/>
  <path class="fil1" d="M18.82 7.08l0.14 -0.24c0.04,-0.06 0.09,-0.13 0.16,-0.19 0.06,-0.06 0.12,-0.22 0.2,-0.48 0.07,-0.26 0.15,-0.43 0.24,-0.53 0.09,-0.1 0.22,-0.15 0.39,-0.15 0.1,0 0.23,0.05 0.38,0.14 0.17,0.1 0.32,0.38 0.48,0.86 0.15,0.48 0.23,0.82 0.23,1.01 0,0.08 0.02,0.18 0.07,0.3 0.04,0.13 0.07,0.22 0.09,0.28 -0.06,0.12 -0.08,0.18 -0.08,0.19l0.02 0.4 -0.12 0.33 0 0.23c-0.08,0.13 -0.12,0.21 -0.12,0.25 0,0.04 0.01,0.08 0.04,0.12 0.31,-0.14 0.49,-0.24 0.56,-0.32 0.07,-0.08 0.13,-0.13 0.19,-0.15 0.06,-0.02 0.17,-0.11 0.31,-0.26l0.19 -0.1c0.06,-0.08 0.12,-0.15 0.16,-0.21 0.05,-0.06 0.1,-0.1 0.16,-0.13 0.07,-0.03 0.14,-0.08 0.23,-0.14 0.08,-0.07 0.2,-0.14 0.37,-0.23l0.1 -0.11c0.09,-0.12 0.21,-0.2 0.34,-0.27 0.14,-0.06 0.21,-0.1 0.23,-0.1 0.04,0 0.09,0.06 0.14,0.18 0.05,0.12 0.07,0.25 0.07,0.36 0,0.11 -0.06,0.22 -0.19,0.33 -0.13,0.11 -0.22,0.19 -0.26,0.24 -0.05,0.06 -0.15,0.1 -0.31,0.14 -0.02,0.01 -0.13,0.14 -0.33,0.4l-0.19 0.12 -0.11 0.13c-0.01,0.03 -0.1,0.05 -0.26,0.08 -0.01,0 -0.02,0.03 -0.04,0.1 -0.03,0.06 -0.1,0.11 -0.21,0.13 -0.24,0.22 -0.36,0.34 -0.37,0.37l-0.2 0.04c-0.04,0.12 -0.08,0.2 -0.1,0.22 -0.16,0.04 -0.25,0.11 -0.27,0.2 -0.01,0.01 -0.05,0.03 -0.09,0.04l-0.05 0.03c-0.14,0.12 -0.29,0.19 -0.43,0.21l-0.23 0.06 -0.08 0.12c0,0.03 -0.08,0.08 -0.24,0.13 -0.16,0.05 -0.28,0.12 -0.36,0.19l-0.16 0.13c-0.21,0.08 -0.34,0.15 -0.39,0.22l-0.13 0c-0.1,0 -0.24,0.07 -0.44,0.2 -0.19,0.13 -0.35,0.2 -0.47,0.2 -0.38,0 -0.64,-0.05 -0.78,-0.14 -0.14,-0.1 -0.26,-0.21 -0.35,-0.36 -0.09,-0.14 -0.17,-0.25 -0.25,-0.33 -0.07,-0.09 -0.11,-0.16 -0.11,-0.21 0,-0.05 0.03,-0.09 0.09,-0.14 0.07,-0.05 0.13,-0.14 0.21,-0.28 0.07,-0.14 0.25,-0.23 0.54,-0.27 0.02,0 0.06,-0.02 0.15,-0.06 0.08,-0.04 0.14,-0.06 0.2,-0.06 0.06,0 0.15,0.06 0.24,0.18 0,0.01 0.02,0.02 0.04,0.02l0.16 -0.02c0.07,0.05 0.12,0.08 0.15,0.08 0.15,0 0.32,-0.08 0.5,-0.24l0.04 -0.02 0.08 0c0.02,0 0.05,-0.05 0.09,-0.16l0.17 -0.35 0.34 -0.44 0 -0.1c0,-0.02 0.02,-0.08 0.06,-0.17l0 -0.15c0,-0.06 0.04,-0.1 0.12,-0.12 0.08,-0.01 0.12,-0.05 0.12,-0.12l-0.02 -0.08c-0.06,-0.07 -0.08,-0.12 -0.08,-0.16l0.1 -0.2 -0.02 -0.2 0.04 -0.08c-0.03,-0.1 -0.04,-0.15 -0.04,-0.16l0.04 -0.25c0,0 -0.02,-0.06 -0.06,-0.18 -0.03,-0.12 -0.06,-0.18 -0.08,-0.18 -0.04,0 -0.16,0.1 -0.38,0.3 -0.2,0.21 -0.33,0.35 -0.37,0.44 -0.04,0.08 -0.12,0.16 -0.25,0.23 -0.13,0.06 -0.21,0.14 -0.26,0.23 -0.04,0.08 -0.1,0.13 -0.17,0.15l-0.66 0.53 -0.71 0.53c-0.06,0.05 -0.09,0.08 -0.1,0.08 -0.25,0 -0.37,-0.13 -0.37,-0.4 0,-0.08 0.05,-0.24 0.15,-0.46 0.05,-0.03 0.08,-0.05 0.11,-0.06 0.02,-0.01 0.03,-0.02 0.03,-0.03 0,-0.01 -0.01,-0.01 -0.02,-0.01l0.06 0.04 0.02 0c0.24,-0.16 0.4,-0.26 0.47,-0.28 0.07,-0.03 0.14,-0.1 0.2,-0.22l0.41 -0.29c0.11,-0.08 0.26,-0.23 0.48,-0.44 0.22,-0.21 0.36,-0.36 0.41,-0.46z"/>
  <path class="fil1" d="M20.94 9.95l0.09 -0.12c0.2,-0.05 0.32,-0.12 0.37,-0.23 0.03,-0.05 0.22,-0.24 0.57,-0.58 0.36,-0.35 0.55,-0.53 0.59,-0.55 0.25,-0.44 0.39,-0.77 0.45,-0.98 0.09,-0.05 0.13,-0.1 0.13,-0.16l0.09 -0.18 0.1 -0.03 0.05 -0.04 0 -0.1c0,-0.14 0.15,-0.46 0.44,-0.95 0.3,-0.62 0.46,-0.95 0.48,-1.02 0.02,-0.06 0.06,-0.16 0.13,-0.28 0.07,-0.13 0.17,-0.37 0.31,-0.72 0.14,-0.36 0.36,-0.72 0.66,-1.11 0.02,-0.02 0.07,-0.1 0.13,-0.26 0.06,-0.15 0.16,-0.3 0.28,-0.46l0.14 -0.23c0.05,-0.08 0.12,-0.21 0.24,-0.4 0.11,-0.19 0.22,-0.34 0.31,-0.44 0.1,-0.12 0.16,-0.23 0.21,-0.35 0.06,-0.12 0.11,-0.21 0.18,-0.26 0.07,-0.06 0.14,-0.15 0.21,-0.29 0.07,-0.14 0.18,-0.21 0.33,-0.21 0.3,0 0.51,0.12 0.65,0.36 0.13,0.24 0.19,0.46 0.19,0.64 0,0.02 -0.04,0.18 -0.13,0.48l-0.17 1.02c-0.15,0.08 -0.23,0.16 -0.23,0.26 0,0.4 -0.16,0.82 -0.46,1.25 -0.04,0.03 -0.06,0.13 -0.08,0.29 -0.02,0.17 -0.08,0.3 -0.2,0.41 -0.11,0.11 -0.21,0.28 -0.3,0.53l-1.06 1.51 -0.08 0.09c-0.05,0.03 -0.11,0.1 -0.16,0.19l-0.18 -0.05c-0.21,0 -0.31,0.06 -0.31,0.19 0,0.04 0.02,0.11 0.04,0.18l0 0.02c0,0.01 -0.28,0.41 -0.83,1.19 -0.03,0.05 -0.09,0.2 -0.16,0.44l-0.16 0.34c-0.16,0.22 -0.27,0.44 -0.34,0.64 -0.06,0.21 -0.14,0.38 -0.25,0.51 -0.15,0.34 -0.23,0.52 -0.23,0.53 0,0.04 0.03,0.07 0.07,0.07 0.05,0 0.15,-0.12 0.32,-0.34 0.18,-0.23 0.31,-0.38 0.42,-0.46 0.11,-0.07 0.2,-0.18 0.28,-0.31l0.11 -0.08c0.03,-0.02 0.1,-0.06 0.2,-0.14l0.11 0.02c0.06,-0.04 0.1,-0.09 0.11,-0.15 0.02,-0.06 0.04,-0.11 0.07,-0.14 0.2,-0.02 0.32,-0.09 0.37,-0.21 0.05,-0.13 0.11,-0.18 0.17,-0.18 0.06,0 0.14,-0.07 0.24,-0.22 0.1,-0.14 0.24,-0.25 0.41,-0.33 0.18,-0.09 0.31,-0.17 0.4,-0.23 0.09,-0.07 0.26,-0.16 0.52,-0.25 0.27,-0.09 0.45,-0.14 0.54,-0.14l0.06 0 0.1 0.02 0.17 -0.02c0.26,0 0.52,0.07 0.79,0.22 0.26,0.15 0.37,0.37 0.34,0.68l-0.09 0.71 -0.13 0.55c-0.01,0.09 -0.07,0.29 -0.18,0.6 -0.11,0.31 -0.16,0.49 -0.16,0.53l-0.04 0.22 0.04 0.29 -0.02 0.24c0,0.08 0.04,0.11 0.11,0.11 0.03,0 0.11,-0.07 0.25,-0.2 0.08,0.01 0.17,-0.03 0.24,-0.14 0.08,-0.1 0.18,-0.21 0.3,-0.32 0,-0.04 0.05,-0.06 0.15,-0.09 0.1,-0.03 0.24,-0.12 0.41,-0.27 0.03,-0.06 0.17,-0.21 0.44,-0.43 0.26,-0.22 0.52,-0.4 0.76,-0.52l0.06 -0.09c0.13,-0.12 0.25,-0.19 0.36,-0.19 0.1,0 0.15,0.06 0.15,0.17 0,0.07 -0.01,0.16 -0.05,0.24 -0.04,0.08 -0.06,0.19 -0.08,0.32 -0.02,0.13 -0.09,0.32 -0.23,0.57l-0.04 0.12c-0.05,0.12 -0.12,0.2 -0.19,0.22 -0.08,0.02 -0.16,0.09 -0.25,0.19 -0.08,0.1 -0.26,0.2 -0.54,0.29 -0.11,0.22 -0.21,0.34 -0.28,0.34l-0.2 -0.09c-0.16,0.12 -0.24,0.26 -0.24,0.39 -0.2,0.17 -0.31,0.28 -0.35,0.33l-0.23 -0.02c-0.06,0 -0.09,0.08 -0.09,0.25 0,0.01 -0.07,0.06 -0.23,0.15 -0.15,0.09 -0.27,0.16 -0.35,0.23 -0.09,0.07 -0.26,0.1 -0.54,0.1 -0.02,0 -0.07,-0.02 -0.13,-0.07 -0.06,-0.06 -0.15,-0.1 -0.27,-0.14 -0.12,-0.04 -0.2,-0.13 -0.24,-0.26 -0.05,-0.15 -0.1,-0.26 -0.15,-0.33 -0.05,-0.08 -0.08,-0.15 -0.08,-0.19l0.03 -0.23 -0.06 -0.24 0.1 -0.16c-0.04,-0.1 -0.07,-0.17 -0.07,-0.21l0.11 -0.69c0.09,-0.5 0.16,-0.82 0.21,-0.97 0.01,-0.02 0.02,-0.06 0.02,-0.14l-0.02 -0.28 0.02 -0.16c0,-0.11 -0.04,-0.17 -0.11,-0.18 -0.08,-0.01 -0.12,-0.03 -0.14,-0.06 -0.1,-0.04 -0.15,-0.07 -0.17,-0.07 -0.06,0 -0.11,0.05 -0.16,0.15 -0.04,0.09 -0.1,0.18 -0.18,0.25l-0.28 -0.04 0 0.02c0,0.06 -0.1,0.18 -0.31,0.35 -0.19,0.04 -0.35,0.14 -0.48,0.3 -0.07,0 -0.17,0.05 -0.32,0.17 -0.14,0.12 -0.24,0.18 -0.29,0.2l-0.09 0.18 -0.18 0.06c-0.05,0.15 -0.18,0.24 -0.37,0.29l-0.11 0.21c-0.16,0.02 -0.27,0.1 -0.33,0.25 -0.06,0.15 -0.11,0.22 -0.14,0.22 -0.01,0 -0.04,-0.01 -0.07,-0.03 -0.04,-0.02 -0.07,-0.03 -0.1,-0.03 -0.16,0 -0.26,0.13 -0.27,0.38 0,0.02 -0.16,0.2 -0.47,0.53 -0.31,0.32 -0.47,0.49 -0.5,0.5 -0.02,0 -0.06,0.08 -0.13,0.23 -0.06,0.14 -0.15,0.25 -0.26,0.33 -0.12,0.07 -0.2,0.13 -0.26,0.17 -0.05,0.05 -0.1,0.07 -0.13,0.07 -0.15,0 -0.29,-0.11 -0.38,-0.34 -0.1,-0.22 -0.15,-0.34 -0.15,-0.35l0.07 -0.24 -0.03 -0.2c0,-0.01 0.05,-0.16 0.15,-0.46 0.09,-0.3 0.2,-0.53 0.32,-0.7 0.12,-0.17 0.21,-0.45 0.28,-0.84 -0.34,0.23 -0.54,0.34 -0.61,0.34 -0.15,0 -0.23,-0.09 -0.23,-0.29 0,-0.36 0.12,-0.69 0.36,-0.98z"/>
  <path class="fil1" d="M32.03 12.56l0.11 0.09c0.06,0.03 0.09,0.1 0.09,0.21 0,0.02 -0.01,0.05 -0.03,0.08 -0.02,0.04 -0.04,0.07 -0.06,0.11 -0.14,0.27 -0.3,0.41 -0.49,0.41 -0.06,0 -0.15,-0.05 -0.28,-0.16 -0.13,-0.11 -0.21,-0.21 -0.25,-0.3 -0.03,-0.09 -0.06,-0.14 -0.08,-0.17 -0.02,-0.02 -0.03,-0.04 -0.03,-0.06 0,-0.04 0.01,-0.09 0.05,-0.14 0.03,-0.05 0.06,-0.12 0.08,-0.19 0.01,-0.08 0.05,-0.14 0.12,-0.18 0.07,-0.04 0.12,-0.07 0.16,-0.11 0.03,-0.03 0.07,-0.05 0.12,-0.05 0.03,0 0.07,0.01 0.1,0.04 0.03,0.03 0.07,0.06 0.13,0.09 0.06,0.03 0.12,0.09 0.18,0.19l0.08 0.14z"/>
  <path class="fil1" d="M33.63 11.1l-0.03 0.06c-0.01,0.04 -0.05,0.06 -0.1,0.06 0,0 -0.06,0.02 -0.16,0.06 -0.1,0.03 -0.18,0.05 -0.25,0.05l-0.13 0.01c-0.08,0 -0.15,-0.02 -0.23,-0.06 -0.07,-0.05 -0.12,-0.09 -0.16,-0.12 -0.03,-0.04 -0.07,-0.14 -0.13,-0.32 -0.06,-0.18 -0.08,-0.29 -0.08,-0.32 0,-0.13 0.03,-0.2 0.1,-0.21 0,-0.02 -0.02,-0.06 -0.05,-0.11 -0.03,-0.06 -0.04,-0.09 -0.04,-0.09 0,-0.2 0.04,-0.36 0.13,-0.47 -0.04,-0.13 -0.06,-0.2 -0.06,-0.21 0,-0.01 0.01,-0.03 0.02,-0.08 0.02,-0.05 0.03,-0.09 0.04,-0.13 0,-0.04 0.01,-0.07 0.03,-0.1l0.01 -0.08c0,-0.04 0.03,-0.06 0.07,-0.06 0.02,0 0.03,-0.01 0.03,-0.04l0 -0.04 -0.01 -0.06c0,-0.09 0.02,-0.16 0.07,-0.2 0.04,-0.04 0.07,-0.1 0.09,-0.18 0.01,-0.08 0.03,-0.13 0.05,-0.15 0.02,-0.02 0.04,-0.05 0.05,-0.1l0.07 -0.14 0.06 -0.17c0,-0.04 0.02,-0.06 0.05,-0.07 0.04,-0.01 0.05,-0.03 0.05,-0.05l-0.01 -0.06c0.03,-0.06 0.05,-0.11 0.06,-0.14 0.01,-0.03 0.04,-0.06 0.08,-0.07 0.05,-0.12 0.09,-0.19 0.12,-0.24 0.04,-0.04 0.06,-0.1 0.08,-0.15 0.02,-0.06 0.07,-0.12 0.15,-0.17 0.01,-0.02 0.02,-0.05 0.04,-0.1 0.02,-0.06 0.05,-0.09 0.08,-0.1 0.03,0 0.05,-0.01 0.05,-0.03l-0.02 -0.04c0,-0.03 0.03,-0.08 0.07,-0.14l0.06 -0.11c0.03,-0.03 0.06,-0.06 0.1,-0.07 0.04,-0.09 0.1,-0.19 0.17,-0.28 0.08,-0.09 0.14,-0.19 0.19,-0.29 0.08,-0.09 0.15,-0.15 0.21,-0.19l0.16 -0.2c0.04,-0.08 0.08,-0.12 0.12,-0.12 0.06,-0.12 0.14,-0.19 0.23,-0.23 0.01,-0.01 0.06,-0.04 0.14,-0.1 0.07,-0.07 0.14,-0.1 0.2,-0.1 0.05,0 0.12,0.06 0.2,0.17 0.08,0.12 0.12,0.21 0.12,0.29 0,0.02 -0.01,0.05 -0.03,0.08 -0.02,0.04 -0.04,0.08 -0.04,0.12 0,0.04 -0.02,0.16 -0.06,0.34 -0.03,0.19 -0.06,0.3 -0.09,0.33l-0.13 0.25c-0.02,0.04 -0.03,0.06 -0.05,0.07 -0.01,0 -0.03,0.03 -0.05,0.08l0.02 0.1 -0.01 0c-0.03,0.04 -0.07,0.11 -0.11,0.22 -0.05,0.07 -0.1,0.15 -0.14,0.22 -0.03,0.07 -0.05,0.11 -0.05,0.14l-0.03 0.06c-0.07,0.11 -0.12,0.2 -0.14,0.26 -0.04,0.03 -0.06,0.06 -0.08,0.11 -0.02,0.05 -0.04,0.08 -0.07,0.1 -0.03,0.02 -0.05,0.06 -0.05,0.11 -0.01,0.05 -0.02,0.08 -0.03,0.09l-0.1 -0.01 0 0.01 0.01 0.14c0,0.02 -0.01,0.03 -0.04,0.05 -0.04,0.01 -0.06,0.05 -0.09,0.1 -0.02,0.06 -0.06,0.09 -0.12,0.09 -0.03,0.02 -0.04,0.04 -0.05,0.06l0.02 0.09c-0.01,0.01 -0.03,0.04 -0.08,0.1 -0.04,0.07 -0.07,0.1 -0.08,0.1l-0.1 0.01c-0.02,0.01 -0.03,0.07 -0.03,0.17 0,0.07 -0.03,0.12 -0.1,0.15 -0.16,0.26 -0.26,0.4 -0.29,0.43 -0.03,0.03 -0.08,0.05 -0.16,0.07 0,0.01 -0.01,0.01 -0.02,0.01 -0.03,0 -0.1,-0.05 -0.21,-0.14l-0.01 0c-0.04,0.19 -0.07,0.29 -0.1,0.32 -0.02,0.03 -0.03,0.06 -0.03,0.09l0.05 0.09 0 0.01c0,0.09 -0.02,0.2 -0.05,0.34l0 0.03 0.02 0.1 0 0.18 -0.01 0.11c0.02,0.04 0.04,0.08 0.04,0.12 0,0.1 0.02,0.15 0.07,0.15 0.03,0 0.07,-0.03 0.12,-0.1l0.06 -0.02c0.06,-0.03 0.12,-0.09 0.17,-0.18 0.05,-0.09 0.08,-0.17 0.08,-0.23 0,-0.07 -0.07,-0.11 -0.2,-0.11 -0.06,-0.01 -0.1,-0.08 -0.1,-0.21 0,-0.05 0.03,-0.1 0.08,-0.15 0.05,-0.05 0.09,-0.1 0.12,-0.15 0.08,-0.12 0.16,-0.18 0.25,-0.18l0.25 -0.09c0.03,0 0.05,0.01 0.08,0.02 0.02,0 0.05,0.02 0.09,0.03 0.1,-0.04 0.16,-0.06 0.16,-0.06 0.12,0 0.19,0.06 0.23,0.18 0,0.02 0.03,0.03 0.08,0.03 0.11,0 0.21,-0.03 0.28,-0.1 0.08,-0.07 0.16,-0.13 0.25,-0.18 0.08,-0.04 0.15,-0.08 0.21,-0.13 0.05,-0.05 0.08,-0.07 0.1,-0.07l0.07 0c0.01,0 0.03,-0.02 0.06,-0.06 0.03,-0.05 0.09,-0.07 0.18,-0.07 0.03,0 0.05,0.02 0.05,0.04 0,0.17 -0.03,0.27 -0.08,0.3 -0.05,0.04 -0.11,0.11 -0.18,0.22l-0.06 0.03c-0.03,0.03 -0.06,0.06 -0.08,0.09 -0.03,0.04 -0.05,0.06 -0.08,0.07 -0.07,0.11 -0.13,0.17 -0.17,0.17 -0.02,0 -0.04,-0.01 -0.07,-0.03 -0.02,-0.01 -0.04,-0.02 -0.04,-0.02 -0.02,0 -0.04,0.04 -0.05,0.12 -0.02,0.02 -0.07,0.07 -0.16,0.14 -0.02,0 -0.04,-0.02 -0.07,-0.06 0,-0.01 0,-0.01 -0.01,-0.01 -0.05,0 -0.08,0.03 -0.09,0.09 -0.02,0.05 -0.05,0.09 -0.11,0.09l-0.2 0.04 -0.11 -0.01c-0.03,0 -0.08,0.08 -0.17,0.24 -0.09,0.16 -0.14,0.24 -0.16,0.25 -0.1,0.03 -0.17,0.09 -0.21,0.18l-0.06 0.03zm1.67 -5.59l0 -0.06c-0.08,0.02 -0.13,0.09 -0.17,0.21l-0.03 0.04c-0.07,0.04 -0.12,0.09 -0.15,0.16 -0.04,0.07 -0.1,0.16 -0.18,0.26l-0.02 0.06 -0.11 0.14 -0.02 0.09c0,0.01 -0.03,0.03 -0.07,0.06 -0.04,0.03 -0.07,0.07 -0.09,0.12 -0.01,0.05 -0.05,0.11 -0.1,0.18 -0.06,0.07 -0.1,0.12 -0.12,0.14 -0.02,0.03 -0.06,0.11 -0.11,0.26l-0.03 0.05c0,0.03 -0.02,0.06 -0.05,0.07l-0.18 0.22c0,0.02 -0.01,0.06 -0.02,0.15 -0.05,0 -0.08,0.02 -0.09,0.05l-0.08 0.19c-0.01,0.02 -0.03,0.04 -0.05,0.06 -0.04,0.16 -0.1,0.27 -0.18,0.34l-0.11 0.23c-0.02,0.03 -0.03,0.07 -0.03,0.11l-0.01 0.03c-0.04,0.07 -0.06,0.13 -0.06,0.17 0,0.01 0,0.05 -0.01,0.12l0.01 0c0.01,0 0.02,-0.01 0.04,-0.02 0.02,-0.02 0.04,-0.04 0.08,-0.06 0.03,-0.02 0.05,-0.06 0.07,-0.12 0.02,-0.06 0.05,-0.1 0.1,-0.12 0.04,-0.03 0.07,-0.05 0.08,-0.08l0.3 -0.39c0.02,-0.02 0.04,-0.05 0.08,-0.09 0.03,-0.03 0.05,-0.06 0.05,-0.08l0.04 -0.07c0.02,-0.01 0.05,-0.05 0.1,-0.1 0.04,-0.05 0.08,-0.09 0.11,-0.11 0.02,-0.02 0.04,-0.05 0.04,-0.09 0,-0.05 0.02,-0.09 0.05,-0.13l0.02 -0.04c0.04,-0.05 0.07,-0.08 0.09,-0.1 0.02,-0.02 0.04,-0.04 0.04,-0.06 0,-0.02 0.04,-0.06 0.11,-0.13 0.01,-0.04 0.05,-0.12 0.12,-0.23 0.07,-0.11 0.12,-0.21 0.15,-0.3 0.04,-0.08 0.08,-0.15 0.11,-0.18 0.03,-0.03 0.06,-0.09 0.07,-0.18l0.04 -0.08 0.16 -0.42 -0.03 -0.1 0.04 -0.17z"/>
  <path class="fil1" d="M38.61 10.12l0 0.06 0.01 0.04 0 0.02c0,0 -0.01,0.04 -0.02,0.11 -0.05,0.05 -0.08,0.12 -0.09,0.22l-0.05 0.09c0,0.04 -0.02,0.08 -0.05,0.1 -0.03,0.03 -0.06,0.08 -0.08,0.16 -0.02,0.08 -0.05,0.16 -0.08,0.25l-0.12 0.27c0,0.02 0.01,0.02 0.02,0.02 0.01,0 0.02,0 0.04,-0.01 0.01,0 0.02,-0.01 0.04,-0.01 0.01,0 0.02,0.01 0.04,0.01 0.01,0.01 0.02,0.01 0.03,0.01 0,0 0.03,-0.01 0.07,-0.03 0.04,-0.02 0.08,-0.04 0.14,-0.04l0.18 -0.05c0.04,-0.01 0.12,-0.02 0.23,-0.02l0.16 -0.01c0.12,0 0.24,0.04 0.36,0.1 0.12,0.06 0.2,0.12 0.23,0.19 0.03,0.07 0.05,0.18 0.05,0.33 0,0.12 -0.04,0.18 -0.13,0.18 -0.05,0 -0.11,-0.03 -0.18,-0.09 -0.08,-0.06 -0.13,-0.14 -0.16,-0.23 -0.03,-0.1 -0.08,-0.14 -0.14,-0.14l-0.13 -0.04 -0.06 0.02 -0.02 0c-0.02,0 -0.05,-0.01 -0.09,-0.03l-0.02 0 -0.14 0.04 -0.2 0 -0.09 0.04c-0.05,0.02 -0.1,0.03 -0.15,0.03 -0.06,0.01 -0.1,0.02 -0.15,0.04 -0.04,0.02 -0.06,0.04 -0.06,0.06 0,0.1 -0.04,0.18 -0.13,0.26 -0.03,0.05 -0.05,0.09 -0.06,0.12 0,0.03 -0.02,0.06 -0.05,0.1 -0.04,0.04 -0.07,0.1 -0.11,0.17l-0.04 0.07c-0.01,0.02 -0.02,0.04 -0.02,0.05 0,0.01 0,0.02 0.01,0.04l0 0.04c0,0.1 -0.05,0.18 -0.16,0.26l0 0.05c0,0.03 -0.03,0.06 -0.08,0.11l0.02 0.1c0,0.01 -0.02,0.04 -0.05,0.08 -0.04,0.04 -0.07,0.09 -0.09,0.14 -0.03,0.05 -0.07,0.09 -0.14,0.13l0 0.03 0.03 0.06c0.01,0 0.01,0 0.01,0.02 0,0.02 -0.02,0.05 -0.07,0.1 -0.01,0.05 -0.04,0.1 -0.07,0.15l-0.2 0.27c-0.03,0.04 -0.05,0.08 -0.05,0.11l-0.03 0.09c-0.04,0.03 -0.06,0.06 -0.08,0.09 -0.01,0.03 -0.06,0.09 -0.13,0.18 -0.07,0.09 -0.12,0.14 -0.14,0.14 0.02,0.04 0.03,0.06 0.03,0.07 0,0.04 -0.03,0.08 -0.08,0.14 -0.08,0 -0.12,0.02 -0.12,0.05l0.02 0.1c0,0.01 -0.02,0.03 -0.05,0.06 -0.04,0.02 -0.07,0.04 -0.09,0.04l-0.07 0 0.02 0.08c-0.01,0.04 -0.03,0.06 -0.06,0.08 -0.02,0.01 -0.07,0.05 -0.13,0.11 -0.06,0.07 -0.1,0.1 -0.13,0.12l-0.06 0.03 -0.19 0.02c-0.05,-0.01 -0.15,-0.07 -0.3,-0.16 -0.15,-0.09 -0.23,-0.17 -0.25,-0.25 -0.03,-0.08 -0.04,-0.19 -0.04,-0.34 0,-0.02 0.02,-0.04 0.05,-0.08l0.01 -0.04 0 -0.09c0,-0.01 0.02,-0.07 0.05,-0.18 0.03,-0.11 0.06,-0.17 0.08,-0.18 0.03,-0.01 0.06,-0.07 0.11,-0.19 0.05,-0.12 0.09,-0.19 0.11,-0.23l0.45 -0.66c0,-0.04 0.01,-0.07 0.02,-0.08l0.03 0c0.03,0 0.05,-0.01 0.06,-0.03 0,-0.01 0.02,-0.04 0.04,-0.06 0,-0.06 0.03,-0.11 0.08,-0.15 0.06,-0.04 0.1,-0.08 0.13,-0.13 0.02,-0.04 0.05,-0.09 0.08,-0.13l0.01 -0.03c0.01,-0.01 0.04,-0.02 0.09,-0.04 0.04,-0.02 0.07,-0.05 0.07,-0.08l0.17 -0.16c0.01,-0.01 0.04,-0.03 0.08,-0.05 0.03,-0.02 0.07,-0.05 0.11,-0.11l0.03 -0.01 0.03 0 0.02 -0.01c0.04,-0.08 0.08,-0.13 0.12,-0.13 0.04,-0.01 0.07,-0.02 0.08,-0.03 0,-0.11 0.05,-0.16 0.17,-0.16 0.03,0 0.05,0 0.06,-0.02l0.12 -0.09c0.01,-0.01 0.04,-0.07 0.09,-0.19l0 -0.01 0.09 0.03 0.01 -0.03 -0.02 -0.11c0.01,-0.01 0.03,-0.05 0.06,-0.13 0.02,-0.07 0.05,-0.12 0.08,-0.13 0.02,-0.02 0.04,-0.03 0.04,-0.05l0 -0.06 -0.01 -0.05 0.02 -0.04 0 -0.07 0.01 -0.02c0.01,-0.01 0.03,-0.07 0.06,-0.18 0.01,-0.01 0.03,-0.02 0.05,-0.03l0.22 -0.62c0.01,-0.02 0.02,-0.06 0.03,-0.13l0.04 -0.05c0.03,-0.11 0.05,-0.17 0.05,-0.2 0,-0.02 0,-0.02 -0.02,-0.02 -0.01,0 -0.04,0.02 -0.08,0.05 -0.05,0.04 -0.08,0.06 -0.1,0.06l-0.08 -0.02 -0.02 0c-0.02,0 -0.05,0.02 -0.08,0.05 -0.04,0.03 -0.06,0.05 -0.06,0.05l-0.06 0.01c-0.03,0.05 -0.06,0.08 -0.09,0.09l-0.12 0.08 -0.01 0 -0.07 -0.05c0,-0.01 -0.01,-0.01 -0.02,-0.01 -0.02,0 -0.04,0.04 -0.06,0.12l-0.15 0.07c-0.04,-0.01 -0.06,-0.01 -0.06,-0.01 -0.03,0 -0.07,0.03 -0.09,0.09 -0.03,0.06 -0.07,0.09 -0.12,0.1 -0.03,0.03 -0.09,0.05 -0.18,0.07l-0.29 0.2c-0.03,0.01 -0.06,0.03 -0.07,0.05 -0.07,0 -0.13,0.04 -0.19,0.11l-0.13 -0.01c-0.03,0 -0.06,0.02 -0.1,0.06 -0.03,0.04 -0.06,0.06 -0.09,0.06l-0.03 0 -0.06 0 -0.16 0.03c-0.05,0 -0.12,-0.03 -0.21,-0.1 -0.09,-0.07 -0.14,-0.13 -0.14,-0.18l-0.03 -0.22c0,-0.01 0.01,-0.03 0.04,-0.07 0.02,-0.04 0.04,-0.07 0.04,-0.08 0,-0.01 -0.01,-0.02 -0.01,-0.04l0 -0.04c0,-0.11 0.04,-0.25 0.12,-0.41l0 -0.02c0,-0.01 -0.01,-0.02 -0.03,-0.02 -0.04,0 -0.08,0.04 -0.11,0.11 -0.03,0.07 -0.06,0.12 -0.1,0.14 -0.04,0.03 -0.07,0.06 -0.08,0.08 -0.02,0.02 -0.04,0.03 -0.05,0.03 -0.02,-0.02 -0.04,-0.03 -0.07,-0.03 0,-0.01 -0.01,-0.03 -0.03,-0.06 -0.02,-0.03 -0.04,-0.06 -0.08,-0.08 -0.03,-0.02 -0.05,-0.06 -0.05,-0.11 0,-0.04 0.05,-0.08 0.15,-0.14l0.05 -0.06c0.15,-0.15 0.25,-0.23 0.3,-0.24l0.03 -0.07c0.05,-0.03 0.1,-0.08 0.17,-0.15 0.07,-0.06 0.13,-0.1 0.18,-0.13l0.26 -0.23c0.08,-0.07 0.18,-0.11 0.32,-0.11 0.1,0 0.16,0.07 0.16,0.2 0,0.14 -0.03,0.24 -0.07,0.31 -0.05,0.08 -0.08,0.14 -0.09,0.2 -0.01,0.06 -0.06,0.14 -0.13,0.24 -0.08,0.1 -0.12,0.17 -0.14,0.22 -0.01,0.05 -0.05,0.11 -0.1,0.19 -0.05,0.09 -0.07,0.16 -0.07,0.23 0,0.03 0.02,0.05 0.06,0.05 0.05,0 0.12,-0.03 0.21,-0.09l0.04 -0.02c0.03,-0.02 0.06,-0.03 0.1,-0.05l0.12 -0.05c0.02,-0.05 0.06,-0.09 0.11,-0.1l0.09 -0.05c0.05,-0.02 0.1,-0.04 0.17,-0.08 0.07,-0.03 0.11,-0.06 0.13,-0.09 0.02,-0.03 0.04,-0.05 0.07,-0.07 0.03,-0.01 0.07,-0.04 0.11,-0.08 0.08,0 0.2,-0.08 0.35,-0.22 0.15,-0.09 0.29,-0.18 0.42,-0.26 0.13,-0.09 0.22,-0.15 0.26,-0.19 0.02,-0.01 0.05,-0.03 0.1,-0.05 0.05,-0.03 0.11,-0.06 0.17,-0.11 0.07,-0.05 0.15,-0.08 0.24,-0.08 0.09,0 0.17,0.03 0.25,0.1 0.07,0.06 0.11,0.12 0.11,0.18l-0.01 0.24c0,0.15 -0.04,0.27 -0.12,0.38 -0.02,0.13 -0.04,0.22 -0.06,0.27l0.01 0.11c0,0.02 -0.04,0.05 -0.11,0.09zm-2.31 3.74l0.02 -0.07c0.01,-0.02 0.03,-0.05 0.07,-0.07 0.03,-0.14 0.08,-0.23 0.13,-0.27 0,-0.07 0.01,-0.11 0.01,-0.12l0.07 -0.07 0.19 -0.32c0.02,-0.04 0.04,-0.09 0.06,-0.13 0.03,-0.04 0.04,-0.08 0.06,-0.12 0,-0.04 0.05,-0.13 0.16,-0.27l0 -0.03c0,-0.04 -0.01,-0.07 -0.03,-0.07 -0.02,0.03 -0.05,0.05 -0.1,0.07l-0.31 0.26c-0.02,0.02 -0.06,0.07 -0.13,0.16l-0.09 0.1c-0.06,0.05 -0.1,0.09 -0.12,0.1 -0.03,0.02 -0.06,0.06 -0.11,0.14 -0.04,0.08 -0.07,0.12 -0.1,0.12l-0.02 0c0,0 -0.02,-0.01 -0.05,-0.02 -0.02,0.01 -0.03,0.02 -0.03,0.04l0.03 0.12c0,0.01 -0.01,0.03 -0.04,0.06 -0.02,0.03 -0.04,0.06 -0.06,0.09 -0.02,0.03 -0.04,0.05 -0.06,0.06 -0.02,0 -0.05,0.06 -0.11,0.18l-0.09 0.05c-0.01,0.19 -0.07,0.34 -0.18,0.46 -0.02,0.05 -0.05,0.1 -0.06,0.15 -0.02,0.05 -0.03,0.09 -0.05,0.1 -0.02,0.12 -0.05,0.19 -0.1,0.21 -0.01,0.01 -0.02,0.02 -0.02,0.03 0,0.02 0.02,0.04 0.05,0.06l0.02 0.02c-0.05,0.12 -0.07,0.22 -0.07,0.28 0,0.01 0.01,0.02 0.02,0.02l0.15 -0.08c0.1,-0.04 0.17,-0.11 0.21,-0.18l0.08 -0.15c0.01,-0.02 0.03,-0.03 0.06,-0.04 0.02,-0.07 0.06,-0.11 0.1,-0.13 0.04,-0.02 0.07,-0.05 0.07,-0.08 0,-0.03 0.06,-0.15 0.18,-0.34 0.12,-0.19 0.18,-0.3 0.19,-0.32z"/>
  <path class="fil2 str0" d="M31.76 1.22c0.01,-0.05 0.02,-0.1 0.02,-0.14 0,-0.22 -0.16,-0.36 -0.44,-0.36 -0.37,0 -0.69,0.28 -0.69,0.64 0,0.21 0.17,0.3 0.38,0.39 0.19,0.07 0.39,0.11 0.39,0.31 0,0.28 -0.24,0.48 -0.53,0.48 -0.22,0 -0.31,-0.12 -0.31,-0.29 0,-0.04 0.01,-0.09 0.02,-0.15l-0.18 0c-0.01,0.06 -0.02,0.12 -0.02,0.17 0,0.24 0.15,0.41 0.46,0.41 0.4,0 0.75,-0.27 0.75,-0.65 0,-0.21 -0.16,-0.33 -0.48,-0.44 -0.19,-0.07 -0.29,-0.12 -0.29,-0.26 0,-0.25 0.19,-0.47 0.46,-0.47 0.2,0 0.3,0.1 0.3,0.25 0,0.03 -0.01,0.07 -0.02,0.11l0.18 0zm1.11 -0.31l0.47 0 0.04 -0.15 -1.14 0 -0.03 0.15 0.48 0 -0.42 1.72 0.18 0 0.42 -1.72zm0.94 -0.15l-0.33 1.38c-0.02,0.07 -0.02,0.13 -0.02,0.18 0,0.23 0.14,0.36 0.46,0.36 0.46,0 0.64,-0.25 0.72,-0.62l0.31 -1.3 -0.18 0 -0.32 1.35c-0.06,0.25 -0.18,0.43 -0.5,0.43 -0.24,0 -0.31,-0.09 -0.31,-0.23 0,-0.06 0.01,-0.12 0.02,-0.19l0.33 -1.36 -0.18 0zm1.85 0.15l0.32 0c0.28,0 0.39,0.12 0.39,0.37 0,0.1 -0.02,0.23 -0.06,0.38 -0.1,0.43 -0.23,0.83 -0.75,0.83l-0.28 0 0.38 -1.58zm-0.6 1.72l0.45 0c0.68,0 0.85,-0.42 0.99,-1.01 0.03,-0.1 0.05,-0.23 0.05,-0.35 0,-0.26 -0.11,-0.51 -0.58,-0.51l-0.46 0 -0.45 1.87zm2.38 -1.87l-0.18 0 -0.45 1.87 0.18 0 0.45 -1.87zm0.7 1.92c0.58,0 0.74,-0.51 0.86,-0.98 0.04,-0.17 0.07,-0.35 0.07,-0.51 0,-0.26 -0.1,-0.47 -0.46,-0.47 -0.56,0 -0.75,0.54 -0.85,0.98 -0.04,0.17 -0.08,0.35 -0.08,0.51 0,0.27 0.11,0.47 0.46,0.47zm0.04 -0.14c-0.24,0 -0.31,-0.16 -0.31,-0.37 0,-0.14 0.03,-0.31 0.07,-0.47 0.1,-0.41 0.24,-0.84 0.63,-0.84 0.24,0 0.31,0.17 0.31,0.38 0,0.14 -0.03,0.31 -0.07,0.46 -0.1,0.44 -0.24,0.84 -0.63,0.84z"/>
 </g>
</svg>
