<?xml version="1.0" encoding="utf-8"?>
<!-- Generator: Adobe Illustrator 17.1.0, SVG Export Plug-In . SVG Version: 6.00 Build 0)  -->
<!DOCTYPE svg PUBLIC "-//W3C//DTD SVG 1.1//EN" "http://www.w3.org/Graphics/SVG/1.1/DTD/svg11.dtd">
<svg version="1.1" id="Layer_1" xmlns="http://www.w3.org/2000/svg" xmlns:xlink="http://www.w3.org/1999/xlink" x="0px" y="0px"
	 viewBox="0 0 30 30" enable-background="new 0 0 30 30" xml:space="preserve">
<g>
	<g>
		<path fill="#010101" d="M15,30L15,30c-0.3,0-0.6-0.1-0.8-0.3c-0.4-0.5-10.9-11.8-10.9-18C3.4,5.2,8.6,0,15,0s11.7,5.2,11.7,11.7
			c0,6.2-10.4,17.5-10.9,18C15.6,29.9,15.3,30,15,30z M15,2.1c-5.3,0-9.6,4.3-9.6,9.6c0,4.1,6.3,12.1,9.6,15.7
			c3.2-3.7,9.6-11.6,9.6-15.7C24.6,6.4,20.3,2.1,15,2.1z"/>
	</g>
	<g>
		<path fill="#010101" d="M15,16.4c-2.9,0-5.2-2.4-5.2-5.2c0-2.9,2.4-5.2,5.2-5.2c2.9,0,5.2,2.4,5.2,5.2
			C20.3,14.1,17.9,16.4,15,16.4z M15,8c-1.7,0-3.2,1.4-3.2,3.2c0,1.7,1.4,3.2,3.2,3.2c1.7,0,3.2-1.4,3.2-3.2C18.2,9.4,16.8,8,15,8z"
			/>
	</g>
</g>
</svg>
