<?xml version="1.0" encoding="UTF-8"?>
<!DOCTYPE svg PUBLIC "-//W3C//DTD SVG 1.1//EN" "http://www.w3.org/Graphics/SVG/1.1/DTD/svg11.dtd">
<!-- Creator: CorelDRAW 2018 (64-Bit) -->
<svg xmlns="http://www.w3.org/2000/svg" xml:space="preserve" width="100px" height="39px" version="1.1" style="shape-rendering:geometricPrecision; text-rendering:geometricPrecision; image-rendering:optimizeQuality; fill-rule:evenodd; clip-rule:evenodd"
viewBox="0 0 1.22 0.48"
 xmlns:xlink="http://www.w3.org/1999/xlink">
 <defs>
  <style type="text/css">
   <![CDATA[
    .fil0 {fill:#9D9E9E}
    .fil3 {fill:#FEFEFE;fill-rule:nonzero}
    .fil2 {fill:#FEFEFE;fill-rule:nonzero}
    .fil1 {fill:#FCDD00;fill-rule:nonzero}
   ]]>
  </style>
 </defs>
 <g id="Слой_x0020_1">
  <metadata id="CorelCorpID_0Corel-Layer"/>
  <path class="fil0" d="M0.94 0l0.25 0c0.02,0 0.03,0.01 0.03,0.03l0 0.05c0,0.01 -0.01,0.02 -0.03,0.02l-0.25 0c-0.02,0 -0.03,-0.01 -0.03,-0.02l0 -0.05c0,-0.02 0.01,-0.03 0.03,-0.03z"/>
  <path class="fil1" d="M0.04 0.42l0.01 -0.01 0.01 0c0.01,0 0.02,-0.01 0.02,-0.01 0,0 0.01,0 0.01,0.01l0.01 -0.01c0.01,-0.01 0.01,-0.01 0.02,-0.01 0,0 0,0 0.01,0 0,-0.01 0,-0.01 0,-0.01l0.01 -0.01c0.01,-0.01 0.01,-0.02 0.01,-0.02l0 0c0,0 0,-0.01 0.01,-0.01 0,0 0,-0.01 0,-0.01 0,0 0.01,0 0.01,0l0 -0.01c0,0 0,0 0,0 0,0 0,-0.01 0.01,-0.01 0,0 0,-0.01 0.01,-0.01l0 -0.01 0 0c0,0 0,0 0,0 0,0 0,-0.01 0,-0.01 0.01,0 0.01,0 0.01,0l0 -0.01 0 0 0 -0.01c0,0 0.01,0 0.01,-0.01 0,0 0.01,-0.01 0.01,-0.02l0.01 -0.02 0 0c0,0 -0.01,0 -0.01,0l-0.01 0.01c0,0 0,0 0,0 -0.01,0.01 -0.01,0.01 -0.01,0.01 -0.01,0 -0.01,0.01 -0.02,0.01 -0.01,0 -0.01,0 -0.01,0l-0.01 0.01c0,0 0,0 0,0 0,0 -0.01,0 -0.01,0 0,0 0,0 -0.01,0l0 0 0 0c0,0 0,0 0,0 0,0 0,0 -0.01,0.01 0,0 0,0 0,0 -0.01,0 -0.01,0 -0.01,-0.01 0,0 0,0 0,0 -0.01,-0.01 -0.01,-0.01 -0.01,-0.01 0,0 0.01,-0.01 0.01,-0.02 0.01,0 0.01,0 0.02,-0.01 0,0 0,0 0,0l0 0 0.01 0c0,0.01 0.01,0.01 0.01,0.01 0,0 0,0 0,0l0.01 0 0 0c0,0 0.01,0 0.01,-0.01 0,0 0,0 0.01,0 0.01,0 0.02,-0.01 0.03,-0.02 0,0 0.01,0 0.01,0l0 -0.01c0,0 0.01,0 0.01,0 0.01,0 0.01,-0.01 0.01,-0.01 0.01,-0.01 0.01,-0.01 0.01,-0.01 0,0 0,0 0,-0.01 0,0 0,0 0,0 0,-0.01 0.01,-0.01 0.01,-0.01 0,0 0.01,-0.01 0.01,-0.01l0 -0.01 0 0 0 0c0,-0.01 0.01,-0.02 0.02,-0.02 0,-0.01 0,-0.02 0.01,-0.02l0 0 0 -0.01c0,-0.01 0,-0.01 0.01,-0.01l0 0 0.01 -0.02c0,-0.01 0.01,-0.01 0.01,-0.01 0,0 0,0 0,0l0 0c0,0 0.01,0 0.01,0 0,0 0,0 -0.01,0l0 0c0,-0.01 0.01,-0.01 0.02,-0.02 0,-0.01 0.01,-0.01 0.03,-0.01 0,0 0,0 0.01,0.01 0,0 0.01,0.01 0.01,0.02l-0.01 0.02c0.01,0 0.01,0 0.01,0 0,0.01 -0.01,0.01 -0.01,0.01 0,0 0,0 0,0 0,0 0,0.01 0,0.01 0,0 0,0 0,0.01 0,0 -0.01,0 -0.01,0l0 0c0,0.01 0,0.01 0,0.01l-0.01 0 0 0c0,0 0,0 0,0.01 0,0 0,0 0,0 0,0 0,0 0,0 0,0.01 -0.01,0.01 -0.02,0.01 0,0.01 0,0.01 0,0.01 -0.01,0 -0.01,0.01 -0.01,0.01l-0.02 0.01c0,0.01 -0.01,0.01 -0.03,0.02 0,0 0,0.01 0,0.01 0,0.01 0,0.01 0,0.01l-0.02 0.03 0 0c0,0 0,0 0,0.01l0 0c0,0 0,0 0,0.01l-0.02 0.03c0,0 0,0.01 0,0.01 -0.01,0 -0.01,0.01 -0.01,0.01 0,0 0,0.01 0,0.01 -0.01,0 -0.01,0 -0.01,0.01 0,0 0,0 -0.01,0 0,0 0,0 0,0.01 0,0 0.01,0 0.01,0 -0.01,0 -0.01,0 -0.01,0 0,0 0,0 0,0.01 0,0 0,0 0,0 0,0 0,0.01 0,0.01 0,0 -0.01,0 -0.01,0 0,0 0,0 0,0l0 0.01 -0.01 0c0,0 0,0 0,0.01 0,0 0,0 0,0 0,0 0,0.01 0,0.01 0,0 0,0 0,0.01 0,0 0,0 0,0 0.01,0 0.01,0 0.01,0 0,0 0.01,0 0.01,0 0,0 0,0 0,0l0.01 0 0 0 0.01 0 0.01 0 0 0 0.01 0 0 0 0.01 0c0,0 0,0 0.01,0l0 0c0,0 0.01,0 0.01,0l0 0c0,0 0,0 0.01,0 0,0 0,0 0,0l0.01 0 0.02 0 0 0c0,0 0,0 0,0 0.01,0 0.03,0 0.04,0.01l0.01 0c0,0 0,0 0.01,0 0,0 0,0 0,0 0.02,0 0.02,0 0.03,0.01 0,0 0,0 0,0 0,0 0.01,0 0.01,0 0,0 0,0.01 0.01,0.01 0,0 0,0 0,0.01 0,0.01 0,0.02 0,0.02 -0.01,0.01 -0.01,0.01 -0.01,0.01 -0.01,0 -0.02,0 -0.04,-0.01 0,0 0,0 0,-0.01 0,0 -0.01,0 -0.01,0l0 0 -0.01 0c0,0 0,0 0,-0.01l-0.01 0c0,0 -0.01,0 -0.01,0 0,0 0,0 0,0 0,0 -0.01,-0.01 -0.01,-0.01 0,0 0,0 -0.01,0l-0.01 0 0 0c0,0 0,-0.01 0,-0.01l-0.01 0 0 0 0 0 -0.01 0 0 0 -0.01 0 0 0 -0.01 0c-0.01,0 -0.01,0 -0.01,0l-0.01 0c0,0 0,0 0,0l-0.02 0 -0.01 0 -0.01 0 0 0c0,0 0,0 0,0 -0.01,0 -0.01,0 -0.02,0.01l-0.01 0 -0.01 0 0 0c-0.01,0.01 -0.01,0.01 -0.01,0.01 -0.01,0 -0.01,0 -0.01,0.01 0,0 0,0 0,0 0,0.01 -0.01,0.01 -0.01,0.01 0,0 0,0 0,0 0,0 -0.01,0.01 -0.01,0.01 0,0.01 0,0.01 -0.01,0.01l-0.01 0c0,0 0.01,0 0.01,0 0,0 0,0 0,0 0,0.01 -0.01,0.01 -0.01,0.01 0,0 0,0 -0.01,0 0,0.01 0,0.01 -0.01,0.01l0 0c0,0 0,0 -0.01,0l-0.02 0.01 0 0 0 0c0,0 0,0 0,0l-0.01 0c0,0 -0.01,0 -0.01,0l0 0c0,0 -0.01,0 -0.01,0 -0.01,0 -0.01,0 -0.01,-0.01 -0.01,0 -0.01,0 -0.01,0l0 0c0,0 -0.01,0 -0.01,0 0,0 -0.01,-0.01 -0.01,-0.01 -0.01,-0.01 -0.01,-0.01 -0.01,-0.02 0,0 0,0 0,0 0,-0.01 0.01,-0.01 0.01,-0.01 0.01,0 0.01,0 0.01,-0.01l0.02 0zm0.32 -0.34l0.01 -0.01c0,0 0.01,-0.01 0.01,-0.02 0.01,-0.01 0.01,-0.02 0.01,-0.02 0,-0.01 0,-0.01 0,-0.01 0,0 -0.01,0.01 -0.01,0.01 0,0 0,0.01 -0.01,0.02 -0.01,0.01 -0.02,0.01 -0.02,0.01 0,0.01 0,0.01 0,0.02 0,0 -0.01,0.01 -0.01,0.01 0,0 0,0 0,0 0,0.01 0,0.01 0,0.01 0,0 0,0 0,0 0.01,-0.01 0.02,-0.01 0.02,-0.02 0,0 0,0 0,0zm-0.33 0.36l-0.01 0c0,0 0,0 0,0 0,0 0,0 0,0.01 0,0 0.01,0 0.01,0 0,0 0,0 0.01,0l0.01 0 0.01 0 0 0c0,0 0,0 0.01,0 0,0 0,0 0,0l0.01 0c0,0 0,0 0,0 0,-0.01 0.01,-0.01 0.01,-0.01 0,0 0,-0.01 0.01,-0.01 0,0 0,0 0,-0.01l0 0c-0.01,0 -0.01,0 -0.01,0l-0.03 0.01c-0.02,0 -0.02,0 -0.03,0.01z"/>
  <path class="fil1" d="M0.51 0.28l0.01 -0.01c0,0 0,0 0,0 0,0 0.01,-0.01 0.01,-0.01 0,0 0.01,0 0.01,-0.01 0,0 0.01,0 0.01,0 0,0 0,0 0.01,0 0,0 0,0 0,0 0,0.01 0,0.02 -0.01,0.02l0 0.01 0 0.01c0,0 -0.01,0 -0.01,0 0,0 0,0.01 0,0.01l-0.01 0c0,0 -0.01,0.01 -0.01,0.01 0,0 0,0 0,0 -0.01,0 -0.01,0.01 -0.01,0.01 0,0 -0.01,0 -0.01,0l0 0.01c0,0 0,0 -0.01,0 0,0 -0.01,0 -0.01,0 0,0.01 0,0.01 0,0.01 -0.01,0 -0.01,0 -0.01,-0.01 -0.01,0 -0.01,0 -0.01,0 0,0 -0.01,0 -0.01,0 0,0 0,-0.01 0,-0.01 0,0 0,0 0,-0.01l0 0c0,0 0,-0.01 0,-0.01 0,0 0,0 0,0 0,0 0,0 0,0 0,0 0,0 0,0 0,0 0,-0.01 0,-0.01 0,0 0,0 0,0l0 -0.01c0,-0.01 0,-0.01 0,-0.01 0,0 -0.01,0 -0.01,0.01 0,0 0,0 0,0 -0.01,0 -0.01,0 -0.01,0.01 0,0 0,0 0,0l-0.01 0c0,0.01 0,0.01 0,0.01 0,0 0,0 -0.01,0l0 0 0 0c0,0 -0.01,0.01 -0.01,0.01 0,0 0,0 0,0.01l-0.03 0.02c0,0 0,0 -0.01,0l0 0c-0.02,0.01 -0.03,0.02 -0.03,0.02 -0.01,0 -0.02,0 -0.02,-0.01 -0.01,0 -0.01,0 -0.01,-0.01l-0.01 -0.01c0,0 0,0 0,-0.01 0,0 0,0 0,0l0 -0.01 0 -0.01c0,0 0,0 0.01,0l-0.01 -0.01c0,0 0.01,0 0.01,-0.01 0,0 0.01,-0.01 0.01,-0.01l0 0c0,0 0,-0.01 0,-0.01 0.01,0 0.01,0 0.01,-0.01 0,0 0.01,0 0.01,-0.01l0.01 -0.01c0.01,0 0.02,-0.01 0.02,-0.01 0,0 0.01,0 0.01,-0.01 0,0 0.01,0 0.01,-0.01 0.01,0 0.01,0 0.02,0 0,-0.01 0.01,-0.01 0.01,-0.01l0 0c0,0 0.01,0 0.02,0l0 0c0,0 0,0 0,0l0 0 0.01 0c0,0 0,-0.01 0,-0.01 0.02,0 0.02,0.01 0.02,0.03 0,0 0,0.01 0.01,0.01 0,0 0,-0.01 0,-0.01 0.01,-0.01 0.02,-0.02 0.03,-0.02 0.01,0 0.01,0.01 0.01,0.02 0,0.01 0,0.03 -0.02,0.04 0,0 0,0 0,0l0 0.02 0 0c0,0 0,0 0,0 -0.01,0 -0.01,0.01 -0.01,0.01l0 0 0 0.01c0,0.01 0,0.01 0,0.01 0.01,0 0.02,0 0.02,-0.01 0,0 0,0 0,0l0.01 0c0,-0.01 0,-0.01 0,-0.01zm-0.1 0c0,-0.01 0.01,-0.01 0.01,-0.01 0.01,0 0.01,-0.01 0.01,-0.01 0,0 0.01,-0.01 0.01,-0.01 0.01,-0.01 0.02,-0.02 0.02,-0.02 0,0 0,0 -0.01,0l0 0 0 0 0 0 -0.01 0 0 0 -0.01 0 0 0c-0.01,0 -0.01,0 -0.01,0 0,0 -0.01,0 -0.02,0.01 0,0 -0.01,0 -0.01,0 -0.01,0.01 -0.01,0.01 -0.01,0.01 -0.01,0 -0.01,0.01 -0.02,0.01 0,0 -0.01,0.01 -0.01,0.01 0,0.01 -0.01,0.01 -0.01,0.01l0 0.01c0,0 0,0 0,0 -0.01,0 -0.01,0 -0.01,0.01 0,0 0,0 0,0.01 0,0 -0.01,0 -0.01,0 0,0.01 0.01,0.02 0.01,0.02 0,0 0,0 0.01,-0.01 0.01,0 0.01,0 0.01,0 0,0 0,0 0,0l0.01 -0.01c0,0 0,0 0,0 0,0 0,0 0.01,0 0,0 0,0 0,0 0,0 0.01,-0.01 0.01,-0.01 0,0 0.01,0 0.01,-0.01l0.01 0c0,-0.01 0.01,-0.01 0.01,-0.01 0,0 0,0 0,0z"/>
  <path class="fil1" d="M0.58 0.22l0 -0.01c0,0 0,0 0.01,-0.01 0,0 0,0 0,-0.01 0,-0.01 0.01,-0.01 0.01,-0.02 0,0 0.01,0 0.01,0 0,0 0.01,0 0.01,0 0.01,0.01 0.01,0.01 0.02,0.03 0,0.01 0.01,0.02 0.01,0.03 0,0 0,0.01 0,0.01 0,0 0,0.01 0,0.01 0,0 0,0 0,0l0 0.02 -0.01 0.01 0 0c0,0.01 0,0.01 0,0.01 0,0 0,0 0,0 0.01,0 0.02,0 0.02,-0.01 0,0 0,0 0.01,0 0,0 0,0 0,-0.01l0.01 0c0,0 0,-0.01 0.01,-0.01 0,0 0,0 0,0 0,0 0,0 0.01,-0.01 0,0 0,0 0.01,0l0 -0.01c0,0 0.01,0 0.01,0 0.01,-0.01 0.01,-0.01 0.01,-0.01 0,0 0,0 0,0.01 0.01,0 0.01,0.01 0.01,0.01 0,0 -0.01,0.01 -0.01,0.01 0,0 -0.01,0 -0.01,0.01 0,0 0,0 -0.01,0 0,0 0,0.01 -0.01,0.01l0 0.01 -0.01 0c0,0 0,0 0,0 -0.01,0 -0.01,0 -0.01,0.01 0,0 0,0 0,0 -0.01,0.01 -0.01,0.01 -0.01,0.01l-0.01 0c0,0.01 0,0.01 0,0.01 -0.01,0 -0.01,0 -0.01,0.01 0,0 0,0 0,0l-0.01 0c0,0 0,0 -0.01,0l-0.01 0.01 0 0c0,0 0,0 -0.01,0 0,0.01 0,0.01 -0.01,0.01l0 0c-0.01,0.01 -0.01,0.01 -0.01,0.01l-0.01 0c0,0 0,0 -0.01,0.01 -0.01,0 -0.01,0 -0.02,0 -0.01,0 -0.02,0 -0.02,0 0,0 -0.01,-0.01 -0.01,-0.01 0,-0.01 -0.01,-0.01 -0.01,-0.01 0,-0.01 0,-0.01 0,-0.01 0,0 0,0 0,0 0,0 0.01,-0.01 0.01,-0.01 0,-0.01 0.01,-0.01 0.01,-0.01 0.01,0 0.01,0 0.01,0 0,0 0,0 0.01,0 0,0 0,0 0,0 0,0 0,0 0,0l0.01 0c0,0 0,0 0,0 0.01,0 0.01,0 0.02,0l0 0 0 0c0,0 0,-0.01 0.01,-0.01l0 -0.01 0.01 -0.01 0 -0.01c0,0 0,0 0,0l0 -0.01c0,0 0,0 0.01,0 0,0 0,0 0,0l0 -0.01c0,0 0,0 0,0l0 -0.01 0 0 0 -0.01c0,0 0,0 0,0l0 -0.01c0,0 0,0 0,0 0,-0.01 0,-0.01 0,-0.01 0,0 -0.01,0 -0.02,0.01 0,0.01 -0.01,0.01 -0.01,0.01 0,0.01 0,0.01 0,0.01 -0.01,0 -0.01,0 -0.01,0.01 0,0 -0.01,0 -0.01,0l-0.02 0.02 -0.02 0.01c0,0.01 0,0.01 0,0.01 -0.01,0 -0.01,-0.01 -0.01,-0.02 0,0 0,0 0,-0.01 0,0 0,0 0,0 0,0 0,0 0,0 0,0 0,0 0,0l0.01 0 0 0c0,-0.01 0.01,-0.01 0.01,-0.01 0,0 0.01,0 0.01,-0.01l0.01 -0.01c0,0 0.01,0 0.01,-0.01 0.01,-0.01 0.02,-0.01 0.02,-0.01z"/>
  <path class="fil1" d="M0.64 0.31l0 -0.01c0.01,0 0.01,0 0.02,-0.01 0,0 0,0 0.01,-0.01 0.01,-0.01 0.02,-0.02 0.02,-0.02 0.01,-0.01 0.01,-0.02 0.02,-0.03 0,0 0,0 0,-0.01l0 0 0.01 0 0 0 0 -0.01c0,0 0,-0.01 0.01,-0.03 0.01,-0.01 0.01,-0.02 0.02,-0.03 0,0 0,0 0,0 0,-0.01 0,-0.02 0.01,-0.03 0,-0.01 0.01,-0.02 0.02,-0.03 0,0 0,0 0,-0.01 0,0 0.01,-0.01 0.01,-0.01l0.01 -0.01c0,0 0,-0.01 0,-0.01 0.01,-0.01 0.01,-0.01 0.01,-0.02 0.01,0 0.01,0 0.01,-0.01 0,0 0,0 0,0 0.01,-0.01 0.01,-0.01 0.01,-0.01 0,-0.01 0.01,-0.01 0.01,-0.01 0.01,0 0.02,0 0.02,0.01 0.01,0.01 0.01,0.02 0.01,0.02 0,0 0,0.01 -0.01,0.02l0 0.03c-0.01,0 -0.01,0 -0.01,0 0,0.02 0,0.03 -0.01,0.04 0,0 -0.01,0.01 -0.01,0.01 0,0.01 0,0.01 0,0.01 -0.01,0.01 -0.01,0.01 -0.01,0.02l-0.03 0.05 -0.01 0c0,0 0,0 0,0.01l-0.01 -0.01c0,0 -0.01,0.01 -0.01,0.01 0,0 0,0 0.01,0.01l0 0c0,0 -0.01,0.01 -0.03,0.03 0,0 0,0.01 -0.01,0.02l0 0.01c0,0 -0.01,0.01 -0.01,0.02 0,0 0,0.01 -0.01,0.01 0,0.01 -0.01,0.02 -0.01,0.02 0,0 0.01,0 0.01,0 0,0 0,0 0.01,-0.01 0,-0.01 0.01,-0.01 0.01,-0.01 0,-0.01 0.01,-0.01 0.01,-0.01l0 -0.01c0,0 0,0 0.01,0l0 0c0,0 0,0 0,0 0,-0.01 0.01,-0.01 0.01,-0.01 0,0 0.01,0 0.01,-0.01 0,0 0,0 0,0 0.01,0 0.01,0 0.01,-0.01 0,0 0.01,-0.01 0.01,-0.01 0.01,0 0.01,0 0.02,0 0,-0.01 0,-0.01 0.01,-0.01 0.01,-0.01 0.02,-0.01 0.02,-0.01l0 0 0 0 0.01 0c0.01,0 0.01,0.01 0.02,0.01 0.01,0 0.01,0.01 0.01,0.02l0 0.02 0 0.02c0,0 -0.01,0.01 -0.01,0.02 0,0.01 0,0.01 0,0.01l-0.01 0.01 0.01 0.01 -0.01 0.01c0,0 0.01,0 0.01,0 0,0 0,0 0.01,-0.01 0,0 0,0 0,0 0.01,0 0.01,-0.01 0.01,-0.01 0,0 0,0 0.01,0 0,0 0,-0.01 0.01,-0.01 0,0 0.01,-0.01 0.01,-0.01 0.01,-0.01 0.02,-0.02 0.03,-0.02l0 0c0,-0.01 0.01,-0.01 0.01,-0.01 0,0 0,0 0,0.01 0,0 0,0 0,0 0,0.01 0,0.01 0,0.01 0,0.01 0,0.01 -0.01,0.02l0 0c0,0.01 0,0.01 0,0.01 -0.01,0 -0.01,0 -0.01,0.01 0,0 -0.01,0 -0.02,0.01 0,0 0,0.01 -0.01,0.01l0 -0.01c-0.01,0.01 -0.01,0.01 -0.01,0.02 -0.01,0 -0.01,0 -0.01,0.01l-0.01 0c0,0 0,0 0,0 0,0 0,0.01 -0.01,0.01 0,0 -0.01,0 -0.01,0.01 0,0 -0.01,0 -0.02,0 0,0 0,0 0,0 0,-0.01 0,-0.01 -0.01,-0.01 0,0 0,0 0,-0.01 -0.01,0 -0.01,0 -0.01,-0.01 0,0 0,0 0,0l0 -0.01 0 -0.01 0 0c0,0 0,-0.01 0,-0.01l0 -0.02c0,-0.01 0.01,-0.02 0.01,-0.03 0,0 0,0 0,0l0 -0.01 0 -0.01c0,0 0,0 0,0 -0.01,0 -0.01,0 -0.01,0 0,-0.01 0,-0.01 0,-0.01 -0.01,0 -0.01,0.01 -0.01,0.01 0,0 0,0 0,0.01l-0.01 -0.01 0 0.01c0,0 -0.01,0 -0.01,0.01 -0.01,0 -0.01,0 -0.02,0.01 0,0 0,0 -0.01,0 0,0 0,0.01 -0.01,0.01l0 0 0 0c-0.01,0.01 -0.01,0.01 -0.02,0.01l0 0.01c0,0 -0.01,0 -0.01,0.01 0,0 0,0 0,0 0,0 -0.01,0 -0.01,0 0,0 0,0 0,0 0,0 -0.01,0.01 -0.01,0.01 0,0 0,0.01 -0.01,0.02 -0.01,0.01 -0.02,0.01 -0.02,0.02 0,0 0,0 0,0 0,0.01 -0.01,0.01 -0.01,0.01 0,0 -0.01,0.01 -0.01,0.01 0,0 0,0 0,0 -0.01,0 -0.01,0 -0.01,-0.01 -0.01,-0.01 -0.01,-0.01 -0.01,-0.01l0 -0.01 0 -0.01c0,0 0.01,0 0.01,-0.01 0,-0.01 0,-0.02 0.01,-0.02 0,-0.01 0,-0.01 0.01,-0.03 -0.01,0.01 -0.02,0.01 -0.02,0.01 -0.01,0 -0.01,0 -0.01,0 0,-0.02 0,-0.03 0.01,-0.03z"/>
  <path class="fil2" d="M0.98 0.39l0.01 0c0,0 0,0 0,0 0,0.01 0,0.01 0,0.01 0,0 0,0 0,0 -0.01,0.01 -0.01,0.01 -0.02,0.01 0,0 0,0 -0.01,0 0,-0.01 0,-0.01 -0.01,-0.01 0,0 0,-0.01 0,-0.01 0,0 0,0 0,0 0,0 0,0 0,0 0,0 0,-0.01 0,-0.01 0.01,0 0.01,0 0.01,0 0,-0.01 0,-0.01 0,-0.01 0,0 0.01,0 0.01,0 0,0 0,0 0,0 0,0 0,0 0,0 0.01,0.01 0.01,0.01 0.01,0.01l0 0.01z"/>
  <path class="fil2" d="M1.03 0.34l0 0c0,0 0,0 0,0 0,0 0,0 -0.01,0.01 0,0 0,0 0,0l-0.01 0c0,0 0,0 -0.01,0 0,-0.01 0,-0.01 0,-0.01 0,0 0,0 -0.01,-0.01 0,0 0,-0.01 0,-0.01 0,0 0,0 0.01,0 0,0 0,-0.01 -0.01,-0.01 0,0 0,0 0,0 0,-0.01 0,-0.01 0.01,-0.01 0,-0.01 -0.01,-0.01 -0.01,-0.01 0,0 0.01,0 0.01,0 0,0 0,-0.01 0,-0.01 0,0 0,0 0,0l0 0c0,0 0,0 0,0 0,0 0,0 0,-0.01l0 0 0 0c0,0 0,0 0,0 0,-0.01 0.01,-0.01 0.01,-0.01 0,0 0,0 0,0 0,-0.01 0,-0.01 0,-0.01l0 0 0 -0.01c0,0 0,0 0,0 0.01,0 0.01,0 0.01,0l0 0c0,-0.01 0,-0.01 0,-0.01 0,0 0,0 0,0 0,0 0,-0.01 0,-0.01 0,0 0.01,0 0.01,0 0,0 0,-0.01 0,-0.01 0,0 0,0 0,0 0,0 0,0 0,0 0.01,0 0.01,0 0.01,0l0 -0.01c0,0 0,0 0,0l0 0c0,0 0,0 0,-0.01 0,0 0.01,0 0.01,0 0,-0.01 0,-0.01 0,-0.01 0.01,-0.01 0.01,-0.01 0.01,-0.01l0 0c0.01,-0.01 0.01,-0.01 0.01,-0.01 0,0 0,0 0.01,-0.01 0,0 0,0 0,0 0,0 0,0 0.01,0 0,0 0,0 0,0 0,0.01 0.01,0.01 0.01,0.01 0,0 0,0 -0.01,0.01 0,0 0,0 0,0 0,0 0,0 0,0.01 0,0.01 0,0.01 0,0.01l-0.01 0.01c0,0 0,0 0,0 0,0 0,0 0,0l0 0 0 0c0,0.01 0,0.01 0,0.01 0,0 0,0.01 -0.01,0.01 0,0 0,0 0,0l0 0c0,0.01 0,0.01 0,0.01 0,0 0,0 0,0.01 -0.01,0 -0.01,0 -0.01,0 0,0 0,0 0,0 0,0 0,0 0,0.01l0 -0.01 0 0.01 0 0c0,0 0,0 0,0 0,0 -0.01,0 -0.01,0 0,0.01 0,0.01 0,0.01 0,0 0,0 0,0l0 0c0,0 0,0 0,0 0,0.01 -0.01,0.01 -0.01,0.01l0 0c0,0 0,0 0,0 0,0.01 0,0.01 0,0.01 -0.01,0.01 -0.01,0.01 -0.01,0.01 0,0 0,0 -0.01,0 0,0 0,0 0,0 0,0 0,0 0,0l0 0c-0.01,0 -0.01,0.01 -0.01,0.01 0,0 0,0 0,0l0 0 0 0c0,0.01 0,0.01 0,0.01l0 0.01 0 0 0 0 0 0.01c0,0 0,0 0,0 0,0 0,0.01 0.01,0.01 0,0 0,0 0,-0.01l0 0c0,0 0,0 0.01,0 0,-0.01 0,-0.01 0,-0.01 0,0 0,0 -0.01,0 0,0 0,-0.01 0,-0.01 0,0 0,0 0,0 0,-0.01 0,-0.01 0.01,-0.01 0,0 0,0 0,0l0.01 -0.01c0,0 0,0 0,0 0,0 0.01,0 0.01,0 0,0 0,0 0,0 0,0 0.01,0 0.01,0.01 0,0 0,0 0,0 0,0 0.01,0 0.01,0 0,-0.01 0,-0.01 0.01,-0.01 0,0 0,0 0,0 0.01,-0.01 0.01,-0.01 0.01,-0.01l0 0c0,0 0,0 0,0 0,0 0,0 0.01,0 0,0 0,0 0,0 0,0.01 0,0.01 0,0.01 -0.01,0 -0.01,0 -0.01,0.01l0 0c0,0 0,0 0,0 -0.01,0 -0.01,0 -0.01,0 0,0.01 0,0.01 0,0.01 0,0 0,0 0,0 0,0 -0.01,0 -0.01,0 0,0 0,0 0,0 0,0 0,0 0,0 0,0 0,0 0,0 0,0 0,0 0,0 -0.01,0 -0.01,0 -0.01,0.01 0,0 0,0 0,0l-0.01 0 0 0c0,0 0,0 -0.01,0.01 0,0 0,0 0,0 0,0 -0.01,0.01 -0.01,0.01l0 0zm0.05 -0.17l0 0c0,0 0,0 0,0l0 0c-0.01,0.01 -0.01,0.01 -0.01,0.01 0,0 0,0 0,0.01l0 0 -0.01 0 0 0.01c0,0 0,0 0,0 0,0 0,0 0,0 0,0 0,0.01 -0.01,0.01 0,0 0,0 0,0 0,0 0,0.01 0,0.01l0 0c0,0 0,0 -0.01,0l0 0.01c0,0 0,0 0,0 0,0.01 0,0.01 0,0.01l-0.01 0c0,0 0,0 0,0 0,0.01 0,0.01 0,0.01l-0.01 0.01c0,0 0,0 0,0.01l0 0c0,0 0,0 0,0 0,0 0,0 0,0l0 0c0,0 0,0 0,0 0,0 0,0 0,0 0,0 0,0 0.01,0 0,0 0,0 0,-0.01 0,0 0,0 0,0l0.01 -0.01c0,0 0,0 0,0 0,0 0,0 0,0l0.01 -0.01c0,0 0,0 0,0 0,0 0,0 0,0 0,0 0,0 0,-0.01 0,0 0,0 0,0l0.01 0c0,0 0,0 0,0 0,0 0,-0.01 0,-0.01 0,0 0,0 0,0 0,0 0,0 0.01,-0.01 0,0 0,0 0,-0.01 0,0 0,0 0,0 0.01,0 0.01,0 0.01,-0.01l0 0 0 -0.01 0 -0.01 0 0z"/>
  <path class="fil2" d="M1.18 0.31l0 0 0 0 0 0c0,0 0,0.01 0,0.01 0,0 0,0 0,0l0 0.01c0,0 0,0 0,0 0,0 0,0 0,0 -0.01,0.01 -0.01,0.01 -0.01,0.01l0 0.01c0,0 0,0 0,0 0,0 0,0 0,0 0,0 0,0 0,0 0,0 0,0 0,0 0,0 0,0 0,0 0,0 0.01,0 0.01,0 0,0 0,0 0,0l0.01 0c0,0 0,0 0,0l0.01 0c0,0 0.01,0 0.01,0 0,0 0.01,0 0.01,0.01 0,0 0,0 0,0.01 0,0 0,0 -0.01,0 0,0 0,0 0,0 0,0 -0.01,-0.01 -0.01,-0.01 0,0 0,0 0,0l0 0 -0.01 0 0 0c0,0 0,0 0,0l0 0 0 0 -0.01 0 0 0c0,0 -0.01,0 -0.01,0 0,0 0,0 0,0 0,0 0,0 0,0 0,0.01 -0.01,0.01 -0.01,0.01 0,0 0,0 0,0 0,0 0,0.01 0,0.01 0,0 0,0 -0.01,0l0 0c0,0 0,0.01 0,0.01 0,0 0,0 0,0l0 0c0,0 0,0 0,0.01l0 0c0,0 0,0 0,0l0 0c0,0 0,0.01 -0.01,0.01 0,0 0,0 0,0 0,0 0,0 0,0.01l0 0 0 0c0,0 0,0 0,0 0,0 0,0 0,0 0,0 0,0 -0.01,0.01l0 0c0,0.01 0,0.01 0,0.01l0 0c0,0 -0.01,0 -0.01,0 0,0 0,0.01 0,0.01 0,0 0,0 0,0 0,0 0,0 0,0.01 0,0 0,0 -0.01,0 0,0 0,0 0,0l0 0c0,0 0,0.01 0,0.01 0,0 0,0 0,0l-0.01 0 0.01 0c-0.01,0 -0.01,0 -0.01,0 0,0 0,0 0,0.01 0,0 0,0 0,0l-0.01 0 0 0c0,0 -0.01,0 -0.01,0 -0.01,-0.01 -0.01,-0.01 -0.01,-0.01 0,0 0,-0.01 0,-0.01 0,0 0,0 0,0l0 -0.01 0 0c0,0 0,0 0,0 0,-0.01 0,-0.01 0.01,-0.01 0,0 0,0 0,-0.01 0,0 0,0 0,0l0.02 -0.02c0,0 0,-0.01 0,-0.01l0 0c0,0 0,0 0,0 0,0 0,0 0,0 0,0 0,0 0,0 0,0 0.01,-0.01 0.01,-0.01 0,0 0,0 0,0l0 0c0,0 0,0 0,0 0,0 0,0 0,-0.01l0.01 0c0,0 0,0 0,0 0,0 0,0 0.01,-0.01l0 0 0 0 0 0c0,0 0,0 0,0 0,0 0,0 0,0 0,0 0.01,-0.01 0.01,-0.01 0,0 0,0 0,0l0 0c0.01,0 0.01,0 0.01,0l0 -0.01 0 0.01 0 -0.01 0 0c0,0 0,0 0,0 0,0 0,-0.01 0,-0.01 0.01,0 0.01,0 0.01,0l0 0 0 0 0 0 0 0 0 -0.01c0,0 0,0 0,0 0,0 0,0 0,0l0.01 -0.02c0,0 0,0 0,0l0 -0.01c0,0 0,0 0,0 0,0 0,0 0,0 0,0 0,0 0,0 0,0 -0.01,0 -0.01,0l0 0 0 0c0,0 0,0 0,0 0,0 0,0 0,0l-0.01 0c0,0 0,0.01 0,0.01l0 0 0 0 0 0c0,0 0,0 0,0 -0.01,0 -0.01,0 -0.01,0l0 0c0,0 0,0 0,0 0,0 -0.01,0 -0.01,0 0,0.01 0,0.01 0,0.01 0,0 0,0 -0.01,0l0 0.01c0,0 -0.01,0 -0.01,0 0,0 0,0 0,0l-0.01 0c0,0 0,0 0,0 0,0 0,0 0,0l0 0 0 0 -0.01 0.01c0,0 0,-0.01 -0.01,-0.01 0,0 0,0 0,0l0 -0.01c0,0 0,0 0,0 0,0 0,0 0,0 0,0 0,-0.01 0,-0.01l0 0c0,0 0,0 0,-0.01l0 0c0,0 0,0 0,0 0,0 0,0 0,0 0,0 0,0.01 0,0.01 0,0 0,0 -0.01,0 0,0 0,0 0,0 0,0 0,0 0,0 0,0 0,0 0,0 0,0 0,0 0,-0.01 0,0 0,0 0,0 0,0 0,0 0,0l0 0c0.01,-0.01 0.01,-0.01 0.01,-0.01l0 0c0,-0.01 0.01,-0.01 0.01,-0.01 0,0 0,0 0,0l0.01 -0.01c0,0 0.01,0 0.01,0 0,0 0.01,0 0.01,0 0,0.01 0,0.01 -0.01,0.01 0,0 0,0.01 0,0.01 0,0 0,0 0,0.01 -0.01,0 -0.01,0 -0.01,0 0,0 0,0.01 0,0.01 0,0 0,0 0,0.01 0,0 0,0 0,0 0,0 0,0 0.01,-0.01l0 0c0,0 0,0 0,0l0 0c0,0 0.01,0 0.01,0l0 0c0,0 0,-0.01 0.01,-0.01 0,0 0,0 0,0 0,0 0,0 0,0 0,0 0,0 0,0 0.01,0 0.01,-0.01 0.02,-0.01 0,0 0,-0.01 0.01,-0.01 0,0 0.01,0 0.01,0 0,0 0,-0.01 0,-0.01 0,0 0,0 0,0 0.01,0 0.01,0 0.01,0 0,0 0.01,0 0.01,0 0,0 0,0.01 0,0.01l0 0c0,0.01 0,0.01 0,0.02 0,0 0,0 0,0l0 0.01c0,0 0,0 -0.01,0zm-0.07 0.12l0 -0.01c0,0 0,0 0.01,0 0,0 0,-0.01 0,-0.01 0,0 0,0 0,0l0 0 0.01 -0.01c0,0 0,-0.01 0,-0.01 0,0 0,0 0,0 0,0 0,0 0.01,-0.01l0 0c0,0 0,0 0,0 0,0 -0.01,0 -0.01,0l-0.01 0.01c0,0 0,0 0,0l0 0.01c0,0 -0.01,0 -0.01,0 0,0 0,0 0,0 0,0.01 0,0.01 0,0.01l0 0c0,0 0,0 -0.01,0 0,0 0,0 0,0l0 0c0,0 0,0 0,0 0,0 0,0 0,0.01 0,0 0,0 0,0 0,0 0,0 0,0l-0.01 0c0,0.01 0,0.02 0,0.02 0,0 0,0 0,0 0,0.01 0,0.01 -0.01,0.01 0,0 0,0 0,0 0,0 0,0 0,0 0,0 0,0.01 0,0.01l0 0c0,0 0,0 0,0 0,0.01 0,0.01 0,0.01l0.01 -0.01c0,0 0,0 0,0l0 -0.01c0.01,0 0.01,0 0.01,0 0,0 0,0 0,0 0,0 0,0 0,0 0,-0.01 0,-0.01 0.01,-0.01 0,-0.01 0,-0.01 0,-0.01z"/>
  <g>
   <path class="fil3" d="M0.97 0.03l0.01 0 0 0 0 0 0 0 0 0 0 0 0 0 0 0 0 0 0 0 0 0 0 0 0 0 0 0 0 0.01 0 0 0 0 0 0 0 0 0 0 0 0 0 0 0 0 0 0 0 0 0 0 0 0 0 0 0 0 0 0 0 0 0 0 0 0 0 0 -0.01 0 0 0 0 0 0 0 0 0 0 0 0 0 0 0 0 0 0 0 0 0 0 0 0 -0.01 0 0 0 0 0 0 0 0 0 0 0 0 0 0 0 0 0 0 0 0 0 0 0 0 0 0 0 0 0 0 0 0 0 0 0 0 0 0 0 0 0 0zm0 0c0,0 0,0 0,0 0.01,0 0.01,0 0.01,0l-0.01 0zm-0.01 0l0 -0.01 0 0 0 0 0 0 0 0 0 0 0.01 0 0 0 0 0 0 0 0 0 0 0 0 0 0 0 0 0 0 0 0 0 0 0 0 0 0.01 0 0 0 0 0 0 0 0 0.01 0 0 0 0 0 0 0 0 0 0 0 0 0 0 0 0 0 0 0 0 -0.01 0 0 0 0 0 0 0 0 0 0 0 0 0 0 0 0 0 0 0 0 0 0 0 0 0 0 0 0 0 0 0 0 0 0 0 0 0 0 0 0 0 0 0 0 0 0 0 0 0 0 0 -0.01 0 0 0 0 0 0 0 0 0 0 0 0 0 0 0zm0 0c0,0 0,-0.01 0,-0.01 0,0 0,0 0,0l0 0.01zm-0.01 0.01l-0.01 0 0 0 0 0 0 0 0 0 0 0 0 0 0 -0.01 0 0 0 0 0 0 0 0 0 0 0 0 0 0 0 0 0 -0.01 0 0 0 0 0 0 0.01 0 0 0 0 0 0 0 0 0 0 0 0 0 0 0 0 0 0.01 0 0 0 0 0 0 0 0 0 0 0.01 0 0 0 0 0 0 0 0 0 0 0 0 0 0 -0.01 0 0 0 0 0 0 0 0 0 0 0 0 0 0 0 0 0 0 0 0 0 0 0 0 0 0 0 0 0 0 0.01 0 0 0 0 0 0 0 0 0 0 0 0 0 0 0 0 0 0 0 0zm0 0c0,0 -0.01,0.01 -0.01,0.01 0,0 0,-0.01 0,-0.01l0.01 0zm0 0.01l0 0.01 0 0 0 0 0 0 0 0 0 0 0 0 0 0 0 0 -0.01 0 0 0 0 0 0 -0.01 0 0 0 0 0 0 0 0 0 0 0 0 0 0 0 0 0 0 0 0 0 0 0 0 0 0 0 0 0 0 0 0 0 -0.01 0 0 0 0 0 0 0 0 0.01 0 0 0 0 0 0 0 0 0 0 0 0 0 0 0 0 0 0 0 0 0 0 0 0 0 0 0 0 0 0 0.01 0 0 0 0 0 0 0 0 0 0 0 0 0 0 0 0 0 0 0 0 0 0 0 0 0 0 0 0 0 0 0 0 0 0 0 0zm0 0c0.01,0 0.01,0 0.01,0.01 0,0 -0.01,0 -0.01,0l0 -0.01zm0.02 0.01l-0.01 0 0 0 0 0 0 0 0 0 0 0 0 0 0 0 0 0 0 0 0 0 0 0 0 0 0 0 0 0 0 0 0 0 0 0 0 0 0 0 0 0 0 0 0 0 0 0 -0.01 0 0 0 0 0 0 0 0 0 0 0 0 0 0 0 0 0 0 0 0 -0.01 0 0 0 0 0.01 0 0 0 0 0 0 0 0 0 0 0 0 0 0 0 0 0 0 0 0 0 0 0 0 0 0 0 0 0 0 0 0 0 0 0 0.01 0 0 0.01 0 0 0 0 0 0 0 0 0 0 0 0 0 0 0 0 0 0 0 0 0 0zm0 0c0,0.01 0,0.01 -0.01,0.01 0,0 0,0 0,-0.01l0.01 0zm-0.02 0.02l0 -0.01 0 0 0 0 0 0 0 0 0 0 0 0 0 0 0 0 0 0 0 0 0 0 0 0 0 0 0 0 0 0 0.01 0 0 0 0 0 0 0 0 0 0 0 0 0 0 0 0 0 0 0 0 0 0 0 0 0 0 0 0 -0.01 0 0 0 0 0 0 0.01 0 0 0 0 0.01 0 0 0 0 0 0 0 0 0 0 0 0 0 0 0 0 0 0 -0.01 0 0 0.01 0 0 0 0 0 0 0 0 0 0 0 0 0 0 0 0 0 0 0 0 0 0 -0.01 0 0 0 0 0 0 0 0 0 0 0 0 0 0 0 0 0zm0 0c-0.01,0 -0.01,0 -0.01,0 0,0 0,-0.01 0.01,-0.01l0 0.01zm-0.02 -0.01l0.01 0 0 0 0 0 0 0 0 0 0 0 0 0 0 0 0 0 0 0 0 0 0 0 0 0 0 0 0 0 0 0 0 0 0 0 0 0 0 0 0 0 0 0 0 0 0 0 0 0 0 0 0.01 0 0 0 0 0 0 0 0 0 0 0 0 0 0 0 0 0.01 0 0 0 0 0 0 -0.01 0 0 0 0 0 0 0 0 0 0 0 0 0 0 0 0 0 0 0 0 0 0 0 0 0 0 0 0 0 0 0 0 0 -0.01 0 0 0 0 -0.01 0 0 0 0 0 0 0 0 0 0 0 0 0 0 0 0 0 0 0 0zm0 0c0,0 0.01,-0.01 0.01,-0.01 0,0 0,0.01 0,0.01l-0.01 0zm0.01 0l0 -0.01 0 0.01 0 0 0 0 0 0 0 0 0 0 0 0 0 0 0 0 0 0 0 0 0 0 0 0 0 0 0 0 0 0 0 0 0 0 0 0 0 0 0 0 0 0 0 0 0 0 0 0 0 0 0 0 0 0 0 0 0 0 0 0 0 0 0 0 -0.01 0 0 0 0 0 0 0 0 0 0 0 0 0 0 0 0 0 0 0 0 0 0 0 0 0 0 0 0 0 0 0 0 0 0 0 0 0 0 0 0 0 0 0 0 0 0 -0.01 0 0 0 0 0 0 0 0 0 0 0 0 0 0 0 0 0 0 0.01 0.01zm-0.01 -0.01c0,0 0.01,0 0.01,0 0,0 0,0 0,0.01l-0.01 -0.01zm0 0l0.01 0 0 0.01 -0.01 0 0 -0.01 0 0zm0 0.01c0,0 0,0 0,-0.01 0,0 0,0 0,0l0 0.01zm0.01 0l-0.01 0 0 0 0 0 0 0 0 0 0 0 0 0 0 0 0 0 0 0 0 0 0 0 0 0 0 0 0 0 0 0 0 0 0 0 0 0 0 0 0 0 0 0 0 0 0 0 0 0 0 0 0 -0.01 0 0 0 0 0 0 0 0 0 0 0 0 0 0 0.01 0.01 0 0 0 0 0 0 0 0 0 0 0 0 0 0 0 0 0 0 0 0 0 0 0 0 0 0 0 0 0 0 0 0 0 0 0 0 0 0 0 0 0 0 0 0 0 0 0 0 0 0 0 0 0 0 0 0 0 0 0 0 0 0 0 0 0 0zm0 0c0,0 0,0 -0.01,0 0,0 0,0 0,0l0.01 0zm0.01 0.01l0 0.01 0 0 0 0 -0.01 0 0 0 0 0 0 0 0 0 0 0 0 0 0 0 0 0 0 -0.01 0 0 -0.01 0 0 0 0 0 0 0 0 0 0 0 0 0 0 0 0 0 0 0 0 0 0 0 0 0 0 -0.01 0 0 0 0 0 0 0 0 0 0 0 0 0.01 0 0 0 0 0 0 0 0 0 0 0 0 0 0 0 0 0 0 0 0 0 0 0 0 0 0 0 0 0 0 0 0 0.01 0 0 0 0 0 0 0 0 0 0 0 0 0 0 0 0 0 0 0 0 0 0 0 0 0 0 0.01 0 0 0 0 0 0 0zm0 0c0,0 0,0 0,0 0,0 0,0.01 0,0.01l0 -0.01zm0.01 -0.02l0.01 0 0 0 0 0 0 0.01 0 0 0 0 0 0 0 0 0 0 0 0 0 0 0 0 0 0.01 0 0 0 0 0 0 0 0 0 0 -0.01 0 0 0 0 0 0 0 0 0 0 0 0 0 0 0.01 0 0 -0.01 0 0 0 0 0 0 0 0 0 0 0 0 0 0 -0.01 0 0 0 0 0 0 0 0 0 0 0 0 0 0 0 0 0 0 0.01 0 0 0 0 -0.01 0 0 0 0 0 0 0 0 0 0 0 0 0 0 0 0 0 0 0 0 0 0 0 0 0 0 0 0 0 0 0 0 0 -0.01 0 0 0 0 0 0 0 0zm0 0c0,0 0.01,0 0.01,0 0,0 0,0 0,0l-0.01 0zm-0.01 -0.01l0.01 -0.01 0 0 0 0 0 0 0 0.01 0 0 0 0 0 0 0 0 0 0 0 0 0.01 0 0 0 0 0 0 0 0 0 0 0 0 0 0 0 0 0 0 0 0 0 0 0 0 0 0 0.01 0 0 0 0 0 0 0 0 0 0 0 0 0 0 0 0 0 0 -0.01 0 0 0 0 0 0 0 0 0 0 0 0 0 0 0 0 0 0 0 0 0 0 0 0 0 0 0 0 0 0 0 0 0 0 0 0 0 0 0 0 0 0 0 0 0 0 0 0 0 0 0 0 0 0 -0.01 0 0 0 0 -0.01 0 0 0 0 0 0 0zm0 0c0,0 0,0 0,0 0,-0.01 0,-0.01 0.01,-0.01l-0.01 0.01zm-0.01 -0.01l0.01 0 0 0 0 0 0 0 0 0 0 0 0 0 0 0 0 0 0 0 0 0 0 0 0 0 0 0 0 0 0 0 0 0 0 0 0 0 0 0 0 0 0 0 0 0 0 0 0 0 0 0 0 0 0 0 0 0 0 0 0.01 0 0 0 0 0 0 0 -0.01 0.01 0 0 0 0 0 0 0 0 0 0 0 0 0 0 0 0 0 0 0 0 0 0 0 0 0 0 0 0 0 0 0 0 -0.01 0 0 0 0 0 0 0 0 0 0 0 0 0 0 0 0 -0.01 0 0 0 0 0 0 0 0 0 0 0 0 0 0 0 0zm0 0c0,0 0,0 0.01,0 0,0 0,0 0,0l-0.01 0zm0.02 -0.02l0 0.01 0 0 0 0 0 0 0 0 0 0 0 0 0 0 0 0 0 0 0 0 0 0 0 0 -0.01 0 0 0 0 0 0 0 0 0 0 0 0 0 0 0.01 0 0 0 0 0 0 0 0 0 0 0 0 0 0 0 0 0 0 0 0 0 0 0 0 0 0 -0.01 0 0 0 0 0 0 0 0 0 0 0 0 0 0 -0.01 0 0 0 0 0 0 0 0 0 0 0 0 0.01 0 0 0 0 0 0 0 0 0 0 0 0 -0.01 0 0 0 0 0 0 0 0 0 0 0 0 0.01 0 0 0 0 0 0 0 0 0 0 0 0 0zm0 0c0,0 0.01,0 0.01,0.01 0,0 -0.01,0 -0.01,0l0 -0.01zm0.01 0.01l-0.01 0 0 0 0 0 0 0 0 0 0 0 0 0 0 0 0 0 0 0 0 0 0 0 0 0 0 0 0 0 0 0 0 0 0 0 0 0 0 0 0 0 0 0 0 0 0 0 0 0 0 0 0 0 0 0 0 0 0 0 0 0 0 0 0 0 0 0 0 -0.01 0 0 0 0 0 0 0 0 0 0 0 0 0 0 0.01 0 0 0 0 0 0 0 0 0 0 0 0 0 0 0 0 0 0 0.01 0 0 0 0 0 0 0 0 0 0 0 0 0 0 0 0 0 0 0 0 0 0 0 0 0 0 0 0 0 0 0 0zm0 0c0,0.01 0,0.01 0,0.01 0,0 -0.01,0 -0.01,-0.01l0.01 0zm0 0l0 0.01 -0.01 0 0 0 0 0 0 0 0 0 0 0 0 0 0 0 0 0 0 0 0 0 0 0 0 0 0 0 0 0 0 0 0 0 0 0 0 -0.01 0 0 0 0 0 0 0 0.01 0 -0.01 0 0 0 0 0 0 0 0 0 0 0 0 0 0 0 0 0 0 0.01 0 0 0 0 0 0 0 0 0 0 0 0 0.01 0 -0.01 0 0.01 0 0 0 0 0 0 0 0 0 0 0 0 0 0 0 0 0 0 0 0 0 0 0 0 0 0 0 0 0 0 0 0 0 0 0 0 0 0 0 0 0 0 0 0 0 0 0 0 0 -0.01zm0 0.01c0,0 0,0 0,0 -0.01,0 -0.01,0 -0.01,0l0.01 0zm0 0l0 0 0 -0.01 0 0 0.01 0.01 -0.01 0zm0 -0.01c0.01,0 0.01,0 0.01,0.01 0,0 0,0 -0.01,0l0 -0.01zm0.05 0l-0.01 0 0 -0.01 0.01 0 0.01 0.01 -0.01 0zm0 -0.01c0.01,0 0.01,0.01 0.01,0.01 0,0 0,0 -0.01,0l0 -0.01zm0.01 0l0 0.01 -0.01 0 0 -0.01 0 0 0.01 0zm-0.01 0c0,0 0,0 0,0 0.01,0 0.01,0 0.01,0l-0.01 0zm-0.03 0l0.03 0 0 0.01 -0.03 0 -0.01 -0.01 0.01 0zm0 0.01c0,0 -0.01,0 -0.01,-0.01 0,0 0.01,0 0.01,0l0 0.01zm-0.01 0l0 -0.01 0.01 0 0 0.01 0 0 -0.01 0zm0.01 0c0,0 0,0 0,0 -0.01,0 -0.01,0 -0.01,0l0.01 0zm0.01 0l-0.01 0 0 -0.01 0.01 0 0.01 0.01 -0.01 0zm0 -0.01c0.01,0 0.01,0.01 0.01,0.01 0,0 0,0 -0.01,0l0 -0.01zm-0.02 0.06l0.02 -0.05 0.01 0 -0.02 0.05 0 0.01 -0.01 -0.01zm0.01 0c0,0 0,0.01 0,0.01 0,-0.01 -0.01,-0.01 -0.01,-0.01l0.01 0zm0.01 0.01l-0.01 0 0 -0.01 0.01 0 0 0 0 0.01zm0 -0.01c0,0 0,0 0,0 0,0 0,0.01 0,0.01l0 -0.01zm0.01 -0.05l-0.01 0.05 -0.01 0 0.01 -0.05 0.01 -0.01 0 0.01zm-0.01 0c0,-0.01 0.01,-0.01 0.01,-0.01 0,0 0,0.01 0,0.01l-0.01 0zm0.02 0.03l0.01 -0.04 0.01 0 -0.01 0.05 -0.01 -0.01 0 0zm0.01 0.01c0,0 0,0 0,0 -0.01,0 -0.01,0 -0.01,-0.01l0.01 0.01zm0 0l-0.01 0 0 0 0 0 0 0 0 0 0 0 0 0 0 0 0 0 0 0 0 0 0 0 0 0 0 0 0 0 0 0 0 0 0 0 0 0 0 0 0 0 0 0 0 0 0 0 0 0 0 0 0 0 0 0 0 0 0 0 0 0 0 -0.01 0 0 0 0 0.01 0.01 0 0 0 0 0 0 0 0 0 0 0 0 0 0 0 0 0 0 0 0 0 0 0 0 0 0 0 0 0 0 0 0 0 0 0 0 0 0 0 0 0 0 0 0 0 0 0 0 0 0 0 0 0 0 0 0 0 0 0 0 0 0 0 0 0 0zm0 0c0,0 0,0.01 0,0.01 -0.01,0 -0.01,-0.01 -0.01,-0.01l0.01 0zm0.01 0.01l0 0.01 0 0 0 0 0 0 0 0 0 0 0 0 -0.01 0 0 0 0 0 0 0 0 0 0 0 0 0 0 -0.01 0 0 0 0 0 0 0 0 0 0 -0.01 0 0 0 0 0 0 0 0 0 0 0 0 0 0 0 0 0 0 -0.01 0 0 0 0 0 0 0 0 0.01 0 0 0 0 0 0 0 0 0 0 0 0 0 0 0 0 0 0 0 0 0 0 0 0 0 0 0.01 0 0 0 0 0 0 0 0 0 0 0 0 0 0 0 0 0 0 0 0 0.01 0 0 0 0 0 0 0 0 0 0 0 0 0 0 0 0 0 0 0zm0 0c0,0 0.01,0 0.01,0 0,0 -0.01,0.01 -0.01,0.01l0 -0.01zm0.02 -0.02l0.01 0 0 0 0 0.01 0 0 0 0 0 0 0 0 0 0 -0.01 0 0 0 0 0 0 0.01 0 0 0 0 0 0 0 0 0 0 0 0 0 0 0 0 0 0 0 0 -0.01 0 0 0 0 0 0 0.01 0 0 0 0 0 0 0 0 -0.01 0 0 0 0 0 0 0 0 -0.01 0 0 0 0 0 0 0 0 0.01 0 0 0 0 0 0 0 0 0 0 0 0 0 0 -0.01 0 0 0 0 0 0 0 0 0 0 0 0 0 0 0 0 0 0 0 0 0.01 0 0 0 0 0 0 0 0 0 0 0 0 -0.01 0 0 0 0 0 0 0 0zm0 0c0,0 0,0 0,0 0.01,0 0.01,0 0.01,0l-0.01 0zm0.02 -0.04l-0.01 0.04 -0.01 0 0.01 -0.04 0 0 0.01 0zm-0.01 0c0,0 0,0 0,0 0.01,0 0.01,0 0.01,0l-0.01 0zm0 0l0 0 0 0.01 0 0 -0.01 -0.01 0.01 0zm0 0.01c-0.01,0 -0.01,0 -0.01,-0.01 0,0 0,0 0.01,0l0 0.01zm-0.02 0.03l0.01 -0.04 0.01 0 -0.01 0.05 0 0 -0.01 -0.01zm0.01 0.01c0,0 0,0 0,0 -0.01,0 -0.01,0 -0.01,-0.01l0.01 0.01zm-0.02 0.01l0 -0.01 0 0 0 0 0 0 0 0 0 0 0 0 0.01 0 0 0 0 0 0 0 0 0 0 0 0 0 0 0 0 0 0 0 0 0 0 0 0 0 0 0 0 0 0 0 0 0 0 0 0 0 0 0 0 0 0 0 0 0 0 0 0 -0.01 0 0 0 0 0.01 0.01 0 0 0 0 0 0 0 0 0 0 0 0 0 0 0 0 0 0 0 0 0 0 0 0 0 0.01 0 0 0 0 0 0 -0.01 0 0 0 0 0 0 0 0 0 0 0 0 0 0 0 0 0 0 0 0 0 0 0 -0.01 0 0 0 0 0 0 0 0 0zm0 0c0,0 0,0 0,0 0,0 0,-0.01 0,-0.01l0 0.01zm-0.01 -0.01l0.01 0 0 0 0 0 0 0 0 0 0 0 0 0 0 0 0 0 0 0 0 0 0 0 0 0 0 0 0 0 0 0 0 0 0 0 0 0 0 0 0 0 0 0 0 0 0 0 0 0 0 0 0 0 0 0 0 0 0 0 0 0 0 0 0 0 0 0 0 0.01 0 0 0 0 0 0 0 0 0 0 0 0 0 0 0 0 -0.01 0 0 0 0 0 0 0 0 0 0 0 0 0 0 0 0 0 0 0 0 0 0 0 0 0 0 0 0 0 0 0 0 -0.01 0 0 0 0 0 0 0 0 0 0 0 0 0 0 0 0zm0 0c0,0 0,0 0,0 0,0 0.01,0 0.01,0l-0.01 0zm0 -0.01l0.01 0.01 0 0 0 0 0 0 0 0 0 0 0 0 0 0 0 0 0 0 0 0 0 0 0 0 0 0 0 0 0 0 0 0 0 0 0 0 0 0 0 0 0 0 0 0 0 0 0 0 0 0 0 0 0 0 0 0 0 0 0 0 0 0 0 0 0 0 -0.01 0 0 0 0 0 0 0 0 0 0 0 0 0 0 0 0 0 0 0 0 0 0 0 0 0 0 0 0 0 0 0 0 0 0 0 0 0 0 0 0 0 0 0 0 0 0 0 0 0 0 0 0 0 0 0 0 -0.01 0 0 0 0 0 0 0 0 0 0zm0 0c0,0 0,0 0,0 0.01,0 0.01,0 0.01,0.01l-0.01 -0.01zm0.02 -0.04l-0.01 0.05 -0.01 -0.01 0.01 -0.04 0 0 0.01 0zm-0.01 0c0,0 0,0 0,0 0.01,0 0.01,0 0.01,0l-0.01 0zm0 0l0 0 0 0.01 0 0 -0.01 -0.01 0.01 0zm0 0.01c-0.01,0 -0.01,0 -0.01,-0.01 0,0 0,0 0.01,0l0 0.01zm0.06 0l-0.01 0 0 -0.01 0.01 0 0 0 0 0.01zm0 -0.01c0.01,0 0.01,0.01 0.01,0.01 0,0 0,0 -0.01,0l0 -0.01zm0.02 0.02l-0.01 0 0 0 0 0 0 0 0 0 0 0 0 0 0 0 0 0 0 0 0 0 0 0 0 -0.01 0 0 0 0 0 0 0 0 0 0 0 0 0 0 0 0 0 0 0 0 0 0 0 0 0 0 0 0 0 0 0 0 0 0 0 0 -0.01 0 0 0 0 0 0 -0.01 0 0 0.01 0 0 0 0 0 0 0 0 0 0 0 0 0 0 0 0 0 0 0 0 0.01 0 0 0 0 0.01 0 0 0 0 0 0 0 0 0 0 0 0 0 0 0 0 0 0 0 0 0 0 0 0 0 0 0.01 0 0 0 0 0 0 0 0 0 0zm0 0c0,0 0,0 0,0 -0.01,0 -0.01,0 -0.01,0l0.01 0zm0 0.01l-0.01 0 0 0 0 0 0 0 0 0 0 0 0 0 0 0 0 0 0 0 0 0 0 0 0 0 0 0 0 -0.01 0 0 0 0 0 0 0 0 0 0 0 0 0 0 0 0 0 0 0 0 0 0 0 0 0 0 0 0 0 0 0 0 0 0 0 0 0 0 0.01 0 0 0 0 0 0 0 0 0 0 0 0 0 0 0 0 0 0 0 0 0 0 0 0 0 0 0 0 0 0 0 0 0.01 0 0 0 0 0 0 0 0 0 0 0 0 0 0 0 0 0 0 0 0 0 0 0 0 0 0 0 0 0 0 0 0 0 0zm0 0c0,0 0,0.01 -0.01,0.01 0,-0.01 0,-0.01 0,-0.01l0.01 0zm-0.03 0.03l0 -0.01 0 0 0 0 0 0 0 0 0.01 0 0 0 0 0 0 0 0 0 0 0 0 0 0 0 0 0 0 0 0 0 0 0 0 0 0 -0.01 0 0 0 0 0 0 0.01 0 0 0 0 0 0 0 0 0 0 0 0 0 0 -0.01 0 0 0 0 0 0 0 0 0.01 0 0 0 0 0 0 0.01 0 0 0 0 0 0 0 0 0 0 0 0 -0.01 0 0 0.01 0 0 0 0 0 0 0 0 0 0 0 0 0 0 0 0 0 0.01 0 0 0 0 -0.01 0 0 0 0 0 0 0 0 0 0 0 0 0 -0.01 0 0 0 0 0 0 0zm0 0c0,0 0,0 0,0 0,-0.01 0,-0.01 0,-0.01l0 0.01zm-0.01 -0.01l0.01 0 0 0.01 -0.01 0 0 0 0 -0.01zm0 0.01c0,0 0,0 0,0 0,-0.01 0,-0.01 0,-0.01l0 0.01zm0.02 -0.05l-0.01 0.05 -0.01 0 0.01 -0.05 0 -0.01 0.01 0.01zm-0.01 0c0,-0.01 0,-0.01 0,-0.01 0.01,0 0.01,0.01 0.01,0.01l-0.01 0zm0 0.06l-0.01 0 0 -0.01 0.01 0 0 0 0 0.01zm0 -0.01c0,0 0,0 0,0 0,0 0,0.01 0,0.01l0 -0.01zm0.02 -0.03l0.01 0 0 0 0 0 0 0 0 0.01 0 0 0 0 0 0 0 0 0 0 0 0.01 0 0 0 0 0 0 0 0 0 0 0 0 -0.01 0.01 0 0 0 0 0 0 0 0 0 0 0 0 0 0 -0.01 0 0 0 0 0 0 0 0 0.01 0 0 -0.01 0 0 0 0 0 0 -0.01 0 0 0 0 0 0 0.01 0 0 0 0 -0.01 0 0 0 0 0 0 0 0 0 0 0 0 0 0 0.01 0 0 0 0 0 0 0 0 0 0 0 0 0 0 -0.01 0 0 0 0 0 0 0 0 0 0 0 0 0 -0.01 0 0 0 0 0 0 0 0 0 0zm0 0c0.01,0 0.01,-0.01 0.01,0 0,0 0,0 0,0l-0.01 0zm0.01 -0.01l0.01 0 0 0 0 0 0 0 0 0 0 0 0 0 0 0 0 0 0 0 0 0 0 0 0 0 0 0 0 0 0 0 0 0 0 0.01 0 0 0 0 0 0 0 0 0 0 0 0 0 0 -0.01 0 0 0 0 0 0 0 0 0 0 0 0 0 0 0 0 0 -0.01 0 0 0 0 0 0.01 0 0 0 0 0 0 0 0 0 0 0 0 0 0 0 0 0 0 0 0 -0.01 0 0 0 0 0 0 0 0 0 0 0 0 0 0 0 0 0 0 0 0 0 0 0 0 0 0 0 0 0 0 0 0 0 0 0 0 0 0 0 0zm0 0c0,0 0,-0.01 0,-0.01 0,0 0.01,0.01 0.01,0.01l-0.01 0zm-0.02 -0.01l0 -0.01 0 0 0 0 0.01 0 0 0 0 0 0 0 0 0 0 0 0 0 0 0 0.01 0 0 0 0 0 0 0 0 0 0 0 0 0 0 0.01 0 0 0 0 0 0 0 0 0 0 0 0 0.01 0 0 0 0 0 0 0 0 0.01 0 0 0 0 0 0 0 0 -0.01 0 0 0 0 0 0 0 0 0 0 0 0 0 0 0 0 -0.01 0 0 0 0 0 0 0 0 -0.01 0 0 0 0 0 0 0 0 0 0 0 0 0 0 0 0 0 0 0 0 0 0 0 0 0 0 0 0 0 0 0 0 0 0 0 -0.01 0 0 0 0 0zm0 0c0,0 0,0 0,-0.01 0,0 0,0 0,0l0 0.01zm-0.01 -0.01l0.01 0 0 0.01 -0.01 0 -0.01 -0.01 0.01 0zm0 0.01c0,0 -0.01,0 -0.01,-0.01 0,0 0.01,0 0.01,0l0 0.01zm-0.02 0.05l0.01 -0.06 0.01 0 -0.01 0.06 0 0.01 -0.01 -0.01zm0.01 0c0,0 0,0.01 -0.01,0.01 0,-0.01 0,-0.01 0,-0.01l0.01 0zm0.06 -0.06l0.01 0 0 0.01 -0.01 0 0 -0.01 0 0zm0 0.01c0,0 0,0 0,-0.01 0,0 0,0 0,0l0 0.01zm-0.02 0.05l0.02 -0.06 0.01 0 -0.02 0.06 0 0.01 -0.01 -0.01zm0.01 0c0,0 0,0.01 0,0.01 0,-0.01 -0.01,-0.01 -0.01,-0.01l0.01 0zm0 0.01l0 0 0 -0.01 0 0 0.01 0 -0.01 0.01zm0 -0.01c0.01,0 0.01,0 0.01,0 0,0 0,0.01 -0.01,0.01l0 -0.01zm0.02 -0.06l-0.01 0.06 -0.01 0 0.01 -0.06 0.01 0 0 0zm-0.01 0c0,0 0.01,0 0.01,0 0,0 0,0 0,0l-0.01 0zm0.05 0.03l0.01 0 0 0 0 0 0 0.01 0 0 0 0 0 0 0 0 0 0 0 0 0 0.01 0 0 0 0 0 0 -0.01 0 0 0 0 0 0 0.01 0 0 0 0 0 0 0 0 0 0 0 0 -0.01 0 0 0 0 0 0 0.01 0 0 0 0 0 0 -0.01 0 0 0 0 0 0 -0.01 0 0 0 0 0 0 0 0 0.01 0 0 0 0 0 0 0 0 -0.01 0 0 0 0 0 0 0 0 0 0 0 0 0 0 0 0 0.01 0 0 0 0 0 0 -0.01 0 0 0 0 0 0 0 0 0 0 0 0 0 0 0 -0.01 0 0 0 0 0 0 0 0zm0 0c0,0 0,0 0.01,0 0,0 0,0 0,0l-0.01 0zm0 -0.01l0.01 0 0 0 0 0 0 0 0 0 0 0 0 0 0 0 0 0 0 0 0 0 0 0 0 0 0 0 0 0 0 0 0 0 0 0 0 0.01 0 0 0 0 0 0 0 0 0 0 0 0 0 0 0 0 0 0 0 0 0 0 0 0 0 0 0 0 0 0 -0.01 0 0 0 0 0 0 0 0 0 0 0 0 0 0 0 0 0 0 0 0 0 0 0 0 0 0 -0.01 0 0 0 0 0 0 0 0 0 0 0 0 0 0 0 0 0 0 0 0 0 0 0 0 0 0 0 0 0 0 0 0 0 0 0 0 0 0 0 0zm0 0c0,-0.01 0.01,-0.01 0.01,-0.01 0,0 0,0 0,0.01l-0.01 0zm-0.01 -0.01l0 -0.01 0 0 0.01 0 0 0 0 0 0 0 0 0 0 0 0 0 0 0 0 0 0 0 0.01 0 0 0 0 0 0 0 0 0 0 0 0 0 0 0 0 0.01 0 0 0 0 0 0 0 0 0 0 0 0 0 0 0 0 0 0 0 0 0 0 0 0.01 0 0 -0.01 0 0 0 0 0 0 -0.01 0 0 0 0 0 0 0 0 0 0 0 0 0 0 0 0 0 0 0 0 0 0 0 0 0 0 0 0 0 0 0 0 0 0 0 0 0 0 0 0 0 0 0 0 0 0 0 0 0 0 0 0 0 0 0 0 -0.01 0 0 0zm0 0c0,0 0,-0.01 0,-0.01 0,0 0,0 0,0l0 0.01zm-0.02 0.02l-0.01 0 0 0 0 0 0 0 0 0 0 0 0.01 -0.01 0 0 0 0 0 0 0 0 0 0 0 0 0 -0.01 0 0 0 0 0 0 0 0 0 0 0 0 0 0 0.01 -0.01 0 0 0 0 0 0 0 0 0 0 0 0 0.01 0 0 0 0 0 0 0 0 0 0 0 0 0.01 0 0 0 0 0 0 0 0 0 0 0 0 0 0 0 0 -0.01 0 0 0 0 0 0 0 0 0 0 0 0 0 0 0 0 0.01 0 0 0 0 0 0 0 0 0 0 0 0 0 0 0 0 -0.01 0.01 0 0 0 0 0 0 0 0 0 0 0 0 0 0zm0 0c0,0.01 0,0.01 0,0.01 -0.01,0 -0.01,-0.01 -0.01,-0.01l0.01 0zm0 0.02l-0.01 0 0 0 0 0 0 0 0 0 0 0 0 0 0 -0.01 0 0 0 0 0 0 0 0 0 0 0 0 0 0 0 0 0 0 0 0 0 0 0 0 0 0 0 0 0 0 0 0 0 0 0 0 0 -0.01 0 0 0 0 0 0 0 0 0 0 0 0 0 0 0.01 0 0 0 0 0 0 0 0 0.01 0 0 0 0 0 0 0 0 0 0 0 0 0 0 0 0 0 0 0 0 0 0 0 0 0 0 0 0 0 0 0 0 0 0 0 0 0 0 0 0 0 0 0 0.01 0 0 0 0 0 0 0 0 0 0 0 0 0 0zm0 0c0,0 0,0 0,0 -0.01,0 -0.01,0 -0.01,0l0.01 0zm0.01 0.01l0 0.01 0 0 0 0 0 0 0 0 0 0 -0.01 0 0 0 0 0 0 0 0 0 0 -0.01 0 0 0 0 0 0 0 0 0 0 -0.01 0 0 0 0 0 0 0 0 0 0 0 0 0 0 0 0 -0.01 0 0 0 0 0 0 0 0 0 0 0 0 0 0 0 0 0.01 0 0 0 0 0 0 0 0 0 0 0 0 0 0 0 0 0 0 0 0 0 0 0 0 0 0 0 0 0 0 0 0 0 0 0.01 0 0 0 0 0 0 0 0 0 0 0 0 0 0 0.01 0 0 0 0 0 0 0 0 0 0 0 0 0 0 0 0 0zm0 0c0,0 0,0 0,0 0,0 0,0.01 0,0.01l0 -0.01zm-0.01 -0.01l0.01 0 0 0 0 0 0 0 0 0 0 0 0 0 0 0 0 0 0 0 0 0 0 0 0 0 0 0 0 0 0 0 0 0 0 0 0 0 0 0 0 0 0 0 0 0 0 0 0 0 0 0 0 0 0 0 0 0 0 0 0 0 0 0 0 0 0 0 0 0.01 0 0 0 0 0 0 0 0 0 0 0 0 0 0 -0.01 0 0 0 0 0 0 0 0 0 0 0 0 0 0 0 0 0 0 0 0 0 0 0 0 -0.01 0 0 0 0 0 0 0 0 0 0 0 0 0 0 0 0 0 0 0 0 0 0 0 0 0 0zm0 0c0,-0.01 0,-0.01 0,-0.01 0,0 0.01,0 0.01,0.01l-0.01 0zm0 -0.02l0.01 0 0 0 0 0 0 0 0 0 0 0.01 0 0 0 0 0 0 0 0 0 0 0 0 0 0 0 0 0 0 0 0 0 0 0 0 0 0 0 0 0 0 0 0 0 0 0 0 0 0 0 0 0 0 0 0 0 0 0 0.01 0 0 0 0 0 0 0 0 -0.01 0 0 0 0 0 0 0 0 -0.01 0 0 0 0 0 0 0 0 0 0 0 0 0 0 0 0 0 0 0 0 0 0 0 0 0 0 0 0 0 0 0 0 0 0 0 0 0 0 0 -0.01 0 0 0 0 0 0 0 0 0 0 0 0 0 0 0 0 0 0zm0 0c0,0 0,0 0,0 0.01,0 0.01,0 0.01,0l-0.01 0zm0.02 -0.03l0 0.01 0 0 0 0 0 0 0 0 0 0 0 0 0 0 0 0 0 0 0 0 0 0 0 0 0 0 0 0.01 0 0 -0.01 0 0 0 0 0 0 0 0 0 0 0 0 0 0 0 0 0 0 0 0 0.01 0 0 0 0 0 0 0 0 0 0 0 0 0 0 -0.01 0 0 0 0 0 0 0 0 0 0 -0.01 0 0 0 0 0 0 0 0 0 0 0 0 0 0 0 0 0 -0.01 0.01 0 0 0 0 0 0 0 0 0 0 0 0 0 0 0 0 0 0 -0.01 0 0 0.01 0 0 0 0 0 0 0 0 0 0 0 0 0 0 0zm0 0c0.01,0 0.01,0 0.01,0.01 0,0 0,0 -0.01,0l0 -0.01zm0.02 0.02l-0.01 0 0 0 0 0 0 0 0 0 0 0 0 0 0 0 0 -0.01 0 0 0 0 0 0 0 0 0 0 0 0 0 0 0 0 0 0 0 0 0 0 0 0 0 0 0 0 0 0 0 0 0 0 0 0 0 0 -0.01 0 0 0 0 0 0 0 0 0 0 0 0 -0.01 0 0 0 0 0.01 0 0 0 0 0 0 0 0 0 0 0 0 0 0 0 0 0 0 0 0 0.01 0 0 0 0 0 0 0.01 0 0 0 0 0 0 0 0 0 0 0 0 0 0 0 0 0 0 0 0 0 0 0.01 0 0 0 0 0 0 0 0 0 0zm0 0c0,0 0,0 -0.01,0 0,0 0,0 0,0l0.01 0zm0 0.01l-0.01 0 0 0 0 0 0 0 0 0 0 0 0 0 0 0 0 0 0 0 0 0 0 0 0 0 0 0 0 0 0 -0.01 0 0 0 0 0 0 0 0 0 0 0 0 0 0 0 0 0 0 0 0 0 0 0 0 0 0 0 0 0 0 0 0 0 0 0 0 0.01 0 0 0 0 0 0 0 0 0 0 0 0 0 0 0 0 0 0 0 0 0 0 0 0 0 0 0 0 0 0 0.01 0 0 0 0 0 0 0 0 0 0 0 0 0 0 0 0 0 0 0 0 0 0 0 0 0 0 0 0 0 0 0 0 0 0 0 0zm0 0c-0.01,0.01 -0.01,0.01 -0.01,0.01 0,0 0,-0.01 0,-0.01l0.01 0zm-0.03 0.03l0 -0.01 0 0 0 0 0 0 0 0 0 0 0 0 0 0 0.01 0 0 0 0 0 0 0 0 0 0 0 0 0 0 0 0 0 0 0 0 0 0 0 0 -0.01 0 0 0 0 0 0 0 0 0 0 0 0 0 0 0 0 0 0 0 -0.01 0.01 0 0 0 0 0 0.01 0 -0.01 0 0 0.01 0 0 0 0 0 0 0 0 0 0 0 0 0 0 0 0.01 0 0 0 0 0 0 0 0 0 0 0 0 0 0 0 0 0 0.01 0 0 -0.01 0 0 0 0 0 0 0 0 0 0 0 0 0 0 0 0 0 -0.01 0 0 0 0 0 0 0zm0 0c0,0 0,0 0,0 0,0 0,-0.01 0,-0.01l0 0.01z"/>
  </g>
  <path class="fil3" d="M0.97 0.04c0,0 0,-0.01 0,-0.01 0,0 0,-0.01 -0.01,-0.01 -0.01,0 -0.02,0.01 -0.02,0.02 0,0.01 0.01,0.01 0.01,0.01 0.01,0.01 0.01,0.01 0.01,0.01 0,0.01 0,0.02 -0.01,0.02 -0.01,0 -0.01,-0.01 -0.01,-0.01 0,0 0,0 0,-0.01l-0.01 0c0,0.01 0,0.01 0,0.01 0,0.01 0.01,0.01 0.02,0.01 0.01,0 0.02,-0.01 0.02,-0.02 0,0 -0.01,-0.01 -0.02,-0.01 0,0 0,0 0,-0.01 0,-0.01 0,-0.01 0.01,-0.01 0.01,0 0.01,0 0.01,0 0,0.01 0,0.01 0,0.01l0 0zm0.04 -0.01l0.01 0 0 -0.01 -0.03 0 0 0.01 0.01 0 -0.01 0.05 0.01 0 0.01 -0.05zm0.03 -0.01l-0.01 0.05c0,0 0,0 0,0 0,0.01 0,0.01 0.01,0.01 0.01,0 0.02,-0.01 0.02,-0.02l0.01 -0.04 0 0 -0.01 0.04c-0.01,0.01 -0.01,0.02 -0.02,0.02 -0.01,0 -0.01,0 -0.01,-0.01 0,0 0,0 0,0l0.01 -0.05 0 0zm0.05 0.01l0.01 0c0.01,0 0.02,0 0.02,0.01 0,0 -0.01,0.01 -0.01,0.01 0,0.01 0,0.03 -0.02,0.03l-0.01 0 0.01 -0.05zm-0.01 0.05l0.01 0c0.02,0 0.03,-0.01 0.03,-0.03 0,0 0,-0.01 0,-0.01 0,-0.01 0,-0.02 -0.02,-0.02l-0.01 0 -0.01 0.06zm0.07 -0.06l-0.01 0 -0.01 0.06 0 0 0.02 -0.06zm0.02 0.06c0.02,0 0.02,-0.01 0.03,-0.03 0,0 0,-0.01 0,-0.01 0,-0.01 0,-0.02 -0.02,-0.02 -0.01,0 -0.02,0.02 -0.02,0.03 0,0.01 0,0.01 0,0.02 0,0.01 0,0.01 0.01,0.01zm0 0c-0.01,0 -0.01,-0.01 -0.01,-0.01 0,-0.01 0,-0.01 0,-0.02 0.01,-0.01 0.01,-0.02 0.02,-0.02 0.01,0 0.01,0 0.01,0.01 0,0 0,0.01 0,0.01 0,0.02 -0.01,0.03 -0.02,0.03z"/>
 </g>
</svg>
