<?xml version="1.0" encoding="UTF-8"?>
<!DOCTYPE svg PUBLIC "-//W3C//DTD SVG 1.1//EN" "http://www.w3.org/Graphics/SVG/1.1/DTD/svg11.dtd">
<!-- Creator: CorelDRAW 2018 (64-Bit) -->
<svg xmlns="http://www.w3.org/2000/svg" xml:space="preserve" width="100px" height="39px" version="1.1" style="shape-rendering:geometricPrecision; text-rendering:geometricPrecision; image-rendering:optimizeQuality; fill-rule:evenodd; clip-rule:evenodd"
viewBox="0 0 1.33 0.52"
 xmlns:xlink="http://www.w3.org/1999/xlink">
 <defs>
  <style type="text/css">
   <![CDATA[
    .fil0 {fill:#9D9E9E}
    .fil4 {fill:#FEFEFE;fill-rule:nonzero}
    .fil3 {fill:#2B2A29;fill-rule:nonzero}
    .fil1 {fill:#5B466D;fill-rule:nonzero}
    .fil2 {fill:#6F647D;fill-rule:nonzero}
   ]]>
  </style>
 </defs>
 <g id="Слой_x0020_1">
  <metadata id="CorelCorpID_0Corel-Layer"/>
  <path class="fil0" d="M1.02 0l0.28 0c0.02,0 0.03,0.01 0.03,0.03l0 0.05c0,0.02 -0.01,0.03 -0.03,0.03l-0.28 0c-0.02,0 -0.03,-0.01 -0.03,-0.03l0 -0.05c0,-0.02 0.01,-0.03 0.03,-0.03z"/>
  <path class="fil1" d="M0.04 0.45l0.02 0 0.01 0c0.01,-0.01 0.01,-0.01 0.02,-0.01 0,0 0,0 0,0l0.02 -0.01c0.01,0 0.02,0 0.02,0 0,0 0,0 0.01,-0.01 0,0 0,-0.01 0.01,-0.01l0 -0.01c0.01,-0.01 0.01,-0.01 0.02,-0.02l0 0c0,0 0,0 0,-0.01 0,0 0.01,-0.01 0.01,-0.01 0,0 0,0 0,0l0 -0.01c0,0 0,0 0,0 0.01,-0.01 0.01,-0.01 0.01,-0.01 0.01,0 0.01,-0.01 0.01,-0.02l0.01 0 0 0c0,0 0,0 0,-0.01 0,0 0,0 0,0 0,0 0.01,-0.01 0.01,-0.01l0 -0.01 0 0 0 -0.01c0,0 0.01,0 0.01,0 0,-0.01 0.01,-0.02 0.01,-0.03l0.01 -0.02 0 0c0,0 0,0 -0.01,0l-0.01 0.01c0,0 0,0 0,0 -0.01,0.01 -0.01,0.01 -0.02,0.01 0,0.01 -0.01,0.01 -0.01,0.01 -0.01,0 -0.02,0 -0.02,0.01l0 0c0,0 -0.01,0 -0.01,0 0,0 0,0 0,0 0,0 -0.01,0 -0.01,0l0 0 0 0c0,0 0,0.01 -0.01,0.01 0,0 0,0 0,0 -0.01,0 -0.01,0 -0.01,0 -0.01,0 -0.01,0 -0.01,-0.01 0,0 0,0 0,0 -0.01,0 -0.01,0 -0.01,-0.01 0,0 0.01,-0.01 0.01,-0.02 0.01,0 0.01,-0.01 0.02,-0.01 0,0 0,0 0.01,0l0 0 0 0c0.01,0 0.01,0.01 0.01,0.01 0,0 0.01,0 0.01,0l0 0 0.01 0c0,0 0,0 0,-0.01 0.01,0 0.01,0 0.02,0 0.01,-0.01 0.02,-0.01 0.03,-0.02 0,0 0.01,0 0.01,0l0 -0.01c0,0 0.01,0 0.01,0 0.01,0 0.01,-0.01 0.02,-0.02 0,0 0,-0.01 0,-0.01 0,0 0,0 0,0 0,0 0,0 0.01,0 0,-0.01 0,-0.02 0,-0.02 0.01,0 0.01,-0.01 0.02,-0.01l0 0 0 -0.01 0 0c0,-0.01 0,-0.02 0.01,-0.02 0,-0.02 0.01,-0.02 0.01,-0.03l0.01 0 0 -0.01c0,0 0,0 0,0l0.01 0 0.01 -0.03c0,0 0.01,0 0.01,0 0,0 0,0 0,0l0 0c0.01,0 0.01,0 0.01,-0.01 0,0 0,0 0,0l0 0c0,-0.01 0,-0.01 0.01,-0.02 0.01,-0.01 0.02,-0.01 0.03,-0.01 0,0 0.01,0 0.01,0.01 0.01,0.01 0.02,0.01 0.02,0.03l-0.01 0.01c0,0.01 0,0.01 0,0.01 0,0 0,0 0,0 0,0 0,0.01 0,0.01 0,0 0,0 -0.01,0.01 0,0 0,0 0,0.01 0,0 0,0 0,0l-0.01 0c0,0.01 0,0.01 0,0.01l0 0 -0.01 0c0,0 0,0 0,0.01 0,0 0,0 0,0 0,0 0,0 0,0 0,0.01 0,0.01 -0.02,0.01 0,0.01 0,0.01 0,0.01 -0.01,0.01 -0.01,0.01 -0.01,0.01l-0.02 0.02c0,0 -0.01,0.01 -0.03,0.02 0,0 0,0 0,0.01 0,0 -0.01,0 -0.01,0.01l-0.01 0.03 0 0c0,0 0,0 -0.01,0.01l0 0c0,0 0,0 0,0.01l-0.01 0.03c0,0 -0.01,0.01 -0.01,0.01 0,0.01 0,0.01 -0.01,0.01 0,0.01 0,0.01 0,0.01 0,0.01 -0.01,0.01 -0.01,0.01 0,0.01 0,0.01 -0.01,0.01 0,0 0,0 0,0 0.01,0 0.01,0.01 0.01,0.01 0,0 0,0 -0.01,0 0,0 0,0 0,0.01 0,0 0,0 0,0 0,0 0,0 0,0.01 0,0 -0.01,0 -0.01,0 0,0 0,0 0,0l0 0.01 -0.01 0c0,0 0,0.01 0,0.01 0,0 0,0 0,0 0,0.01 0,0.01 -0.01,0.01 0,0 0,0.01 0,0.01 0.01,0 0.01,0 0.01,0 0.01,0 0.01,0 0.01,0 0,0 0.01,0 0.01,0 0,0 0,0 0,0l0.01 0 0.01 0 0 0 0.01 0 0.01 0 0 0 0.01 0 0 0c0,0 0.01,0 0.02,0l0 0c0,0 0,0 0.01,0l0 0c0,0 0,0 0,0 0.01,0 0.01,0 0.01,0l0.01 0 0.02 0 0 0c0,0 0,0 0,0 0.02,0 0.03,0.01 0.05,0.01l0.01 0c0,0 0,0 0,0 0,0 0.01,0 0.01,0 0.01,0 0.02,0.01 0.03,0.01 0,0 0,0 0,0 0,0 0.01,0.01 0.01,0.01 0,0 0,0 0.01,0 0,0.01 0,0.01 0,0.02 0,0.01 0,0.02 0,0.02 -0.01,0.01 -0.01,0.01 -0.01,0.01 -0.01,0 -0.02,0 -0.04,-0.01 0,0 0,-0.01 -0.01,-0.01 0,0 0,0 0,-0.01l0 0 -0.01 0c0,0 -0.01,0 -0.01,0l0 0c-0.01,0 -0.01,0 -0.01,-0.01 -0.01,0 -0.01,0 -0.01,0 0,0 0,0 -0.01,0 0,0 0,0 -0.01,0l-0.01 0 0 0c0,-0.01 0,-0.01 0,-0.01l-0.01 0 0 0 -0.01 0 0 0 0 0 -0.01 0 -0.01 0 0 0c-0.01,0 -0.02,0 -0.02,0l0 0c-0.01,-0.01 -0.01,-0.01 -0.01,-0.01l-0.02 0.01 -0.01 0 0 0 -0.01 -0.01c0,0.01 0,0.01 0,0.01 -0.01,0 -0.01,0 -0.02,0l-0.01 0 -0.01 0 0 0.01c-0.01,0 -0.01,0.01 -0.02,0.01 0,0 0,0 0,0 0,0.01 0,0.01 -0.01,0.01 0,0 0,0.01 0,0.01 0,0 -0.01,0 -0.01,0 0,0 0,0.01 0,0.01 -0.01,0.01 -0.01,0.01 -0.02,0.01l0 0c0,0 0,0 0,0 0,0 0,0 0,0.01 0,0 0,0 -0.01,0 0,0 0,0 0,0.01 -0.01,0 -0.01,0 -0.02,0l0 0c0,0 0,0 -0.01,0l-0.02 0.01 0 0 -0.01 0c0,0 0,0 0,0l-0.01 0c0,0 0,0 0,0l-0.01 0c0,0 0,0 -0.01,0 0,0 -0.01,0 -0.01,0 0,0 0,-0.01 0,-0.01l-0.01 0c0,0 0,0 -0.01,0 0,0 0,0 -0.01,-0.01 -0.01,-0.01 -0.01,-0.01 -0.01,-0.02 0,0 0,0 0,0 0,-0.01 0.01,-0.01 0.01,-0.01 0.01,0 0.01,0 0.02,-0.01l0.01 -0.01zm0.35 -0.36l0.01 -0.01c0.01,0 0.01,-0.01 0.02,-0.02 0.01,-0.01 0.01,-0.02 0.01,-0.03 0,0 0,-0.01 0,-0.01 -0.01,0.01 -0.01,0.01 -0.01,0.01 -0.01,0 -0.01,0.01 -0.02,0.02 -0.01,0.01 -0.01,0.02 -0.01,0.02 0,0 -0.01,0.01 -0.01,0.01 0,0.01 0,0.01 0,0.02 -0.01,0 -0.01,0 -0.01,0 0,0.01 0,0.01 0,0.01 0,0 0,0 0,0 0.01,-0.01 0.02,-0.02 0.02,-0.02 0,0 0,0 0,0zm-0.35 0.38l-0.02 0.01c0,0 0,0 0,0 0,0 0,0.01 0,0.01 0.01,0 0.01,0 0.01,0 0,0 0.01,0 0.01,0l0.01 0.01 0.01 -0.01 0 0.01c0,0 0.01,-0.01 0.01,-0.01 0,0 0,0 0,0l0.01 0c0,0 0.01,0 0.01,0 0,-0.01 0,-0.01 0.01,-0.01 0,0 0,-0.01 0.01,-0.01 0,0 0,-0.01 0,-0.01l0 0c-0.01,0 -0.01,0 -0.02,0l-0.02 0.01c-0.02,0 -0.03,0 -0.03,0z"/>
  <path class="fil1" d="M0.56 0.3l0.01 0c0,0 0,0 0,-0.01 0,0 0,0 0.01,0 0,-0.01 0.01,-0.01 0.01,-0.01 0,-0.01 0.01,-0.01 0.01,-0.01 0,0 0,0 0.01,0 0,0 0,0.01 0,0.01 0,0 0,0.01 -0.01,0.02l0 0.01 0 0c-0.01,0 -0.01,0.01 -0.01,0.01 0,0 0,0 -0.01,0.01l0 0c0,0 -0.01,0 -0.01,0.01 0,0 0,0 -0.01,0 0,0 0,0.01 -0.01,0.01 0,0 0,0 0,0l0 0.01c-0.01,0 -0.01,0 -0.01,0 -0.01,0 -0.01,0 -0.02,0.01 0,0 0,0 0,0 0,0 -0.01,0 -0.01,-0.01 0,0 -0.01,0 -0.01,0 0,0 0,0 0,0 0,0 -0.01,-0.01 -0.01,-0.01 0,0 0,-0.01 0,-0.01l0 -0.01c0,0 0,0 0,0 0,0 0,0 0,0 0,0 0,0 0,0 0,0 0,-0.01 0,-0.01 0,0 0,0 0,0 0,0 0,0 0,0l0 -0.02c0,0 0,0 0,0 0,0 0,0 -0.01,0 0,0 0,0.01 0,0.01 -0.01,0 -0.01,0 -0.01,0 0,0.01 0,0.01 -0.01,0.01l0 0c0,0 0,0 0,0.01 0,0 -0.01,0 -0.01,0l0 0 -0.01 0c0,0 0,0 0,0.01 0,0 -0.01,0 -0.01,0.01l-0.02 0.02c-0.01,0 -0.01,0 -0.02,0l0 0c-0.01,0.02 -0.03,0.02 -0.03,0.02 -0.01,0 -0.02,0 -0.03,0 0,-0.01 -0.01,-0.01 -0.01,-0.01l0 -0.02c0,0 0,-0.01 0,-0.01 0,0 0,-0.01 0,-0.01l0 0 0 -0.01c0,0 0,0 0,0l0 -0.01c0,0 0,-0.01 0.01,-0.01 0,-0.01 0,-0.01 0,-0.01l0.01 -0.01c0,0 0,0 0,-0.01 0.01,0 0.01,0 0.01,0 0,-0.01 0.01,-0.01 0.01,-0.01l0.01 -0.01c0.01,-0.01 0.02,-0.02 0.03,-0.02 0,0 0,-0.01 0,-0.01 0.01,0 0.01,-0.01 0.02,-0.01 0,0 0.01,0 0.01,-0.01 0.01,0 0.01,0 0.02,0l0 0c0,0 0,0 0.02,-0.01l0 0c0,0 0,0 0,0.01l0 0 0.01 -0.01c0,0 0,0 0,0 0.02,0 0.02,0.01 0.03,0.03 0,0 0,0.01 0,0.01 0,0 0,-0.01 0.01,-0.02 0,0 0.01,-0.01 0.02,-0.01 0.01,0 0.02,0.01 0.02,0.02 0,0.01 -0.01,0.03 -0.02,0.04 0,0 0,0 0,0.01l-0.01 0.01 0 0c0,0 0,0 0,0.01 0,0 0,0 0,0l0 0.01 0 0.01c0,0 0,0.01 0,0.01 0.01,0 0.01,-0.01 0.01,-0.01 0.01,-0.01 0.01,-0.01 0.01,-0.01l0 0c0.01,0 0.01,-0.01 0.01,-0.01zm-0.11 0c0,0 0,-0.01 0.01,-0.01 0,0 0.01,0 0.01,-0.01 0,0 0.01,0 0.02,-0.01 0,-0.01 0.01,-0.02 0.01,-0.02 0,0 0,0 0,0l0 0 -0.01 0 0 0 -0.01 0 0 0 -0.01 0 -0.01 0c0,0 0,0 0,0 -0.01,0 -0.01,0.01 -0.02,0.01 -0.01,0 -0.01,0 -0.02,0.01 0,0 -0.01,0 -0.01,0 0,0.01 -0.01,0.01 -0.02,0.02 0,0 0,0 -0.01,0.01 0,0 0,0.01 0,0.01l-0.01 0c0,0 0,0.01 0,0.01 -0.01,0 -0.01,0 -0.01,0 0,0.01 0,0.01 0,0.01 -0.01,0.01 -0.01,0.01 -0.01,0.01 0,0.01 0.01,0.02 0.01,0.02 0,0 0.01,-0.01 0.01,-0.01 0.01,0 0.01,0 0.01,0 0,0 0,0 0.01,0l0 -0.01c0,0 0,0 0.01,0 0,0 0,0 0,0 0,0 0,0 0,-0.01 0.01,0 0.01,0 0.01,0 0,0 0.01,-0.01 0.02,-0.01l0.01 -0.01c0,0 0,0 0,0 0.01,0 0.01,-0.01 0.01,-0.01z"/>
  <path class="fil1" d="M0.63 0.24l0 -0.01c0.01,0 0.01,-0.01 0.01,-0.01 0,0 0,0 0.01,-0.01 0,-0.01 0,-0.02 0,-0.02 0.01,0 0.01,-0.01 0.02,-0.01 0,0 0.01,0.01 0.01,0.01 0.01,0 0.01,0.01 0.02,0.03 0,0.01 0,0.02 0,0.03 0,0 0,0.01 0.01,0.01 0,0.01 0,0.01 0,0.01 0,0 0,0.01 0,0.01l0 0.01 -0.01 0.01 0 0.01c0,0 0,0.01 0,0.01 0,0 0,0 0,0 0.01,0 0.02,-0.01 0.02,-0.01 0,0 0,0 0.01,0 0,-0.01 0,-0.01 0.01,-0.01l0 -0.01c0,0 0.01,0 0.01,0 0,-0.01 0,-0.01 0,-0.01 0.01,0 0.01,0 0.01,0 0,0 0.01,-0.01 0.01,-0.01l0.01 0c0,-0.01 0,-0.01 0.01,-0.01 0,-0.01 0.01,-0.01 0.01,-0.01 0,0 0,0.01 0,0.01 0,0 0,0.01 0,0.01 0,0.01 0,0.01 0,0.01 -0.01,0.01 -0.01,0.01 -0.01,0.01 0,0 -0.01,0 -0.01,0.01 0,0 -0.01,0 -0.01,0.01l-0.01 0 0 0.01c0,0 -0.01,0 -0.01,0 0,0 0,0 0,0 0,0.01 -0.01,0.01 -0.01,0.01 -0.01,0 -0.01,0.01 -0.01,0.01l-0.01 0c0,0.01 0,0.01 0,0.01 -0.01,0 -0.01,0 -0.01,0.01 0,0 0,0 -0.01,0l0 0c0,0 -0.01,0 -0.01,0l-0.01 0.01 0 0c0,0 0,0 -0.01,0.01 -0.01,0 -0.01,0 -0.01,0l-0.01 0.01c0,0 -0.01,0 -0.01,0l0 0c-0.01,0 -0.01,0.01 -0.02,0.01 -0.01,0 -0.01,0.01 -0.01,0.01 -0.02,0 -0.03,0 -0.03,-0.01 -0.01,0 -0.01,-0.01 -0.01,-0.01 -0.01,0 -0.01,-0.01 -0.01,-0.01 0,0 0,-0.01 0,-0.01 0,0 0,0 0,0 0,0 0,-0.01 0.01,-0.01 0,-0.01 0,-0.01 0.01,-0.01 0,0 0.01,0 0.01,0 0,0 0,-0.01 0,-0.01 0.01,0 0.01,0.01 0.01,0.01 0,0 0,0 0,0l0.01 0c0,0 0,0 0,0 0.01,0 0.02,0 0.02,0l0 -0.01 0.01 0c0,0 0,0 0,0l0 -0.01 0.02 -0.02 0 0c0,0 0,0 0,-0.01l0 0c0,0 0,0 0,-0.01 0,0 0.01,0 0.01,0l-0.01 0c0,0 0,-0.01 0,-0.01l0.01 0 -0.01 -0.01 0.01 0c0,-0.01 -0.01,-0.01 -0.01,-0.01l0.01 -0.01c0,0 0,0 -0.01,0 0,-0.01 0,-0.01 0,-0.01 0,0 0,0 -0.01,0.01 -0.01,0.01 -0.01,0.01 -0.01,0.02 0,0 -0.01,0 -0.01,0 -0.01,0.01 -0.01,0.01 -0.01,0.01 0,0 0,0.01 -0.01,0.01l-0.02 0.01 -0.02 0.02c0,0 -0.01,0 -0.01,0 0,0 -0.01,0 -0.01,-0.01 0,0 0,-0.01 0.01,-0.01 0,-0.01 0,-0.01 0,-0.01 0,0 0,0 0,0 0,0 0,0 0,0l0 0 0 0c0.01,0 0.02,-0.01 0.02,-0.01 0,0 0,0 0.01,0l0.01 -0.01c0,-0.01 0.01,-0.01 0.02,-0.02 0,0 0.01,-0.01 0.01,-0.01z"/>
  <path class="fil1" d="M0.7 0.33l0 0c0.01,0 0.01,-0.01 0.02,-0.01 0,0 0,-0.01 0.02,-0.02 0.01,-0.01 0.01,-0.02 0.02,-0.02 0,-0.01 0.01,-0.02 0.01,-0.03 0,0 0,0 0,0l0.01 -0.01 0 0 0 0 0 -0.01c0,0 0.01,-0.01 0.02,-0.03 0.01,-0.02 0.01,-0.03 0.01,-0.03 0,0 0.01,-0.01 0.01,-0.01 0,-0.01 0,-0.01 0.01,-0.03 0,-0.01 0.01,-0.02 0.02,-0.03 0,0 0,-0.01 0,-0.01 0.01,-0.01 0.01,-0.01 0.01,-0.02l0.01 0c0,-0.01 0,-0.01 0.01,-0.02 0,0 0,-0.01 0.01,-0.01 0,-0.01 0,-0.01 0,-0.01 0.01,-0.01 0.01,-0.01 0.01,-0.01 0,-0.01 0,-0.01 0.01,-0.01 0,-0.01 0,-0.01 0.01,-0.01 0.01,0 0.01,0 0.02,0.01 0,0.01 0.01,0.02 0.01,0.02 0,0 -0.01,0.01 -0.01,0.02l0 0.03c-0.01,0.01 -0.01,0.01 -0.01,0.01 0,0.02 -0.01,0.03 -0.02,0.04 0,0.01 0,0.01 0,0.01 0,0.01 0,0.01 -0.01,0.02 0,0 0,0.01 -0.01,0.02l-0.03 0.05 0 0c-0.01,0 -0.01,0 -0.01,0.01l-0.01 -0.01c0,0 -0.01,0.01 -0.01,0.01 0,0 0,0 0,0.01l0 0c0,0 0,0.01 -0.02,0.04 0,0 -0.01,0 -0.01,0.01l0 0.01c-0.01,0.01 -0.01,0.02 -0.01,0.02 -0.01,0.01 -0.01,0.02 -0.01,0.02 -0.01,0.01 -0.01,0.02 -0.01,0.02 0,0 0,0 0,0 0,0 0.01,0 0.01,-0.01 0.01,-0.01 0.01,-0.01 0.02,-0.02 0,0 0,0 0.01,-0.01l0 0c0,0 0,0 0.01,0l0 0c0,0 0,-0.01 0,-0.01 0,0 0,0 0.01,0 0,0 0.01,-0.01 0.01,-0.01 0,0 0,-0.01 0,-0.01 0.01,0 0.01,0 0.01,0 0,-0.01 0.01,-0.01 0.02,-0.01 0,-0.01 0.01,-0.01 0.01,-0.01 0,0 0.01,-0.01 0.02,-0.01 0.01,0 0.01,0 0.01,0l0.01 0 0 0 0.01 0c0,0 0.01,0 0.02,0 0.01,0.01 0.01,0.02 0.01,0.03l0 0.02 0 0.02c0,0 -0.01,0.01 -0.01,0.02 0,0.01 -0.01,0.01 -0.01,0.02l0 0 0 0.01 0 0.01c0,0 0,0 0.01,0 0,0 0,0 0.01,0 0,0 0,0 0,-0.01 0.01,0 0.01,0 0.01,-0.01 0,0 0.01,0 0.01,0 0,0 0.01,0 0.01,-0.01 0,0 0.01,-0.01 0.02,-0.01 0.01,-0.01 0.01,-0.02 0.02,-0.02l0 0c0.01,-0.01 0.01,-0.01 0.02,-0.01 0,0 0,0 0,0 0,0.01 0,0.01 0,0.01 0,0.01 0,0.01 0,0.01 0,0.01 -0.01,0.01 -0.01,0.02l0 0.01c0,0 -0.01,0 -0.01,0 0,0 0,0.01 -0.01,0.01 0,0 -0.01,0.01 -0.01,0.01 -0.01,0.01 -0.01,0.01 -0.01,0.01l-0.01 0c-0.01,0 -0.01,0.01 -0.01,0.01 -0.01,0.01 -0.01,0.01 -0.01,0.01l-0.01 0c0,0 0,0 0,0.01 0,0 0,0 -0.01,0.01 0,0 -0.01,0 -0.01,0 0,0.01 -0.01,0.01 -0.02,0.01 0,0 0,0 0,-0.01 0,0 -0.01,0 -0.01,0 -0.01,0 -0.01,-0.01 -0.01,-0.01 0,0 0,-0.01 0,-0.01 -0.01,0 -0.01,-0.01 -0.01,-0.01l0 0 0 -0.01 0 -0.01c0,0 0,0 0,-0.01l0.01 -0.02c0,-0.01 0,-0.03 0,-0.03 0,0 0,0 0,-0.01l0 0 0 -0.01c0,0 0,-0.01 0,-0.01 0,0 0,0 0,0 -0.01,0 -0.01,0 -0.01,0 0,0 0,0 -0.01,0 0,0.01 0,0.01 0,0.01l-0.01 0 0 0c0,0 0,0.01 -0.01,0.01 -0.01,0.01 -0.01,0.01 -0.02,0.01 0,0 0,0.01 -0.01,0.01 0,0 -0.01,0.01 -0.01,0.01l0 0 -0.01 0c0,0.01 0,0.01 -0.01,0.01l0 0.01c-0.01,0 -0.01,0 -0.01,0.01 -0.01,0 -0.01,0.01 -0.01,0.01 0,0 0,0 0,0 0,0 0,-0.01 0,-0.01 -0.01,0 -0.01,0.01 -0.01,0.02 0,0 -0.01,0 -0.02,0.02 -0.01,0.01 -0.01,0.01 -0.02,0.01 0,0 0,0 0,0.01 0,0 -0.01,0.01 -0.01,0.01 0,0 -0.01,0.01 -0.01,0.01 0,0 0,0 0,0 -0.01,0 -0.01,0 -0.01,-0.01 -0.01,-0.01 -0.01,-0.01 -0.01,-0.01l0 -0.01 0 -0.01c0,0 0,0 0.01,-0.01 0,-0.01 0,-0.02 0.01,-0.03 0,0 0,-0.01 0.01,-0.03 -0.01,0.01 -0.02,0.02 -0.02,0.02 -0.01,0 -0.01,-0.01 -0.01,-0.01 0,-0.02 0,-0.03 0.01,-0.04z"/>
  <path class="fil2" d="M1.07 0.42l0.01 0c0,0 0,0.01 0,0.01 0,0 0,0 0,0 0,0 0,0.01 0,0.01 -0.01,0.01 -0.01,0.01 -0.02,0.01 0,0 -0.01,0 -0.01,-0.01 0,0 -0.01,0 -0.01,0 0,-0.01 0,-0.01 0,-0.01 0,0 0,0 0,0 0,0 0,-0.01 0,-0.01 0,0 0,0 0,0 0,-0.01 0,-0.01 0.01,-0.01 0,0 0,0 0,0 0,0 0,-0.01 0.01,-0.01 0,0 0,0.01 0,0.01 0,0 0,0 0,0 0.01,0 0.01,0 0.01,0.01l0 0z"/>
  <path class="fil3" d="M1.13 0.37l-0.01 0c0,0 0,0.01 0,0.01 0,0 0,0 0,0 -0.01,0 -0.01,0 -0.01,0l-0.01 0c0,0 0,0 0,0 -0.01,0 -0.01,-0.01 -0.01,-0.01 0,0 0,0 0,-0.01 -0.01,0 -0.01,-0.01 -0.01,-0.01 0,0 0,0 0.01,-0.01 0,0 0,0 -0.01,0 0,0 0,0 0,0 0,-0.01 0,-0.01 0.01,-0.02 0,0 0,0 0,0 0,0 0,-0.01 0,-0.01 0,0 0,0 0,0 0,0 0,0 0,0l0 -0.01c0,0 0,0 0,0 0,0 0,0 0,0l0 0 0 0c0,-0.01 0,-0.01 0,-0.01 0.01,0 0.01,0 0.01,-0.01 0,0 0,0 0,0 0,0 0,0 0,-0.01l0 0 0 -0.01c0.01,0 0.01,0 0.01,0 0,0 0,0 0,0l0 0c0,0 0,-0.01 0,-0.01 0,0 0,0 0,0 0,0 0.01,-0.01 0.01,-0.01 0,0 0,0 0,0 0,0 0,-0.01 0,-0.01 0,0 0.01,0 0.01,0 0,0 0,0 0,0 0,0 0,0 0,-0.01l0 0c0,0 0,0 0,0l0 0c0,-0.01 0.01,-0.01 0.01,-0.01 0,0 0,0 0,-0.01 0.01,0 0.01,0 0.01,-0.01 0,0 0,0 0.01,0l0 -0.01c0,0 0,0 0.01,0 0,-0.01 0,-0.01 0,-0.01 0,0 0.01,0 0.01,0 0,-0.01 0,-0.01 0,-0.01 0.01,0 0.01,0 0.01,0.01 0,0 0.01,0 0.01,0.01 0,0 -0.01,0 -0.01,0 0,0 0,0 0,0 0,0.01 0,0.01 0,0.02 0,0 0,0.01 0,0.01l-0.01 0.01c0,0 0,0 0,0 0,0 0,0 0,0l0 0 0 0c0,0 0,0.01 0,0.01 0,0 -0.01,0.01 -0.01,0.01 0,0 0,0 0,0l0 0.01c0,0 0,0 -0.01,0 0,0 0,0.01 0,0.01 0,0 0,0 0,0 0,0 0,0 0,0 0,0.01 0,0.01 0,0.01l-0.01 0 0 0 0 0c0,0 0,0 0,0 0,0 0,0.01 0,0.01 0,0 0,0 0,0 -0.01,0 -0.01,0 -0.01,0l0 0.01c0,0 0,0 0,0 0,0 0,0 0,0l0 0c0,0 0,0 0,0.01 0,0 -0.01,0 -0.01,0 0,0.01 -0.01,0.02 -0.01,0.02 0,0 0,0 0,0 0,0 0,0 0,0 -0.01,0 -0.01,0 -0.01,0l0 0c0,0 0,0.01 0,0.01 -0.01,0 -0.01,0 -0.01,0l0.01 0 0 0c0,0.01 0,0.01 -0.01,0.01l0 0 0 0.01 0 0 0 0.01c0.01,0 0.01,0 0.01,0 0,0.01 0,0.01 0,0.01 0,0 0,0 0,-0.01l0 0c0.01,0 0.01,0 0.01,0 0,-0.01 0,-0.01 0,-0.01 0,0 0,0 0,0 -0.01,0 -0.01,-0.01 -0.01,-0.01 0,0 0,-0.01 0.01,-0.01 0,0 0,0 0,0 0,-0.01 0,-0.01 0.01,-0.01l0.01 0c0,0 0,0 0,0 0,0 0,0 0,0 0.01,0 0.01,0 0.01,0 0,0 0,0 0,0 0,0.01 0.01,0.01 0.01,0.01 0,0 0,-0.01 0.01,-0.01 0,0 0,0 0.01,0 0,0 0,-0.01 0,-0.01 0,0 0.01,0 0.01,0l0 0c0,0 0,0 0,0 0,0 0,0 0.01,0 0,0 0,0 0,0 0,0 0,0.01 0,0.01 -0.01,0 -0.01,0 -0.01,0l0 0.01c0,0 0,0 -0.01,0 0,0 0,0 0,0 0,0 0,0.01 0,0.01 0,0 -0.01,0 -0.01,0 0,-0.01 0,-0.01 0,-0.01 0,0 0,0.01 0,0.01 0,0 0,0 0,0 -0.01,0 -0.01,0 -0.01,0 0,0 0,0 0,0 0,0 0,0 0,0 0,0.01 0,0.01 0,0.01l-0.01 0 0 0c-0.01,0 -0.01,0 -0.01,0.01 0,0 0,0 -0.01,0 0,0.01 0,0.01 0,0.01l0 0zm0.05 -0.19l0 0c0,0 0,0.01 0,0.01l-0.01 0c0,0 0,0 0,0.01 0,0 0,0 -0.01,0l0 0.01 0 0 0 0c0,0 0,0.01 0,0.01 -0.01,0 -0.01,0 -0.01,0 0,0 0,0 0,0.01 0,0 0,0 0,0 0,0 -0.01,0.01 -0.01,0.01l0 0c0,0 0,0 0,0l-0.01 0.01c0,0 0,0 0,0.01 0,0 0,0 0,0l0 0c0,0 0,0.01 0,0.01 -0.01,0 -0.01,0.01 -0.01,0.01l0 0.01c0,0 -0.01,0 -0.01,0l0 0c0,0 0,0 0,0.01 0,0 0,0 0,0l0 0c0,0 0,0 0,0 0,0 0.01,0 0.01,0 0,0 0,0 0,-0.01 0,0 0,0 0,0 0,0 0,0 0,0l0.01 -0.02c0.01,0 0.01,0 0.01,0 0,0 0,0 0,0l0 0c0,-0.01 0,-0.01 0,-0.01 0.01,0 0.01,0 0.01,0 0,0 0,0 0,0 0,-0.01 0,-0.01 0,-0.01l0 0c0,0 0,0 0,0 0,0 0.01,0 0.01,-0.01 0,0 0,0 0,0 0,0 0,0 0,-0.01 0.01,0 0.01,0 0.01,-0.01 0,0 0,0 0,0 0,0 0,-0.01 0,-0.01l0.01 0 0 -0.02 0 0 0 -0.01z"/>
  <path class="fil3" d="M1.29 0.34l0 0 0 0 0 0c0,0 0,0 0,0.01 0,0 0,0 0,0l0 0.01c0,0 0,0 0,0 -0.01,0 -0.01,0 -0.01,0.01 0,0 0,0 0,0l0 0.01c0,0 0,0 0,0 0,0 0,0 0,0 0,0 0,0 0,0 0,0 0,0 0,0 0,0 0,0 0,0 0,0 0,0 0,0 0.01,0 0.01,0 0.01,0l0 0c0.01,0 0.01,0 0.01,0l0.01 0c0,0 0.01,0 0.01,0 0,0 0.01,0.01 0.01,0.01 0,0 0,0 0,0.01 0,0 0,0.01 -0.01,0.01 0,0 0,-0.01 0,-0.01 0,0 -0.01,0 -0.01,-0.01 0,0 0,0 0,0l-0.01 0 0 0 0 0c0,0 0,0 0,0l0 0 -0.01 0 0 0 -0.01 0c0,0 0,0 0,0 0,0 0,0 -0.01,0 0,0 0,0 0,0.01 0,0 0,0 0,0 0,0.01 0,0.01 0,0.01 0,0 -0.01,0 -0.01,0 0,0 0,0 0,0.01l0 0c0,0 0,0 0,0 0,0 0,0 0,0l0 0c0,0.01 0,0.01 -0.01,0.01l0 0c0,0 0,0.01 0,0.01l0 0c0,0 0,0 0,0 0,0.01 0,0.01 0,0.01 0,0 -0.01,0 -0.01,0l0 0 0 0.01c0,0 0,0 0,0 0,0 0,0 0,0 0,0 0,0 0,0l-0.01 0.01c0,0.01 0,0.01 0,0.01l0 0c0,0 0,0 0,0 0,0 -0.01,0.01 -0.01,0.01 0,0 0,0 0,0 0,0.01 0,0.01 0,0.01 0,0 0,0 0,0 -0.01,0 -0.01,0 -0.01,0l0 0.01c0,0 0,0 0,0 0,0 0,0 0,0l0 0 0 0c0,0 -0.01,0 -0.01,0 0,0.01 0,0.01 0,0.01 0,0 0,0 0,0l-0.01 0 0 0c-0.01,0 -0.01,0 -0.01,0 -0.01,0 -0.01,-0.01 -0.01,-0.01 0,0 0,-0.01 0,-0.01 0,0 0,0 0,0l0 0 0 -0.01c0,0 0,0 0,0 0,-0.01 0,-0.01 0,-0.01 0,0 0.01,0 0.01,-0.01 0,0 0,0 0,0l0.02 -0.03c0,0 0,0 0,0l0 0c0,0 0,0 0,0 0,0 0,0 0,0 0,0 0,-0.01 0,-0.01 0.01,0 0.01,0 0.01,0 0,0 0,0 0,-0.01l0 0c0,0 0,0 0,0 0.01,0 0.01,0 0.01,0l0 -0.01c0,0 0,0 0,0 0.01,0 0.01,0 0.01,0l0 0 0 0 0 0c0,0 0,-0.01 0,-0.01 0.01,0 0.01,0 0.01,0 0,0 0,0 0,0 0,0 0,0 0.01,0l0 -0.01c0,0 0,0 0,0l0 0 0.01 0 0 0 -0.01 -0.01c0.01,0 0.01,0 0.01,0 0,0 0,0 0,-0.01 0,0 0,0 0,0l0 0 0 0 0 0 0 0 0 0c0,-0.01 0,-0.01 0,-0.01 0,0 0,0 0.01,0l0 -0.02c0,0 0,0 0,-0.01l0 0c0.01,0 0.01,0 0.01,-0.01 0,0 0,0 0,0 0,0 -0.01,0 -0.01,0.01 0,0 0,0 0,0l0 0 0 0c0,0 -0.01,0 -0.01,0 0,0 0,0 0,0l0 0c0,0 0,0 0,0l-0.01 0.01 0 0 0 -0.01c0,0 0,0 0,0 0,0 0,0.01 0,0.01l-0.01 0c0,0 0,0 0,0 0,0 0,0 0,0 0,0.01 0,0.01 -0.01,0.01 0,0 0,0 0,0l-0.01 0.01c0,0 0,0 0,0 -0.01,0 -0.01,0 -0.01,0l-0.01 0c0,0 0,0 0,0 0,0 0,0 0,0l0 0 0 0 -0.01 0.01c0,0 0,-0.01 -0.01,-0.01 0,0 0,0 0,0l0 -0.01c0,0 0,0 0,0 0,0 0,-0.01 0,-0.01 0,0 0,0 0,0l0 0c0,0 0,-0.01 0,-0.01l0 0c0,0 0,0 0,0 0,0 0,0 0,0 0,0 0,0 0,0 -0.01,0.01 -0.01,0.01 -0.01,0.01 0,0 0,0 0,0 0,0 0,0 0,0 0,0 0,0 0,0 0,-0.01 0,-0.01 0,-0.01 -0.01,0 -0.01,0 -0.01,0 0,0 0.01,0 0.01,-0.01l0 0c0.01,0 0.01,-0.01 0.01,-0.01l0 0c0,0 0,0 0.01,0 0,-0.01 0,-0.01 0,-0.01l0.01 -0.01c0,0 0.01,0 0.01,0 0.01,0 0.01,0 0.01,0.01 0,0 0,0.01 0,0.01 -0.01,0 -0.01,0 -0.01,0 0,0.01 0,0.01 0,0.01 0,0.01 -0.01,0.01 -0.01,0.01 0,0 0,0 0,0.01 0,0 0,0 0,0 0,0.01 0,0.01 0,0.01 0,0 0,-0.01 0.01,-0.01l0 0c0,0 0,0 0,0l0.01 0c0,0 0,0 0,0l0 -0.01c0,0 0.01,0 0.01,0 0,0 0,0 0,0 0,0 0,0 0,0 0.01,0 0.01,-0.01 0.01,-0.01 0,0 0,0 0.01,0 0,-0.01 0.01,-0.01 0.01,-0.01 0.01,-0.01 0.01,-0.01 0.01,-0.01 0,0 0,0 0.01,0 0,0 0,0 0,0 0,-0.01 0.01,-0.01 0.01,-0.01 0,0 0.01,0 0.01,0.01 0,0 0,0 0,0l0 0.01c0,0.01 0,0.01 0,0.01 0,0.01 0,0.01 0,0.01l0 0.01c0,0 -0.01,0 -0.01,0zm-0.08 0.12l0.01 0c0,0 0,0 0,0 0,-0.01 0,-0.01 0,-0.01 0,0 0,0 0,0l0 -0.01 0.01 -0.01c0,0 0,0 0,0 0,0 0,0 0.01,-0.01 0,0 0,0 0,0l0 -0.01c0,0 0,0 0,0 0,0 0,0 0,0l-0.01 0.01c0,0 -0.01,0.01 -0.01,0.01l0 0c0,0 0,0 -0.01,0.01 0,0 0,0 0,0 0,0 0,0 0,0l0 0c0,0 0,0 0,0 -0.01,0 -0.01,0 -0.01,0l0.01 0.01c0,0 -0.01,0 -0.01,0 0,0 0,0 0,0 0,0 0,0.01 0,0.01 0,0 0,0 0,0l-0.01 0c0,0.01 0,0.01 0,0.02 0,0 0,0 -0.01,0 0,0.01 0,0.01 0,0.01 0,0 0,0 0,0 0,0 0,0 0,0.01 0,0 0,0 0,0l0 0c0,0 0,0.01 0,0.01 0,0 0,0 0,0l0 0c0.01,-0.01 0.01,-0.01 0.01,-0.01l0 -0.01c0,0 0.01,0 0.01,0 0,0 0,0 0,0 0,0 0,0 0,0 0,-0.01 0,-0.01 0.01,-0.02 0,0 0,-0.01 0,-0.01z"/>
  <g>
   <path class="fil4" d="M1.06 0.04l0.01 0 0 0 0 0 0 0 0 0 0 0 0 0 0 0 0 0 0 0 0 0 0 0 0 0 0 0 0 0 0 0 0 0 0 0 0 0 0 0 0 0 0 0 0 0 0 0 0 0 0 0 0 0 0 0 0 0 0 0 0 0 0 0 0 0 0 0 -0.01 0 0 0 0 0 0 0 0 0 0 0 0 0 0 0 0 0 0 0 0 0 0 0 0 0 0 0 0 0 0 0 0 0 0 0 0 0 0 0 0 0 0 0 0 0 0 0 0 0 0 0 0 0 0 0 0 0 0 0 0 0 0 0 0 0 0 0zm0 0c0,-0.01 0,-0.01 0,-0.01 0.01,0 0.01,0 0.01,0.01l-0.01 0zm-0.01 -0.01l0 -0.01 0 0 0 0 0 0 0 0 0 0 0 0 0 0 0.01 0 0 0 0 0 0 0 0 0 0 0 0 0 0 0 0 0 0 0 0 0 0 0 0 0.01 0.01 0 0 0 0 0 0 0 0 0 0 0 0 0 0 0 0 0 0 0 0 0 0 0.01 0 0 -0.01 0 0 0 0 0 0 -0.01 0 0 0 0 0 0 0 0 0 0 0 0 0 0 0 0 0 0 0 0 0 0 0 0 0 0 0 0 0 0 0 0 0 0 -0.01 0 0 0 0 0 0 0 0 0 0 0 0 0 0 0 0 0 0 0 0 0 0 0 0 0zm0 0c0,0 -0.01,0 -0.01,-0.01 0,0 0.01,0 0.01,0l0 0.01zm-0.02 0.02l-0.01 0 0 0 0 -0.01 0 0 0 0 0 0 0 0 0 0 0 0 0 -0.01 0 0 0 0 0 0 0.01 0 0 0 0 0 0 0 0 0 0 0 0 -0.01 0 0 0 0 0 0 0.01 0 0 0 0 0 0 0 0 0 0 0 0 0 0 0 0.01 0 0 0 0 0 0 0.01 0 0 0 0 0 0 0 0 -0.01 0 0 0 0 0 0 0 0 0 0 0 0 0 0 0 0 0 0 0 0 0 0 0 0 0 0 0.01 -0.01 0 0 0 0 0 0 0 0 0 0 0 0 0 0 0 0 0 0 0 0 0 0 0 0 0 0 0.01 0 0zm0 0c0,0 0,0 0,0 -0.01,0 -0.01,0 -0.01,0l0.01 0zm0.01 0l0 0.01 0 0 0 0 0 0 -0.01 0 0 0 0 0 0 0 0 0 0 0 0 0 0 0 0 0 0 0 0 0 0 0 0 0 0 0 0 0 -0.01 0 0 0 0 0 0 -0.01 0 0 0 0 0 0 0 0 0 0 0 0 0 0 0 0 0 0 0 0 0 0 0.01 0 0 0 0 0 0 0 0 0 0 0 0 0 0 0 0 0 0 0 0 0 0 0 0 0 0 0 0 0 0 0 0 0 0 0 0 0 0 0 0 0 0 0 0.01 0 0 0 0 0 0 0 0 0 0 0 0 0 0 0 0 0 0 0 0 0 0 0zm0 0c0,0 0,0.01 0,0.01 0,0 0,0 0,0l0 -0.01zm0.02 0.02l-0.01 0 0 0 0 0 0 0 0 0 0 0 0 0 0 0 0 0 0 0 0 0 0 0 0 0 0 0 0 0 0 0 -0.01 0 0 0 0 0 0 0 0 0 0 0 0 0 0 0 0 0 0 0 0 -0.01 0 0 0 0 0 0 0 0 0 0 0 0 0 0 0 -0.01 0 0 0 0 0 0 0 0 0 0 0 0 0 0 0.01 0.01 0 0 0 0 0 0 0 0 0 0 0 0 0 0 0 0 0 0 0 0 0 0 0 0 0 0 0 0 0 0 0 0 0.01 0 0 0 0 0 0 0.01 0 0 0 0 0 0 0 0 0 0zm0 0c0,0 -0.01,0 -0.01,0 0,0 0,0 0,0l0.01 0zm-0.03 0.02l0 -0.01 0 0 0 0 0.01 0 0 0 0 0 0 0 0 0 0 0 0 0 0 0 0 0 0 0 0 0 0 0 0 0 0 0 0 0 0 0 0 0 0 0 0 -0.01 0 0 0 0 0 0 0.01 0 0 0 0 0 0 0 0 0 0 0 0 0 0 0 0 0 0.01 0 0 0 0 0 0 0 0 0 0 0 0 0.01 0 0 -0.01 0 0 0 0 0 0 0 0 0 0 0 0 0 0 0 0 0 0 0.01 0 0 0 0 0 0 0 0 -0.01 0 0 0 0 0 0 0 0 0 0 0 0 0 0 0 0 0 -0.01 0 0 0 0 0zm0 0c0,0 0,0 0,-0.01 0,0 0,0 0,0l0 0.01zm-0.01 -0.01l0.01 0 0 0 0 0 0 0 0 0 0 0 0 0 0 0 0 0 0 0 0 0 0 0 0 0 0 0 0 0 0 0 0 0 0 0 0 0 0 0 0 0 0 0 0 0 0 0 0 0 0 0 0 0 0 0 0 0 0 0 0 0 0 0 0 0 0 0 0 0.01 0 0 0 0 0 0 0 0 0 0 0 0 0 0 0 0 0 0 0 0 0 0 -0.01 0 0 0 0 0 0 0 0 0 0 0 0 -0.01 0 0 0 0 0 0 0 0 0 0 0 0 0 0 0 0 0 0 0 0 0 0 0 0 0 0 0 0 0 0zm0 0c0,-0.01 0,-0.01 0,-0.01 0.01,0 0.01,0 0.01,0.01l-0.01 0zm0 0l0 -0.01 0.01 0 0 0 0 0 0 0 0 0 0 0 0 0 0 0 0 0 0 0 0 0 0 0 0 0 0 0 0 0 0 0 0 0 0 0 0 0 0 0 0 0 0 0 0 0 0 0 0 0 0 0 0 0.01 0 -0.01 0 0.01 0 0 0 0 0 0 0 0 -0.01 0 0 0 0 0 0 -0.01 0 0 0 0 0 0 0 0 0 0 0 0 0 0 0 0 0 0 0 0 0 0 0 0 0 0 0 0 0 0 0 0 0 0 0 0 0 0 0 0 0 0 0 0 0 0 0 0 0 0 0 0 0 0 0 0 0 0 0 0.01zm0 -0.01c0,0 0,-0.01 0.01,0 0,0 0,0 0,0l-0.01 0zm0 0l0 0 0 0.01 0 0 -0.01 -0.01 0.01 0zm0 0.01c0,0 -0.01,-0.01 -0.01,-0.01 0,0 0.01,0 0.01,0l0 0.01zm0 0l-0.01 0 0 0 0 0 0 0 0 0 0 0 0 0 0 -0.01 0 0 0 0 0 0 0 0 0 0 0 0 0 0 0 0 0 0 0 0 0 0 0 0 0 0 0 0 0 0 0 0 0 0 0 0 0 0 0 0 0 0 0 0 0 0 0 0 0 0 0 0 0.01 0 0 0 0 0 0 0 0 0 0 0 0 0 0 0 0 0 0 0 0 0 0 0 0 0 0 0 0 0 0 0 0 0 0 0 0 0 0 0 0 0 0 0 0 0 0 0 0 0 0 0.01 0 0 0 0 0 0 0 0 0 0 0 0 0 0 0 0zm0 0c0,0 0,0 0,0 -0.01,0 -0.01,0 -0.01,0l0.01 0zm0.01 0l0 0.01 0 0 0 0 0 0 0 0 0 0 0 0 0 0 0 0 -0.01 0 0 0 0 0 0 0 0 0 0 0 0 0 0 0 0 0 0 0 0 0 0 0 -0.01 0 0 0 0 0 0 -0.01 0 0 0 0 0 0 0 0 0 0 0 0 0 0 0 0 0 0 0.01 0 0 0 0 0 0 0 0 0 0 0 0 0 0 0 0 0 0 0 0 0 0 0 0 0 0 0 0 0 0 0 0 0 0 0 0.01 0 0 0 0 0 0 0 0 0 0 0 0 0 0 0 0 0 0 0 0 0 0 0 0 0 0 0 0 0 0 0zm0 0c0.01,0 0.01,0.01 0.01,0.01 0,0 0,0 -0.01,0l0 -0.01zm0.02 -0.01l0.01 0 0 0 0 0 0 0 0 0 0 0 0 0.01 0 0 0 0 0 0 0 0 0 0 0 0 0 0 0 0 0 0.01 -0.01 0 0 0 0 0 0 0 0 0 0 0 0 0 0 0 0 0 -0.01 0 0 0 0 0 0 0 0 0 0 0 0 0 -0.01 0 0 0 0 -0.01 0 0 0 0 0.01 0 0 0 0 0 0 0 0 0 0 0 0 0 0 0 0 0 0 0 0 0 0.01 0 0 0 0 0 0 0 0 0 0 0 0 0 0 0 0 0 0 0 0 -0.01 0 0 0 0 0 0 0 0 0 0 0 0 0 0 0 0 0 0zm0 0c0,0 0,-0.01 0.01,-0.01 0,0 0,0.01 0,0.01l-0.01 0zm-0.01 -0.01l0 -0.01 0 0 0 0 0.01 0 0 0 0 0 0 0 0 0 0 0 0 0 0 0 0 0 0 0 0 0 0.01 0 0 0 0 0 0 0.01 0 0 0 0 0 0 0 0 0 0 0 0 0 0 0 0 0 0 0 0 0 0 0 0 0 0.01 0 0 0 0 0 0 -0.01 0 0 0 0 0 0 0 0 0 0 0 0 0 0 0 0 0 0 0 0 0 0 -0.01 0 0 0 0 0 0 0 0 0 0 0 0 0 0 0 0 0 0 0 0 0 0 0 0 0 0 0 0 0 0 -0.01 0 0 0 0 0 0 0 0 0 0 0 0 0zm0 0c0,0 0,-0.01 0,-0.01 0,0 0,0 0,0l0 0.01zm-0.01 -0.02l0.01 0 0 0 0 0 0 0 0 0 0 0 0 0 0 0.01 0 0 0 0 0 0 0 0 0 0 0 0 0 0 0 0 0 0 0 0 0 0 0 0 0 0 0 0 0 0 0 0 0 0 0 0 0 0 0 0 0 0 0 0 0 0 0 0 0 0 0 0 0 0.01 0 0 0 0 0 0 0 0 0 0 0 0 0 0 0 0 -0.01 0 0 0 0 0 0 0 0 -0.01 0 0 0 0 0 0 0 0 0 0 0 0 0 0 0 0 0 0 0 0 0 0 0 0 0 0 0 0 0 0 0 0 0 0 0 0 0 -0.01 0 0zm0 0c0,0 0,0 0,0 0.01,0 0.01,0 0.01,0l-0.01 0zm0.02 -0.02l0 0.01 0 0 0 0 0 0 0 0 0 0 -0.01 0 0 0 0 0 0 0.01 0 0 0 0 0 0 0 0 0 0 0 0 0 0 0 0 0 0 0 0 0 0 0 0 0 0 0 0 0 0 0 0 0 0 0 0 0 0 0 0 0 0 0 0 0 0 0 0 -0.01 0 0 0 0 0 0 0 0 0 0 0 0 0 0 0 0 0 0 0 0 -0.01 0 0 0 0 0 0 0 0 0 0 0 0 0 0 0 0 0 0 0.01 0 0 0 0 0 0 0 0 0 0 -0.01 0 0 0 0 0 0 0 0 0.01 0 0 0 0 0 0 0zm0 0c0,0 0,0.01 0,0.01 0,0 0,0 0,0l0 -0.01zm0.01 0.02l-0.01 0 0 0 0 0 0 0 0 0 0 0 0 0 0 0 0 0 0 0 0 0 0 0 0 0 0 0 0 0 0 0 0 0 0 0 0 0 0 -0.01 0 0 0 0 0 0 0 0 0 0 0 0 0 0 0 0 0 0 0 0 0 0 0 0 0 0 0 0 0 -0.01 0 0 0 0 0 0 0 0 0 0 0 0 0 0 0 0 0 0 0 0 0.01 0.01 0 0 0 0 0 0 0 0 0 0 0 0 0 0 0 0 0 0 0 0 0 0 0 0 0 0 0 0 0 0 0 0 0 0 0 0.01 0 0 0 0 0 0 0 0zm0 0c0,0 0,0 0,0 -0.01,0 -0.01,0 -0.01,0l0.01 0zm0 0l0 0.01 -0.01 -0.01 0 0 0 0 0 0 0 0 0 0 0 0 0 0 0 0 0 0 0 0 0 0 0 0 0 0 0 0 0 0 0 0 0 0 0 0 0 0 0 0 0 0 0 0 0 0 0 0 0 0 0 0 0 0 0 0 0 0 0 0 0 0 0 0 0.01 0 0 0 0 0 0 0 0 0 0 0 0 0 0 0 0 0 0 0 0 0 0 0 0 0 0 0 0 0 0 0 0 0 0 0 0 0 0 0 0 0 0 0 0 0 0 0 0 0 0 0 0 0 0 0 0 0 0 0 0 0 0 0 0 0 0 0zm0 0c0,0 0,0.01 0,0.01 -0.01,0 -0.01,-0.01 -0.01,-0.01l0.01 0zm0 0.01l0 0 0 -0.01 0 0 0.01 0 -0.01 0.01zm0 -0.01c0.01,0 0.01,0 0.01,0 0,0 0,0.01 -0.01,0.01l0 -0.01zm0.06 0l-0.02 0 0 -0.02 0.02 0 0 0.01 0 0.01zm0 -0.02c0,0 0,0.01 0,0.01 0,0 0,0.01 0,0.01l0 -0.02zm0 0.01l0 0 -0.01 0 0 -0.01 0.01 0 0 0.01zm-0.01 -0.01c0,0 0.01,0 0.01,0 0,0 0,0 0,0.01l-0.01 -0.01zm-0.03 0l0.04 0 0 0.01 -0.04 0 -0.01 -0.01 0.01 0zm0 0.01c0,0 -0.01,0 -0.01,0 0,-0.01 0.01,-0.01 0.01,-0.01l0 0.01zm-0.01 0l0 -0.01 0.01 0.01 0 0 0 0.01 -0.01 -0.01zm0.01 0c0,0 0,0.01 0,0.01 -0.01,-0.01 -0.01,-0.01 -0.01,-0.01l0.01 0zm0.01 0.01l-0.01 0 0 -0.02 0.01 0 0.01 0.01 -0.01 0.01zm0 -0.02c0.01,0 0.01,0.01 0.01,0.01 0,0 0,0.01 -0.01,0.01l0 -0.02zm-0.02 0.07l0.02 -0.06 0.01 0 -0.01 0.06 -0.01 0 -0.01 0zm0.02 0c-0.01,0 -0.01,0 -0.01,0 0,0 -0.01,0 -0.01,0l0.02 0zm0 0l-0.01 0 0 -0.01 0.01 0 0 0.01 0 0zm0 -0.01c0,0 0,0.01 0,0.01 0,0 0,0 0,0l0 -0.01zm0.02 -0.05l-0.02 0.06 -0.01 0 0.01 -0.06 0.01 -0.01 0.01 0.01zm-0.02 0c0.01,0 0.01,-0.01 0.01,0 0,0 0.01,0 0.01,0l-0.02 0zm0.03 0.04l0.01 -0.05 0.01 0.01 -0.01 0.04 -0.01 0 0 0zm0.01 0c-0.01,0.01 -0.01,0.01 -0.01,0.01 0,0 -0.01,-0.01 0,-0.01l0.01 0zm-0.01 0.01l-0.01 0 0 0 0 0 0 0 0 0 0 0 0 0 0 0 0 0 0 0 0 0 0 0 0 0 0 -0.01 0 0 0 0 0 0 0 0 0 0 0 0 0 0 0 0 0 0 0 0 0 0 0 0 0 0 0 0 0 0 0 0 0 0 0.01 0 0 0 0 0 0.01 0 0 0 0 0 0 0 0 0 0 0 0 0 0 0 0 0 0 0 0 0 0 0 0 0 0 0.01 0 0 0 0 0 0 0 0 0 0 -0.01 0 0 0 0 0 0 0 0 0 0 0 0 0 0 0 0 0 0 0 0 0 0 0 0 0 0 0 0 0zm0 0c0,0 0,0 0,0 0,0 -0.01,0 -0.01,0l0.01 0zm0.02 0l0 0.01 0 0 -0.01 0 0 0 0 0 0 0 0 0 0 0 0 0 0 0 0 0 -0.01 0 0 0 0 0 0 0 0 0 0 0 0 0 0 0 0 0 0 0 0 0 0 0 0 0 0 0 0 -0.01 0 0 -0.01 0 0 0 0 0 0 0 0 0 0 0 0 0 0.01 0 0 0 0 0 0 0 0.01 0 0 0 0 0 0 0 0 0 0 0 0 0 0 0 0 0 0 0 0 0 0 0 0 0 0 0 0 0 0 0 0 0 0 0 0 0 0 0 0 0 0 0 0 0 0 0 0 0 0 0 0 0 0 0 0.01 0 0 0zm0 0c0,0 0,0.01 0,0.01 0,0 0,0 0,0l0 -0.01zm0.01 -0.01l0.01 0 0 0 0 0 0 0 0 0 0 0.01 0 0 0 0 0 0 0 0 0 0 0 0 0 0 0 0 0 0 0 0.01 0 0 0 0 -0.01 0 0 0 0 0 0 0 0 0 0 0 0 0 0 0 0 0 -0.01 0 0 0 0 0 0 0 0 0 0 0 0 0 0 -0.01 0 0 0 0 0 0 0 0 0 0 0 0 0 0 0 0 0 0 0 0 0.01 0 0 0 0 0 0 0 0 0 0 0 0 0 0 0 0 0 0 0 0 0 0 0 0 0 0 0 0 -0.01 0 0 0 0 0 0 0 0 0 0 0 0 0 0 0 0zm0 0c0,-0.01 0.01,-0.01 0.01,-0.01 0,0 0.01,0.01 0,0.01l-0.01 0zm0.02 -0.04l-0.01 0.04 -0.01 0 0.01 -0.05 0.01 0 0 0.01zm-0.01 -0.01c0.01,0 0.01,0 0.01,0 0,0 0.01,0 0,0.01l-0.01 -0.01zm0 0l0.01 0 0 0.01 -0.01 0 0 -0.01 0 0zm0 0.01c0,0 0,0 0,0 0,-0.01 0,-0.01 0,-0.01l0 0.01zm-0.01 0.04l0.01 -0.05 0.01 0.01 -0.01 0.04 0 0 -0.01 0zm0.01 0c0,0 -0.01,0.01 -0.01,0.01 0,0 0,-0.01 0,-0.01l0.01 0zm-0.02 0.02l0 -0.01 0 0 0 0 0 0 0 0 0 0 0 0 0 0 0 0 0 0 0 0 0 0 0 0 0 0 0 0 0 0 0 0 0 0 0 0 0 0 0 0 0.01 0 0 0 0 -0.01 0 0 0 0 0 0 0 0 0 0 0 0 0 0 0 0 0 0 0 0 0.01 0 0 0 0 0 0 0 0 0.01 0 0 0 0 0 0 0 0 0 0 -0.01 0 0 0 0 0 0 0 0 0 0 0 0 0 0 0.01 0 0 0 0 0 0 0 0 0 0 0 0 -0.01 0 0 0 0 0 0 0 0 0 0 0 0 0 0 0 0 0 0 0zm0 0c-0.01,0 -0.01,0 -0.01,-0.01 0,0 0,0 0.01,0l0 0.01zm-0.02 -0.01l0.01 0 0 0 0 0 0 0 0 0 0 0 0 0 0 0 0 0 0 0 0 0 0 0 0 0 0 0 0 0 0 0 0 0 0 0 0 0 0 0 0 0 0 0 0 0 0 0 0 0 0 0 0 0 0 0 0 0 0 0 0 0 0 0 0.01 0 0 0 0 0.01 0 0 -0.01 0 0 0 0 0 0 0 0 0 0 0 0 0 0 0 0 0 0 0 0 0 0 0 0 0 0 0 -0.01 0 0 0 0 0 0 0 0 -0.01 0 0 0 0 0 0 0 0 0 0 0 0 0 0 0 0 0 0 0 0 0 0 0 0 0 0zm0 0c0,-0.01 0,-0.01 0.01,-0.01 0,0 0,0 0,0.01l-0.01 0zm0 -0.01l0.01 0 0 0 0 0 0 0 0 0 0 0 0 0 0 0 0 0 0 0 0 0 0 0 0 0 0 0 0 0 0 0 0 0 0 0.01 0 0 0 0 0 0 0 0 0 0 0 0 0 0 0 0 0 0 0 0 0 0 0 0 0 0 0 0 0 0 0 0 -0.01 0 0 0 0 0 0 0 0 0 0 0 0 0 0 0 0 0 0 0 0 -0.01 0 0 0 0 0 0 0 0 0 0 0 0 0 0 0 0 0 0 0 0 0 0 0 0 0 0 0 0 0 0 0 0 0 0 0 0 0 0 0 0 0 0 0 0 0 0zm0 0c0,0 0,0 0.01,0 0,0 0,0 0,0l-0.01 0zm0.02 -0.04l-0.01 0.04 -0.01 0 0.01 -0.05 0.01 0 0 0.01zm-0.01 -0.01c0,0 0.01,0 0.01,0 0,0 0,0 0,0.01l-0.01 -0.01zm0 0l0.01 0 0 0.01 -0.01 0 0 -0.01 0 0zm0 0.01c0,0 0,0 0,0 0,-0.01 0,-0.01 0,-0.01l0 0.01zm0.07 0.01l-0.01 0 0 -0.02 0.01 0 0 0 0 0.02zm0 -0.02c0.01,0 0.01,0.01 0.01,0.01 0,0 0,0.01 -0.01,0.01l0 -0.02zm0.02 0.02l-0.01 0 0 0 0 0 0 0 0 0 0 0 0 0 0 0 0 0 0 0 0 0 0 0 0 0 0 0 0 0 0 0 0 0 0 0 0 0 0 0 0 0 0 0 0 0 0 0 0 0 0 0 0 0 0 0 0 0 0 0 0 0 0 0 -0.01 0 0 0 0 -0.02 0.01 0 0 0.01 0 0 0 0 0 0 0 0 0 0 0 0 0 0 0 0 0 0 0 0 0.01 0 0 0 0 0 0 0 0 0 0 0 0 0 0 0 0 0 0 0 0 0 0 0.01 0 0 0 0 0 0 0 0 0 0 0 0 0 0 0 0 0 0zm0 0c0,0.01 0,0.01 0,0.01 -0.01,0 -0.01,0 -0.01,-0.01l0.01 0zm0 0.02l-0.01 -0.01 0 0 0 0 0 0 0 0 0 0 0 0 0 0 0 0 0 0 0 0 0 0 0 0 0 0 0 0 0 0 0 0 0 0 0 0 0 0 0 0 0 0 0 0 0 0 0 0 0 -0.01 0 0 0 0 0 0 0 0 0 0 0 0 0 0 0 0 0.01 0 0 0 0 0 0 0 0 0 0 0 0 0.01 0 0 0 0 0 0 0 0 0 0 0 0 0 0 0 0 0 0 0 0 0 0 0 0 0 0 0 0 0 0 0 0 0 0 0 0 0 0 0 0 0 0 0 0 0 0.01 0 0 0 0 0 0 0 0zm0 0c0,0 0,0 -0.01,0 0,0 0,0 0,-0.01l0.01 0.01zm-0.03 0.03l0 -0.01 0 0 0 0 0 0 0 0 0 0 0.01 0 0 0 0 0 0 0 0 0 0 0 0 -0.01 0 0 0 0 0 0 0 0 0 0 0 0 0 0 0 0 0.01 0 0 0 0 0 0 0 0 -0.01 0 0 0 0 0 0 0 0 0 0 0 0 0 0 0 -0.01 0.01 0.01 0 0 0 0 0 0 0 0 0 0 0 0 0 0.01 0 0 0 0 0 0 0 0 0 0 -0.01 0 0 0.01 0 0 0 0 0 0 0 0 0 0 0 0 0 0 0 0 -0.01 0.01 0 0 0 0 0 0 0 0 0 0 0 0 -0.01 0 0 0 0 0 0 0zm0 0c0,0 -0.01,0 -0.01,-0.01 0,0 0.01,0 0.01,0l0 0.01zm-0.01 -0.01l0.01 0 0 0.01 -0.01 0 0 -0.01 0 0zm0 0.01c0,0 0,0 0,-0.01 0,0 0,0 0,0l0 0.01zm0.02 -0.06l-0.01 0.05 -0.01 0 0.01 -0.05 0 -0.01 0.01 0.01zm-0.01 0c0,0 0,-0.01 0,0 0.01,0 0.01,0 0.01,0l-0.01 0zm0 0.06l-0.02 0 0 -0.01 0.02 0 0 0 0 0.01zm0 -0.01c0,0 0,0.01 0,0.01 0,0 0,0 0,0l0 -0.01zm0.03 -0.03l0.01 0.01 0 0 0 0 0 0 0 0 -0.01 0 0 0 0 0.01 0 0 0 0 0 0 0 0 0 0 0 0.01 0 0 0 0 0 0 0 0 -0.01 0 0 0 0 0.01 0 0 0 0 0 0 0 0 -0.01 0 0 0 0 0 0 0 0 0 -0.01 0 0 0 0 0 0 0 0 -0.01 0 0 0 0 0 0 0.01 0 0 0 0 0 0 0 0 0 0 0 0 0 0 0 0 0 0.01 0 0 0 0 0 0 0 0 -0.01 0 0 0 0 0 0 0 0 0 0 0 0 0 0 0 -0.01 0 0 0 0 0 0 0.01 0 0 0 0 -0.01 0 0 0 0zm0 0c0,0 0,0 0,0 0.01,0 0.01,0 0.01,0.01l-0.01 -0.01zm0 -0.01l0.01 0 0 0 0 0 0 0 0 0 0 0 0 0 0 0.01 0 0 0 0 0 0 0 0 0 0 0 0 0 0 0 0 0 0 0 0 0 0 0 0 0 0 0 0 0 0 0 0 0 0 0 0 0 0 0 0 0 0 0 0 0 0 0 0 0 0.01 0 0 -0.01 -0.01 0 0 0 0 0 0 0 0 0 0 0 0 0 0 0 0 0 0 0 0 0 0 0 0 0 0 0 0 0 0 0 0 0 0 0 0 0 0 0 0 0 0 0 0 0 0 0 0 0 -0.01 0 0 0 0 0 0 0 0 0 0 0 0 0 0 0 0zm0 0c0,0 0,0 0,0 0.01,0 0.01,0 0.01,0l-0.01 0zm-0.02 -0.01l0 -0.01 0 0 0.01 0 0 0 0 0 0 0 0 0 0 0 0 0 0.01 0 0 0 0 0 0 0 0 0 0 0 0 0.01 0 0 0 0 0 0 0 0 0.01 0 0 0 0 0 0 0 0 0 0 0 0 0.01 0 0 0 0 0 0 0 0 0 0 0 0 0 0 -0.01 0 0 0 0 0 0 0 0 0 0 0 0 0 0 0 0 0 0 0 0 0 0 0 0 0 0 0 0 0 0 -0.01 0 0 0 0 -0.01 0 0 0 0 0 0 0 0 0 0 0 0 0 0 0 0 0 0 0 0 0 0 0 0 0 0 0 -0.01 0 0 0zm0 0c0,0 0,0 0,0 0,-0.01 0,-0.01 0,-0.01l0 0.01zm-0.01 -0.01l0.01 0 0 0.01 -0.01 0 -0.01 -0.01 0.01 0zm0 0.01c0,0 -0.01,0 -0.01,0 0,-0.01 0.01,-0.01 0.01,-0.01l0 0.01zm-0.02 0.06l0.01 -0.07 0.01 0.01 -0.01 0.06 -0.01 0 0 0zm0.01 0c0,0 -0.01,0 -0.01,0 0,0 0,0 0,0l0.01 0zm0.07 -0.07l0 0 0 0.01 0 0 -0.01 -0.01 0.01 0zm0 0.01c-0.01,0 -0.01,0 -0.01,0 0,-0.01 0,-0.01 0.01,-0.01l0 0.01zm-0.02 0.06l0.01 -0.07 0.01 0.01 -0.01 0.06 -0.01 0 0 0zm0.01 0c0,0 -0.01,0 -0.01,0 0,0 0,0 0,0l0.01 0zm0 0l-0.01 0 0 -0.01 0.01 0 0 0.01 0 0zm0 -0.01c0,0 0,0.01 0,0.01 0,0 0,0 0,0l0 -0.01zm0.02 -0.05l-0.02 0.06 -0.01 0 0.02 -0.07 0 0 0.01 0.01zm-0.01 -0.01c0,0 0,0 0,0 0.01,0 0.01,0 0.01,0.01l-0.01 -0.01zm0.05 0.04l0.01 0 0 0 0 0 0 0 0 0 0 0 0 0.01 0 0 0 0 0 0 0 0 0 0 -0.01 0 0 0.01 0 0 0 0 0 0 0 0 0 0 0 0 0 0.01 0 0 0 0 -0.01 0 0 0 0 0 0 0 0 0 0 0 -0.01 0 0 0 0 0 0 0 0 0 0 -0.01 0 0 0 0 0 0 0 0 0 0 0 0 0 0 0.01 0 0 0 0 0 0 0 0 0 0 0 0 0 0 0 0 0 0 0 0 -0.01 0 0 0 0 0.01 0 0 0 0 0 0 0 0 0 0 -0.01 0 0 0 0 0 0 0 0 0 0 0 0 0 0zm0 0c0,-0.01 0,-0.01 0.01,-0.01 0,0 0,0.01 0,0.01l-0.01 0zm0 -0.02l0.01 0 0 0 0 0 0 0 0 0 0 0 0 0 0 0 0 0 0 0 0 0.01 0 0 0 0 0 0 0 0 0 0 0 0 0 0 0 0 0 0 0 0 0 0 0 0 0 0 0 0 0 0 0 0 0 0 0 0.01 0 0 0 0 0 0 0 0 0 0 -0.01 0 0 -0.01 0 0 0 0 0 0 0 0 0 0 0 0 0 0 0 0 0 0 0 0 0 0 0 0 0 0 0 0 0 0 0 0 0 0 0 0 0 0 0 -0.01 0 0 0 0 0 0 0 0 0 0 0 0 0 0 0 0 0 0 0 0 0 0 0 0zm0 0c0,0 0,-0.01 0.01,-0.01 0,0 0,0.01 0,0.01l-0.01 0zm-0.01 -0.01l0 -0.01 0 0 0 0 0 0 0.01 0 0 0 0 0 0 0 0 0 0 0 0 0 0 0 0 0 0.01 0 0 0 0 0 0 0 0 0.01 0 0 0 0 0 0 0 0 0 0 0 0 0 0 0 0 0 0 0 0 0 0.01 0 0 0 0 0 0 0 0 0 0 -0.01 0 0 0 0 0 0 0 0 0 0 0 0 0 0 0 0 0 0 -0.01 0 0 0 0 0 0 0 0 0 0 0 0 0 0 0 0 0 0 0 0 0 0 0 0 0 0 0 0 0 0 0 0 0 0 0 0 0 0 -0.01 0 0 0 0 0 0 0 0 0zm0 0c0,0 0,0 0,-0.01 0,0 0,0 0,0l0 0.01zm-0.02 0.03l-0.01 0 0 0 0 -0.01 0 0 0 0 0 0 0 0 0 0 0 0 0 -0.01 0 0 0 0 0 0 0 0 0.01 0 0 -0.01 0 0 0 0 0 0 0 0 0 0 0 0 0 0 0 -0.01 0.01 0 0 0 0 0 0 0 0 0 0 0 0.01 0 0 0 0 0 0 0 0 0.01 0 0 0 0 0 0 0 0 0 0 -0.01 0 0 0 0 0 0 0 0 0 0 0 0 0 0 0.01 0 0 0 0 0 0 0 0 0 0 -0.01 0 0 0 0 0 0 0 0 0.01 0 0 0 0 0 0 0 0 0 0 0 0 0 0.01 0 0 0 0 0 0zm0 0c0,0 0,0 -0.01,0 0,0 0,0 0,0l0.01 0zm0 0.01l-0.01 0 0 0 0 0 0 0 0 0 0 0 0 0 0 0 0 0 0 0 0 0 0 0 0 0 0 0 0 0 0 0 0 0 0 -0.01 0 0 0 0 0 0 0 0 0 0 0 0 0 0 0 0 0 0 0 0 0 0 0 0 0 0 0 0 0 0 0 0 0.01 0 0 0 0 0 0 0 0 0 0 0 0 0 0 0 0 0 0 0 0 0 0 0 0 0 0 0 0 0.01 0 0 0 0 0 0 0 0 0 0 0 0 0 0 0 0 0 0 0 0 0 0 0 0 0 0 0 0 0 0 0 0 0 0 0 0 0 0zm0 0c0,0.01 -0.01,0.01 -0.01,0.01 0,0 0,0 0,-0.01l0.01 0zm0.01 0.01l0 0.01 0 0 0 0 -0.01 0 0 0 0 0 0 0 0 0 0 0 0 0 0 0 -0.01 0 0 0 0 0 0 0 0 0 0 0 0 0 0 0 0 0 0 0 0 0 0 -0.01 0 0 0 0 0 0 0 0 0 0 0 0 0 0 0 0 0 0 0 -0.01 0 0 0.01 0 0 0 0 0.01 0 0 0 0 0 0 0 0 0 0 0 0 0 0 0 0 0 0 0 0 0 0 0 0 0 0 0 0 0 0 0 0 0 0 0 0 0 0 0 0 0 0 0 0 0 0 0 0 0 0 0 0 0 0 0 0 0.01 0 0 0 0 0zm0 0c0,0 0,0.01 0,0.01 0,0 0,0 0,0l0 -0.01zm-0.02 -0.01l0.01 0 0 0 0 0 0 0 0 0 0 0 0 0.01 0 0 0 0 0 0 0 0 0 0 0 0 0 0 0 0 0 0 0 0 0 0 0 0 0 0 0 0 0 0 0 0 0 0 0 0 0 0 0 0 0.01 0 0 0 0 0 0 0 0 0 0 0 0 0 0 0.01 0 0 0 0 -0.01 0 0 0 0 0 0 0 0 0 0 0 0 0 0 0 0 0 0 0 0 0 0 0 0 0 0 -0.01 -0.01 0 0 0 0 0 0 0 0 0 0 0 0 0 0 0 0 0 0 0 0 0 0 0 0 -0.01 0 0 0 0 0 0 0 0zm0 0c0,0 0,0 0.01,0 0,0 0,0 0,0l-0.01 0zm0 -0.01l0.01 0 0 0 0 0 0 0 0 0 0 0 0 0 0 0 0 0 0 0 0 0 0 0 0 0 0 0 0 0 0 0 0 0.01 0 0 0 0 0 0 0 0 0 0 0 0 0 0 0 0 0 0 0 0 0 0 0 0 0 0 0 0 0 0 0 0 0 0 -0.01 0 0 0 0 0 0 0 0 0 0 0 0 0 0 0 0 0 0 0 0 0 0 0 0 0 0 0 0 0 0 -0.01 0 0 0 0 0 0 0 0 0 0 0 0 0 0 0 0 0 0 0 0 0 0 0 0 0 0 0 0 0 0 0 0 0 0 0 0zm0 0c0.01,-0.01 0.01,-0.01 0.01,-0.01 0,0 0.01,0.01 0,0.01l-0.01 0zm0.03 -0.04l0 0.01 0 0 0 0 0 0 0 0 0 0 0 0 0 0.01 0 0 0 0 -0.01 0 0 0 0 0 0 0 0 0 0 0 0 0 0 0 0 0 0 0 0 0 0 0 0 0.01 0 0 0 0 0 0 0 0 0 0 0 0 0 0 0 0 0 0.01 0 0 -0.01 0 -0.01 0 0 -0.01 0.01 0 0 0 0 0 0 0 0 0 0 0 0 -0.01 0 0 0 0 0 0 0 0 0 0 0 0 0 0 0 -0.01 0 0 0 0 0 0 0.01 0 0 0 0 0 0 0 0 0 0 0 0 0 0 -0.01 0 0 0.01 0 0 0 0 0 0 0 0 0zm0 0c0,0 0.01,0.01 0.01,0.01 0,0 -0.01,0 -0.01,0l0 -0.01zm0.02 0.02l-0.01 0 0 0 0 0 0 0 0 0 0 0 0 0 0 0 0 0 0 0 0 0 0 0 0 0 0 0 -0.01 0 0 0 0 0 0 0 0 0 0 0 0 0 0 0 0 -0.01 0 0 0 0 0 0 0 0 0 0 0 0 0 0 0 0 0 0 0 0 0 0 0 -0.01 0 0 0 0 0 0 0 0 0.01 0 0 0 0 0 0 0 0 0.01 0 0 0 0 0 0 0 0 0 0 0 0 0 0 0 0 0 0 0 0 0 0 0.01 0 0 0 0 0 0 0.01 0 0 0 0 0 0 0 0 0 0 0 0 0 0 0 0 0 0zm0 0c0,0 -0.01,0.01 -0.01,0.01 0,0 0,-0.01 0,-0.01l0.01 0zm-0.01 0.02l-0.01 0 0 0 0 0 0 -0.01 0 0 0 0 0 0 0 0 0 0 0 0 0 0 0 0 0 0 0 0 0 0 0.01 0 0 0 0 0 0 0 0 0 0 0 0 0 0 0 0 0 0 0 0 -0.01 0 0 0 0 0 0 0 0 0 0 0 0 0 0 0 0 0.01 0 0 0 0 0 0 0 0 0 0 0 0 0 0 0.01 0 0 0 0 0 0 0 0 0 0 0 0 0 0 0 0 0 0 0 0 0 0 0 0 0 0 0 0 0 0 0 0 -0.01 0 0 0 0 0.01 0 0 0 0 0 0 0 0 0 0 0 0 0 0zm0 0c0,0 0,0 0,0 -0.01,0 -0.01,0 -0.01,0l0.01 0zm-0.02 0.03l0 -0.01 0 0 0 0 0 0 0 0 0 0 0 0 0 0 0 0 0 0 0 0 0 0 0 0 0.01 0 0 0 0 -0.01 0 0 0 0 0 0 0 0 0 0 0 0 0 0 0 0 0 0 0 0 0 -0.01 0 0 0 0 0 0 0 0 0 0 0 0 0 0 0.01 0 0 0 0 0 0 0 0 0 0 0 0 0.01 0 0 0 0 0 0 0 0 0 0 0 0 0 0.01 0 0 0 0 0 0 0 0 -0.01 0 0 0 0 0 0 0 0 0.01 0 0 0 0 0 0 0 0 -0.01 0 0 0 0 0 0 0 0 0 0 0 0 0zm0 0c-0.01,0 -0.01,0 -0.01,-0.01 0,0 0,0 0.01,0l0 0.01z"/>
  </g>
  <path class="fil4" d="M1.06 0.04c0,0 0,0 0,0 0,-0.01 0,-0.02 -0.01,-0.02 -0.01,0 -0.02,0.01 -0.02,0.03 0,0 0,0.01 0.01,0.01 0,0 0.01,0 0.01,0.01 0,0.01 -0.01,0.01 -0.02,0.01 0,0 -0.01,0 -0.01,0 0,-0.01 0,-0.01 0,-0.01l0 0c0,0 0,0 0,0.01 0,0 0,0.01 0.01,0.01 0.02,0 0.03,-0.01 0.03,-0.02 0,-0.01 -0.01,-0.01 -0.02,-0.02 0,0 -0.01,0 -0.01,-0.01 0,0 0.01,-0.01 0.02,-0.01 0,0 0.01,0 0.01,0.01 0,0 0,0 0,0l0 0zm0.04 -0.01l0.02 0 0 0 -0.04 0 0 0 0.01 0 -0.01 0.06 0.01 0 0.01 -0.06zm0.03 0l-0.01 0.04c0,0 0,0.01 0,0.01 0,0.01 0,0.01 0.02,0.01 0.01,0 0.02,-0.01 0.02,-0.02l0.01 -0.04 -0.01 0 -0.01 0.04c0,0.01 0,0.01 -0.01,0.01 -0.01,0 -0.01,0 -0.01,0 0,0 0,-0.01 0,-0.01l0.01 -0.04 -0.01 0zm0.06 0l0.01 0c0.01,0 0.02,0 0.02,0.01 0,0.01 0,0.01 0,0.02 -0.01,0.01 -0.01,0.02 -0.03,0.02l-0.01 0 0.01 -0.05zm-0.02 0.06l0.02 0c0.02,0 0.03,-0.02 0.03,-0.04 0,0 0,0 0,-0.01 0,-0.01 0,-0.01 -0.02,-0.01l-0.01 0 -0.02 0.06zm0.08 -0.06l0 0 -0.02 0.06 0.01 0 0.01 -0.06zm0.03 0.06c0.02,0 0.02,-0.02 0.02,-0.03 0.01,-0.01 0.01,-0.01 0.01,-0.02 0,-0.01 -0.01,-0.02 -0.02,-0.02 -0.02,0 -0.02,0.02 -0.03,0.04 0,0 0,0.01 0,0.01 0,0.01 0,0.02 0.02,0.02zm0 -0.01c-0.01,0 -0.01,0 -0.01,-0.01 0,0 0,-0.01 0,-0.01 0,-0.02 0.01,-0.03 0.02,-0.03 0.01,0 0.01,0 0.01,0.01 0,0.01 0,0.01 0,0.02 0,0.01 -0.01,0.02 -0.02,0.02z"/>
 </g>
</svg>
