<?xml version="1.0" encoding="utf-8"?>
<!-- Generator: Adobe Illustrator 17.1.0, SVG Export Plug-In . SVG Version: 6.00 Build 0)  -->
<!DOCTYPE svg PUBLIC "-//W3C//DTD SVG 1.1//EN" "http://www.w3.org/Graphics/SVG/1.1/DTD/svg11.dtd">
<svg version="1.1" id="Layer_1" xmlns="http://www.w3.org/2000/svg" xmlns:xlink="http://www.w3.org/1999/xlink" x="0px" y="0px"
	 viewBox="0 0 30 30" enable-background="new 0 0 30 30" xml:space="preserve">
<path fill="#010101" d="M25.7,3.2H4.3C1.9,3.2,0,5.1,0,7.5v14.9c0,2.4,1.9,4.3,4.3,4.3h21.4c2.4,0,4.3-1.9,4.3-4.3V7.5
	C30.1,5.1,28.1,3.2,25.7,3.2z M25.7,5.3c0.2,0,0.3,0,0.5,0.1l-9,10.2c-0.6,0.6-1.3,1-2.2,1c-0.8,0-1.6-0.4-2.2-1l-9-10.2
	c0.2,0,0.3-0.1,0.5-0.1H25.7z M28,22.5c0,1.2-1,2.3-2.3,2.3H4.3c-1.2,0-2.3-1-2.3-2.3V7.5c0-0.3,0.1-0.6,0.2-0.9l9,10.3
	c0.9,1.1,2.3,1.7,3.7,1.7c1.4,0,2.8-0.6,3.7-1.7l9-10.3C27.9,6.9,28,7.2,28,7.5V22.5z"/>
</svg>
