<?xml version="1.0" encoding="utf-8"?>
<!-- Generator: Adobe Illustrator 17.1.0, SVG Export Plug-In . SVG Version: 6.00 Build 0)  -->
<!DOCTYPE svg PUBLIC "-//W3C//DTD SVG 1.1//EN" "http://www.w3.org/Graphics/SVG/1.1/DTD/svg11.dtd">
<svg version="1.1" id="Layer_1" xmlns="http://www.w3.org/2000/svg" xmlns:xlink="http://www.w3.org/1999/xlink" x="0px" y="0px"
	 viewBox="0 0 30 30" enable-background="new 0 0 30 30" xml:space="preserve">
<g>
	<path fill="#eee" d="M20.9,0H8.8C6.4,0,4.4,2,4.4,4.4v21c0,2.4,2,4.4,4.4,4.4h12.1c2.4,0,4.4-2,4.4-4.4v-21
		C25.3,2,23.3,0,20.9,0z M8.8,2h12.1c1.3,0,2.4,1.1,2.4,2.4v16.8H6.4V4.4C6.4,3.1,7.5,2,8.8,2z M20.9,27.8H8.8
		c-1.3,0-2.4-1.1-2.4-2.4v-2.1h16.8v2.1C23.2,26.7,22.2,27.8,20.9,27.8z"/>
	<circle fill="#010101" cx="14.6" cy="4.2" r="0.8"/>
	<circle fill="#010101" cx="14.6" cy="25.4" r="0.8"/>
</g>
</svg>
