<?xml version="1.0" encoding="UTF-8"?>
<!DOCTYPE svg PUBLIC "-//W3C//DTD SVG 1.1//EN" "http://www.w3.org/Graphics/SVG/1.1/DTD/svg11.dtd">
<!-- Creator: CorelDRAW 2018 (64-Bit) -->
<svg xmlns="http://www.w3.org/2000/svg" xml:space="preserve" width="75px" height="56px" version="1.1" style="shape-rendering:geometricPrecision; text-rendering:geometricPrecision; image-rendering:optimizeQuality; fill-rule:evenodd; clip-rule:evenodd"
viewBox="0 0 0.65 0.49"
 xmlns:xlink="http://www.w3.org/1999/xlink">
 <defs>
  <style type="text/css">
   <![CDATA[
    .fil0 {fill:gold;fill-rule:nonzero}
   ]]>
  </style>
 </defs>
 <g id="Слой_x0020_1">
  <metadata id="CorelCorpID_0Corel-Layer"/>
  <path class="fil0" d="M0.36 0.42c0,0.06 0.03,0.07 0.06,0.07l0.16 0c0.07,0 0.07,-0.03 0.07,-0.06l0 -0.2c0,-0.04 0,-0.06 -0.07,-0.06l-0.03 0c0.02,-0.05 0.02,-0.06 0.05,-0.1l0.01 -0.03c0,0 0.03,-0.04 -0.02,-0.04l-0.08 0c-0.02,0 -0.04,0.01 -0.05,0.03l-0.08 0.14c-0.01,0.01 -0.02,0.03 -0.02,0.05l0 0.2zm-0.36 0c0,0.06 0.03,0.07 0.06,0.07l0.16 0c0.06,0 0.07,-0.03 0.07,-0.06l0 -0.2c0,-0.04 0,-0.06 -0.08,-0.06l-0.03 0c0.02,-0.05 0.03,-0.06 0.05,-0.1l0.02 -0.03c0,0 0.02,-0.04 -0.03,-0.04l-0.07 0c-0.02,0 -0.04,0.01 -0.05,0.03l-0.08 0.14c-0.01,0.01 -0.02,0.03 -0.02,0.05l0 0.2z"/>
 </g>
</svg>
