<?xml version="1.0" encoding="utf-8"?>
<!-- Generator: Adobe Illustrator 17.1.0, SVG Export Plug-In . SVG Version: 6.00 Build 0)  -->
<!DOCTYPE svg PUBLIC "-//W3C//DTD SVG 1.1//EN" "http://www.w3.org/Graphics/SVG/1.1/DTD/svg11.dtd">
<svg version="1.1" id="Layer_1" xmlns="http://www.w3.org/2000/svg" xmlns:xlink="http://www.w3.org/1999/xlink" x="0px" y="0px"
	 viewBox="0 0 20 20" enable-background="new 0 0 20 20" xml:space="preserve">
<path fill="#010101" d="M4.2,7c0.5,0,1.7,0,2.1,0c0.1,0,0.2,0,0.2,0.1c0.5,1,1.1,2,1.8,2.8c0.1,0.1,0.2,0.1,0.3,0
	c0.2-0.5,0.6-1.8-0.2-2.8c-0.1-0.1,0-0.2,0.1-0.3c0.8-0.3,1.6-0.4,2.3,0c0.2,0.1,0.3,0.2,0.3,0.4l0.2,2.7c0,0.1,0.1,0.2,0.2,0.2
	c0.9-0.2,1.4-1.5,1.9-2.9C13.3,7.1,13.5,7,13.6,7h1.9c0.2,0,0.3,0.1,0.3,0.3c-0.2,1-1.2,2.2-1.7,2.8c-0.2,0.2-0.2,0.5,0,0.7l1.7,2
	c0.1,0.1,0,0.4-0.2,0.4h-2.2c-0.2,0-0.3-0.1-0.5-0.2l-1.5-1.3c-0.1-0.1-0.2-0.1-0.3,0C11,12,11.1,12.3,11,12.9
	c0,0.2-0.2,0.3-0.4,0.3H9.1c-0.2,0-0.4,0-0.6-0.1C7.6,12.7,5.3,11.3,4,7.3C3.9,7.1,4,7,4.2,7z"/>
</svg>
